<svg width="3741" height="3831" viewBox="0 0 3741 3831" fill="none" xmlns="http://www.w3.org/2000/svg">
<path d="M1730.61 3302.94L1704.5 3325.5H1650.22V3373.35H1690.96V3355.99H1730.61V3413H1610.57V3308.14L1636.14 3285.71H1690.96V3237.86H1650.63V3255.23H1610.57V3198.21H1650.63V3209.43L1663.48 3198.21H1705.18L1730.61 3220.64V3302.94Z" fill="white"/>
<path d="M1871.43 3390.58L1845.73 3413H1774.91L1749.75 3390.58V3220.77L1775.45 3198.21H1845.73L1871.43 3220.77V3390.58ZM1831.78 3373.35V3237.86H1789.4V3373.35H1831.78Z" fill="white"/>
<path d="M2010.61 3302.94L1984.5 3325.5H1930.22V3373.35H1970.96V3355.99H2010.61V3413H1890.57V3308.14L1916.14 3285.71H1970.96V3237.86H1930.63V3255.23H1890.57V3198.21H1930.63V3209.43L1943.48 3198.21H1985.18L2010.61 3220.64V3302.94Z" fill="white"/>
<path d="M2111.92 3316.34V3274.37L2086.49 3316.34H2111.92ZM2100.43 3373.35H2111.92V3355.99H2054.91L2029.75 3333.43L2111.92 3198.21H2151.57V3316.34H2162.64V3355.99H2151.57V3373.35H2162.91V3413H2100.43V3373.35Z" fill="white"/>
<path d="M1986.7 2304.52C1874.44 2305.22 1762.17 2306.59 1649.91 2306.32C1600.08 2306.2 1550.23 2303.23 1500.44 2300.68C1450.65 2298.13 1400.79 2295.58 1351.14 2291.04C1295.28 2285.93 1239.5 2279.46 1183.91 2271.95C1132.27 2264.95 1080.84 2256.3 1029.47 2247.54C994.814 2241.63 960.374 2234.38 925.874 2227.54C902.294 2222.87 878.674 2218.38 855.274 2212.95C827.154 2206.43 799.204 2199.13 771.274 2191.95C746.274 2185.52 721.334 2179.07 696.524 2172.08C664.904 2163.16 633.124 2154.62 601.994 2144.16C571.324 2133.85 541.474 2121.16 511.104 2109.93C501.154 2106.25 490.574 2104.33 480.524 2100.93C465.434 2095.75 449.844 2091.32 435.714 2084.11C400.714 2066.25 367.894 2044.82 339.784 2016.99C326.124 2003.48 313.994 1988.93 307.564 1970.1C302.184 1954.36 303.054 1938.44 303.564 1922.47C303.814 1914.66 307.344 1911.81 316.724 1910.01C334.32 1906.5 352.534 1907.75 369.484 1913.64C398.804 1923.89 427.844 1934.96 456.874 1946.03C486.784 1957.44 516.794 1967.85 548.494 1973.9C570.154 1978.04 590.744 1987.45 612.074 1993.6C651.404 2004.94 690.734 2016.35 730.404 2026.36C775.324 2037.7 820.514 2048.01 865.784 2057.86C893.184 2063.86 920.914 2068.29 948.564 2073.01C991.564 2080.33 1034.69 2087.08 1077.69 2094.49C1102.69 2098.8 1127.9 2102.49 1152.36 2108.99C1186.16 2117.93 1220.68 2121.31 1255.13 2124.99C1290.52 2128.77 1326.13 2130.29 1361.66 2132.93C1414.49 2136.86 1467.27 2141.47 1520.14 2144.73C1564.14 2147.45 1608.14 2149.45 1652.22 2150.31C1724.8 2151.72 1797.41 2152.75 1870 2152.44C1934.55 2152.17 1999.1 2149.86 2063.64 2148.44C2086.34 2147.94 2109.06 2147.71 2131.75 2146.91C2166.88 2145.67 2202 2144.31 2237.11 2142.54C2280.67 2140.34 2324.24 2138.14 2367.75 2135.06C2418.4 2131.46 2468.55 2123.85 2518.58 2115.17C2549.7 2109.78 2581.16 2106.41 2612.38 2101.62C2637.9 2097.7 2663.38 2093.43 2688.75 2088.62C2730.75 2080.62 2772.75 2072.73 2814.5 2063.62C2882.83 2048.74 2951.13 2033.62 3019.12 2017.3C3070.55 2004.92 3121.53 1990.57 3172.6 1976.71C3194.46 1970.79 3216.25 1964.5 3237.71 1957.28C3254.51 1951.63 3270.41 1943.27 3287.29 1937.94C3318.5 1928.15 3350.52 1923.26 3383.41 1927.2C3393.95 1928.46 3404.68 1928.03 3414.54 1933.49C3425 1939.29 3428.85 1946.09 3424.96 1957.43C3422.55 1964.58 3419.16 1971.35 3414.89 1977.56C3396.18 2004.36 3372.89 2027.08 3349.89 2050.15C3328.81 2071.34 3304.83 2087.86 3277.15 2098.76C3258.56 2106.1 3239.6 2112.55 3220.62 2118.86C3192.4 2128.25 3164.13 2137.53 3135.62 2146.19C3111.42 2153.55 3086.96 2160.12 3062.54 2166.76C3037.23 2173.64 3011.91 2180.53 2986.44 2186.76C2964 2192.26 2941.45 2197.27 2918.78 2201.8C2891.78 2207.26 2864.56 2212.13 2837.41 2217.07C2822.53 2219.78 2807.6 2222.22 2792.66 2224.58C2746.91 2231.79 2701.23 2239.45 2655.37 2245.88C2617.45 2251.18 2579.37 2255.57 2541.27 2259.33C2487.27 2264.68 2433.04 2268.78 2378.98 2274.1C2366.67 2275.31 2354.74 2280.1 2342.44 2281.83C2320.44 2284.92 2298.29 2287.84 2276.11 2289.23C2236.11 2291.82 2196.11 2293.41 2156.06 2295.23C2110.26 2297.23 2064.44 2299 2018.63 2301.02C2007.98 2301.49 1997.34 2302.59 1986.7 2303.4C1986.76 2303.74 1986.76 2304.13 1986.7 2304.52Z" fill="white"/>
<path d="M581.764 466.495C579.824 503.495 578.044 545.755 575.274 587.965C571.584 644.175 561.014 699.225 546.894 753.735C539.084 783.885 533.894 814.735 526.444 844.975C518.898 875.642 510.591 906.105 501.524 936.365C492.414 966.605 482.644 996.685 478.034 1027.99C472.954 1062.6 472.364 1097.3 482.254 1131.32C488.144 1151.58 498.054 1170.08 510.304 1187.17C532.986 1218.59 557.643 1248.55 584.124 1276.85C612.044 1306.85 639.224 1337.54 661.314 1372.34C682.794 1406.15 697.024 1442.79 705.414 1481.86C716.474 1533.4 721.034 1585.72 724.174 1638.2C726.367 1674.62 728.251 1711.07 729.824 1747.54C730.053 1755.11 729.382 1762.68 727.824 1770.1C725.734 1780.65 718.824 1784.71 709.084 1780.03C697.934 1774.65 686.594 1768.68 677.244 1760.73C651.144 1738.53 625.044 1716.17 600.784 1692.02C566.074 1657.47 532.424 1621.8 499.404 1585.61C473.904 1557.61 450.104 1528.14 425.484 1499.37C393.344 1461.79 361.181 1424.25 328.994 1386.73C281.854 1331.63 241.574 1272.15 212.274 1205.49C202.604 1183.49 192.034 1161.85 188.384 1137.82C186.506 1126.4 185.397 1114.87 185.064 1103.31C184.584 1073.91 185.474 1044.48 184.724 1015.08C183.724 976.265 194.174 940.495 210.144 905.635C241.084 838.105 280.674 775.845 323.714 715.575C354.044 673.115 382.484 629.445 404.444 581.945C417.164 554.435 427.614 526.115 433.104 496.075C438.754 465.125 440.274 433.995 435.804 402.975C431.964 376.285 420.454 352.845 399.294 335.055C359.294 301.415 328.294 260.235 300.294 216.545C295.857 209.352 292.225 201.693 289.464 193.705C282.144 173.555 294.774 158.565 315.714 161.935C334.914 165.035 352.104 173.555 369.344 181.855C413.174 202.965 455.084 227.095 492.424 258.715C532.314 292.505 560.154 334.055 574.664 384.265C581.934 409.365 581.764 435.325 581.764 466.495Z" fill="white"/>
<path d="M1829.93 1657.27C1829.33 1643.93 1828.69 1630.58 1828.13 1617.27C1827.6 1604.67 1831.03 1593.02 1839.83 1584.14C1859.16 1564.62 1861.73 1542.94 1852 1517.94C1841.84 1491.8 1831.86 1465.7 1818.39 1440.94C1809.93 1425.4 1797.05 1418.23 1780.28 1415.09C1754.98 1410.35 1729.91 1404.36 1704.66 1399.36C1697.29 1397.9 1689.66 1397.9 1682.09 1397.36C1670.03 1396.56 1658.41 1392.47 1648.49 1385.56C1639.66 1379.46 1633.84 1371.5 1634.15 1359.97C1634.6 1343.05 1634.07 1326.08 1635.15 1309.21C1635.65 1301.38 1638.08 1293.36 1641.15 1286.09C1648.26 1269.43 1647.5 1252.19 1646.71 1234.82C1646.39 1227.7 1646.71 1220.48 1645.71 1213.46C1643.39 1197.06 1649.65 1183.92 1660.15 1172.19C1675.59 1154.96 1691.42 1138.07 1706.48 1120.52C1712.81 1113.08 1718.33 1104.99 1722.93 1096.38C1739.2 1066.18 1755.21 1035.83 1770.65 1005.2C1774.73 997.338 1777.3 988.793 1778.25 979.995C1780.73 951.995 1783.54 923.995 1790.95 896.895C1800.61 861.505 1816.83 829.525 1844.13 804.245C1849.81 799.249 1856.22 795.154 1863.13 792.105C1876.01 786.105 1888.5 791.505 1892.98 805.105C1895.14 811.695 1896.38 819.185 1895.66 826.015C1891.38 867.015 1877.99 904.965 1854.39 938.805C1844.7 952.657 1833.84 965.651 1821.92 977.645C1806.19 993.439 1793.04 1011.6 1782.92 1031.46C1769.55 1057.64 1754.47 1083 1742.03 1109.61C1728.41 1138.72 1718.59 1169.27 1719.38 1202.11C1719.66 1213.71 1717.57 1224.17 1708.96 1232.72C1702.5 1239.15 1700.42 1247.34 1701.73 1256.12C1703.89 1270.65 1705.87 1285.27 1709.1 1299.57C1711.81 1311.57 1717.26 1314.71 1729.82 1312.85C1751.76 1309.61 1771.66 1300.61 1791.62 1291.71C1803.82 1286.3 1815.62 1279.93 1828 1275.01C1836.19 1271.76 1845.24 1270.77 1853.66 1268.01C1874.58 1261.15 1882.93 1235.01 1870.15 1216.8C1867.09 1212.41 1863.75 1208.23 1860.15 1204.28C1835.65 1177.5 1835.37 1132.92 1852.82 1104.46C1866.9 1081.46 1896.63 1066.92 1923.34 1070.81C1940.26 1073.27 1952.4 1082.06 1959.5 1097.14C1970.6 1120.68 1978.95 1145.05 1978.02 1171.68C1977.8 1177.9 1977.63 1184.24 1978.61 1190.34C1979.18 1193.84 1981.42 1198.09 1984.25 1199.81C1985.91 1200.81 1990.56 1198.05 1993.19 1196.09C1996.35 1193.72 1998.91 1190.48 2001.53 1187.46C2013.97 1173.07 2030.26 1164.8 2048.65 1166.21C2079.42 1168.57 2105.9 1158.39 2132.87 1145.62C2165.62 1130.12 2196.47 1111.62 2226.87 1092.23C2266.28 1067.07 2305.04 1040.9 2344.13 1015.24C2360.18 1004.66 2373.99 991.016 2384.76 975.095C2394.2 961.285 2405.21 950.535 2421.83 946.755C2434.39 943.905 2446.93 940.265 2459.67 939.155C2477.01 937.635 2487.77 951.955 2482.77 968.845C2479.17 981.025 2472.77 991.845 2461.85 999.025C2444.71 1010.23 2428.17 1023.03 2409.69 1031.32C2383.78 1043.01 2363.27 1060.64 2343.56 1080.19C2319.56 1104.03 2295.18 1127.5 2270.4 1150.61C2244.94 1174.5 2215.51 1193.13 2186.22 1211.81C2174.22 1219.43 2163.75 1227.59 2160.56 1242.61C2159.17 1249.19 2153.75 1252.62 2146.99 1253.9C2139.55 1255.3 2132.17 1257.03 2124.82 1258.9C2109.38 1262.73 2100.4 1271.53 2099.43 1287.59C2097.92 1312.45 2096.66 1337.48 2101.99 1362.19C2106.22 1381.83 2108.99 1401.55 2108.76 1421.8C2108.29 1469.94 2108.98 1518.09 2108.42 1566.23C2108.2 1584.43 2105.91 1602.62 2104.36 1620.79C2104.07 1624.29 2102.64 1627.68 2102.11 1631.18C2100.86 1639.46 2098.96 1647.77 2098.95 1656.07C2099.04 1665.89 2099.97 1675.67 2101.72 1685.32C2104.86 1703.53 2100.9 1720.55 2095.43 1737.74C2092.92 1745.63 2092.37 1754.31 2091.99 1762.68C2091.43 1774.68 2091.99 1786.75 2091.8 1798.79C2091.66 1809.68 2089.06 1819.78 2083 1829.12C2073.13 1844.31 2069.32 1861.83 2064.72 1878.99C2053.39 1921.19 2039.66 1962.52 2019.08 2001.21C2013.54 2011.38 2007.15 2021.06 1999.98 2030.16C1990.5 2042.44 1977.9 2048.69 1961.78 2048.47C1934.25 2048.1 1907.99 2041.27 1881.78 2034.15C1858.57 2027.85 1835.72 2020.14 1812.38 2014.44C1800.86 2011.61 1788.63 2011.18 1776.68 2010.67C1758.47 2009.9 1742.8 2016.49 1729.13 2028.55C1711.43 2044.16 1693.88 2060.01 1675.29 2074.54C1665.63 2082.07 1654.29 2087.78 1642.96 2092.71C1629.3 2098.71 1619.57 2093.71 1615.18 2079.31C1608.95 2058.84 1610.27 2038.73 1620.98 2019.92C1627.58 2008.33 1634.15 1996.49 1642.41 1986.09C1657.98 1966.48 1667 1943.98 1674.56 1920.6C1676.2 1915.53 1678.36 1910.54 1679.27 1905.33C1680.34 1899.17 1680.72 1892.49 1674.61 1888.33C1668.82 1884.33 1662.54 1885.58 1656.87 1888.7C1645.95 1894.7 1635.24 1901.05 1624.47 1907.31C1614.47 1913.12 1604.91 1919.82 1594.47 1924.56C1586.78 1927.99 1578.53 1929.99 1570.12 1930.47C1556.46 1931.23 1547.23 1924 1545.73 1910.78C1543.06 1887.17 1545.41 1864.77 1563.45 1846.22C1578.54 1830.66 1595.98 1818.65 1614 1807.05C1627.84 1798.14 1641.13 1788.37 1654.64 1778.96C1657.56 1776.96 1660.36 1774.74 1663.3 1772.73C1684 1758.6 1697.06 1768.74 1706.93 1781.68C1709.36 1784.85 1711.39 1788.34 1713.53 1791.68C1718.68 1799.82 1726.21 1803.79 1735.64 1804.84C1743.15 1805.68 1750.64 1806.57 1758.08 1808.05C1765.08 1809.45 1770.45 1807.4 1774.24 1801.58C1777.63 1796.36 1781.24 1791.14 1783.71 1785.48C1798.4 1752.06 1813.22 1718.7 1826.98 1684.89C1830.38 1676.55 1829.98 1666.66 1831.36 1657.48L1829.93 1657.27ZM1890.31 1920.91V1921.43C1893.87 1921.43 1897.43 1921.43 1900.99 1921.43C1917.78 1921.12 1921.81 1917.84 1925.14 1901.08C1926.96 1891.92 1928.58 1882.71 1929.83 1873.46C1932.1 1856.72 1934.32 1839.95 1935.83 1823.12C1936.13 1819.76 1934.02 1814.48 1931.41 1813.06C1929.2 1811.86 1924.63 1814.91 1921.16 1816.24C1920.4 1816.53 1919.91 1817.48 1919.28 1818.1C1894.78 1842.59 1877.11 1871.93 1860.53 1901.93C1854.71 1912.47 1858.3 1918.92 1870.33 1920.74C1876.85 1921.7 1883.64 1920.91 1890.31 1920.91Z" fill="white"/>
<path d="M3274.25 1065.03C3274.84 1033.8 3270.65 1004.28 3264.71 975.025C3256.4 934.025 3247.43 893.205 3239.23 852.215C3232.09 816.475 3224.4 780.765 3219.14 744.735C3212.25 697.615 3206.06 650.315 3204.69 602.615C3203.19 550.545 3201.04 498.475 3200.55 446.385C3200.25 415.255 3201.42 384.105 3206 353.085C3210.65 321.615 3225.58 296.615 3247.76 274.525C3292.59 229.965 3347.25 201.685 3404.89 178.425C3418.15 173.256 3432.05 169.915 3446.21 168.495C3472.11 165.615 3485.76 185.425 3476.76 209.865C3470.99 225.475 3460.04 237.125 3449.13 248.765C3427.51 271.835 3404.94 294.025 3383.53 317.285C3362.37 340.285 3343.19 364.895 3328.84 392.845C3319.39 411.215 3311.41 430.615 3314.48 451.615C3316.65 466.385 3321.36 481.095 3326.99 495.005C3360.99 579.005 3402.72 659.105 3450.06 736.325C3477.97 781.865 3506.34 827.115 3533.83 872.905C3551.45 902.393 3563.6 934.815 3569.7 968.615C3572.51 983.885 3573.38 999.615 3574.31 1015.12C3575.43 1033.77 3576.51 1052.5 3576.12 1071.12C3575.53 1099.12 3573.66 1127.12 3572.3 1155.12C3569.76 1207.49 3548.91 1252.61 3516.49 1292.61C3498 1315.43 3478.69 1337.67 3458.61 1359.11C3423.61 1396.49 3388.25 1433.61 3352.01 1469.81C3304.74 1517.03 3257.25 1564.17 3202.42 1602.88C3163.12 1630.61 3122.56 1656.36 3077.7 1674.45C3071.06 1677 3064.19 1678.92 3057.19 1680.19C3044.03 1682.84 3034.99 1675.95 3034.88 1662.57C3034.89 1650.56 3035.52 1638.56 3036.76 1626.61C3039.25 1600.46 3041.76 1574.29 3045.07 1548.24C3047.49 1529.24 3051.07 1510.47 3054.52 1491.65C3057.38 1475.9 3060.44 1460.17 3063.95 1444.55C3069.57 1419.55 3083.78 1398.84 3099.29 1379.35C3127.29 1344.17 3156.39 1309.87 3185 1275.17C3215.14 1238.62 3242.91 1200.54 3259.15 1155.43C3269.81 1125.87 3275.14 1095.32 3274.25 1065.03Z" fill="white"/>
<path d="M342.104 3327.88C343.194 3302.33 352.964 3281.42 374.374 3266.48C403.764 3245.97 435.794 3230.31 468.254 3215.57C501.904 3200.28 536.764 3188.45 572.484 3178.75C608.914 3168.85 644.694 3156.6 681.044 3146.41C714.844 3136.92 748.974 3128.57 783.044 3120.09C820.144 3110.86 857.284 3101.79 894.524 3093.19C916.614 3088.09 938.924 3083.96 961.174 3079.54C977.314 3076.33 993.494 3073.29 1009.68 3070.28C1023.68 3067.68 1037.68 3065 1051.68 3062.77C1088.17 3056.98 1124.68 3051.03 1161.24 3045.89C1187.7 3042.18 1214.29 3039.26 1240.89 3036.74C1290.54 3032.05 1340.17 3026.88 1389.89 3023.74C1453.42 3019.74 1517.05 3017.23 1580.66 3014.86C1625.61 3013.19 1670.6 3012.46 1715.57 3011.98C1799.78 3011.1 1883.99 3010.04 1968.2 3010.36C2021.2 3010.56 2074.11 3013.14 2127.07 3014.64C2144.44 3015.13 2161.81 3015.42 2179.17 3016.12C2216.98 3017.66 2254.79 3019.12 2292.57 3021.12C2327.26 3022.95 2361.95 3025 2396.57 3027.67C2429.86 3030.23 2463.16 3033.08 2496.33 3036.94C2549.39 3043.12 2602.42 3049.65 2655.33 3057.22C2680.8 3060.87 2705.88 3067.28 2731.16 3072.32C2754.69 3077.02 2778.32 3081.24 2801.79 3086.24C2822.65 3090.69 2843.32 3095.97 2864.1 3100.79C2884.88 3105.61 2905.73 3110.15 2926.46 3115.18C2945.04 3119.68 2963.54 3124.45 2981.97 3129.5C3006.42 3136.16 3030.87 3142.85 3055.14 3150.11C3089.14 3160.3 3123.29 3170.43 3156.99 3181.71C3187.34 3191.86 3217.39 3202.97 3247.19 3214.65C3284.55 3229.27 3321.28 3245.39 3355.42 3266.75C3370.22 3276.01 3384.22 3286.27 3392.67 3302.33C3397.79 3312.05 3400.48 3322.23 3399.22 3333.23C3397.59 3347.54 3390.35 3354.3 3376.11 3352.75C3364.17 3351.42 3352.36 3349.04 3340.83 3345.66C3307.98 3336.06 3275.35 3325.66 3242.61 3315.71C3212.02 3306.37 3181.51 3296.71 3150.76 3287.95C3113.12 3277.18 3075.46 3266.4 3037.46 3257.01C2984.72 3243.97 2931.8 3231.65 2878.7 3220.07C2834.33 3210.38 2789.7 3201.86 2745.04 3193.46C2716.19 3188.03 2687.12 3183.74 2658.15 3178.95C2643.65 3176.55 2629.15 3173.95 2614.65 3171.81C2576.8 3166.23 2538.92 3160.81 2501.05 3155.39C2480.35 3152.39 2459.67 3149.24 2438.92 3146.55C2415.52 3143.55 2392.07 3140.79 2368.61 3138.19C2339.86 3135 2311.11 3131.67 2282.29 3129.14C2244.6 3125.84 2206.85 3123.05 2169.1 3120.45C2143.81 3118.71 2118.47 3117.6 2093.1 3116.38C2076.19 3115.57 2059.28 3114.86 2042.36 3114.5C2014.3 3113.91 1986.24 3113.66 1958.17 3113.24C1909.64 3112.52 1861.1 3110.86 1812.58 3111.28C1748.46 3111.82 1684.33 3113.18 1620.27 3115.75C1579.39 3117.38 1538.61 3121.64 1497.82 3125.11C1466.32 3127.79 1434.82 3130.63 1403.4 3134.21C1363.62 3138.75 1323.92 3144.13 1284.19 3149.13C1249.32 3153.52 1214.38 3157.46 1179.58 3162.4C1147.86 3166.9 1116.28 3172.4 1084.66 3177.6C1045.56 3183.99 1006.43 3190.12 967.434 3197.05C933.234 3203.13 899.124 3209.81 865.104 3216.86C817.104 3226.81 769.104 3236.86 721.394 3247.81C686.254 3255.89 651.394 3265.07 616.604 3274.68C581.044 3284.5 545.667 3294.98 510.474 3306.11C485.534 3314.04 461.214 3323.89 436.474 3332.43C414.704 3339.95 392.734 3346.89 370.814 3353.99C368.669 3354.61 366.449 3354.95 364.214 3354.99C350.324 3355.62 343.264 3349.55 342.034 3335.88C341.904 3333.23 342.104 3330.55 342.104 3327.88Z" fill="white"/>
<path d="M2246.89 3381.72C2246.15 3369.89 2253.22 3362.72 2260.6 3355.43C2304.74 3312.01 2348.66 3268.35 2396.81 3229.28C2413.81 3215.47 2431.75 3202.78 2452.34 3195.04C2477 3185.77 2502.21 3178.43 2529.14 3184.96C2546.92 3189.27 2556.78 3201.75 2557.82 3220.12C2558.72 3236.12 2553.22 3249.99 2544.82 3262.75C2530.82 3283.91 2516.82 3305.16 2501.53 3325.36C2456.53 3384.68 2409.38 3442.42 2356.53 3494.83C2313.53 3537.42 2268.34 3577.83 2222.79 3617.71C2158.72 3673.79 2091.63 3726.17 2020.87 3773.65C1994.29 3791.48 1967.62 3809.35 1937.58 3821.15C1912.03 3831.15 1886.13 3833.15 1859.17 3826.33C1825.17 3817.66 1794.29 3801.91 1763.59 3785.91C1732.89 3769.91 1702.94 3752.13 1672.73 3735.01C1646.61 3720.21 1623.52 3701.19 1600.91 3681.73C1542.48 3631.43 1486.68 3578.36 1432.52 3523.44C1383.05 3473.26 1335.45 3421.43 1289.71 3367.93C1264.57 3338.37 1241.08 3307.45 1224.47 3272.06C1219.1 3260.84 1214.79 3249.15 1211.6 3237.14C1206.97 3219.05 1213.52 3203.81 1227.22 3191.64C1240.7 3179.64 1255.99 3176.84 1273.22 3182.52C1304.08 3192.7 1328.91 3212.46 1352.29 3233.7C1384.29 3262.7 1414.88 3293.24 1445.82 3323.4C1498.82 3375.04 1552.95 3425.35 1609.65 3472.94C1664.98 3519.32 1724.69 3560.2 1787.94 3595C1810.5 3607.45 1833.84 3618.47 1856.82 3630.16C1870.09 3636.92 1883.05 3636.16 1896.58 3630.16C1943.04 3609.38 1986.01 3582.52 2028.99 3555.59C2077.18 3525.4 2120.15 3488.71 2161.42 3449.86C2181.86 3430.63 2202.63 3411.74 2222.62 3392.05C2229.44 3385.26 2237.45 3383.03 2246.89 3381.72Z" fill="white"/>
<path d="M3046.76 249.615C3046.76 300.865 3046.23 352.125 3046.92 403.365C3047.5 446.515 3049.02 489.675 3051.05 532.795C3052.04 553.291 3057.15 573.38 3066.05 591.865C3108.41 680.705 3150.44 769.705 3192.16 858.865C3209.86 896.695 3227.16 934.745 3243.28 973.265C3256.28 1004.37 3264.69 1036.86 3256.59 1070.86C3251.86 1090.71 3245.59 1110.24 3239.06 1129.6C3225.8 1169.33 3206.43 1206.75 3181.63 1240.51C3172.13 1253.41 3162.54 1266.32 3149.09 1275.64C3138.14 1283.22 3134.71 1283.11 3124.46 1274.35C3112.34 1263.98 3104.46 1250.41 3097.53 1236.49C3069.53 1180.4 3041.24 1124.43 3014.32 1067.81C2981.43 998.625 2949.86 928.805 2925.43 856.055C2913.43 820.235 2903.7 783.585 2893.92 747.055C2881.46 700.495 2875.32 652.875 2870.7 604.935C2867.78 574.715 2864.37 544.595 2867.33 514.315C2869.09 496.215 2872.58 478.255 2875.98 460.315C2879.71 440.665 2883.61 421.005 2888.5 401.625C2900.25 354.952 2912.36 308.415 2924.84 262.015C2938.13 212.915 2948.62 163.305 2955.15 112.855C2958.64 85.905 2962.15 58.975 2966.04 32.0751C2966.99 26.3691 2968.57 20.7874 2970.76 15.4351C2976.11 1.53507 2987.54 -2.68493 3000.71 4.68507C3005.78 7.4884 3010.29 11.1924 3014.02 15.6151C3023.91 27.6151 3033.87 39.6951 3042.24 52.7551C3045.76 58.2551 3046.51 66.2651 3046.55 73.1451C3046.87 131.965 3046.73 190.795 3046.73 249.615H3046.76Z" fill="white"/>
<path d="M710.474 320.285C710.474 276.145 710.354 232.015 710.474 187.875C710.614 150.875 710.984 113.955 717.084 77.265C722.294 45.895 738.664 22.045 763.924 3.97503C774.774 -3.77497 785.924 0.0850372 788.484 13.135C791.824 30.135 793.484 47.4751 794.484 64.7551C795.194 76.6851 793.624 88.7551 793.064 100.755C791.124 142.505 801.364 180.515 824.134 216.075C846.654 251.255 858.824 290.845 867.764 331.665C875.314 366.185 878.374 401.195 882.394 436.095C884.674 455.955 884.724 476.145 884.644 496.175C884.424 550.105 884.424 604.055 882.644 657.935C881.874 680.935 877.134 703.825 873.694 726.685C865.644 780.135 850.824 831.985 833.044 882.805C819.384 921.855 803.154 960.095 786.404 997.965C757.964 1062.29 727.574 1125.73 693.194 1187.15C686.474 1199.15 679.134 1210.86 671.534 1222.34C667.759 1227.86 663.401 1232.96 658.534 1237.55C640.024 1255.55 623.534 1257.99 602.234 1243.48C588.323 1233.89 575.483 1222.82 563.934 1210.48C542.144 1187.35 523.934 1161.62 513.294 1131.11C507.036 1113.01 503.72 1094.01 503.474 1074.85C502.624 1025.71 516.004 980.035 535.424 935.455C555.084 890.335 581.944 849.305 606.104 806.725C635.22 755.686 660.47 702.537 681.644 647.725C689.914 626.175 697.784 604.215 702.814 581.725C707.408 560.84 709.844 539.538 710.084 518.155C711.034 452.215 710.474 386.245 710.474 320.285Z" fill="white"/>
<path d="M2113.83 85.1451C2115.69 77.3851 2113.93 68.3251 2121.47 61.9951C2129.33 55.3951 2136.09 54.1451 2144.47 59.9951C2150.56 64.2651 2156.73 69.3051 2160.83 75.3751C2173.04 93.3751 2184.94 111.755 2195.69 130.695C2219.96 173.795 2247.35 215.065 2277.63 254.175C2325.4 315.31 2379.86 370.903 2439.99 419.915C2500.11 469.085 2565.86 509.855 2631.55 550.915C2681.37 582.045 2730.24 614.735 2778.96 647.585C2799.3 661.295 2817.21 678.215 2831.23 698.685C2842.23 714.974 2849.95 733.247 2853.96 752.485C2868.47 819.285 2890.62 883.595 2915.62 947.045C2921.99 963.175 2927.76 979.615 2933.76 995.875C2934.37 997.545 2935.49 999.255 2935.42 1000.88C2935.21 1005.54 2936.02 1011.26 2933.64 1014.56C2930.37 1019.09 2924.36 1016.76 2920.15 1014.37C2911.66 1009.53 2902.96 1004.76 2895.42 998.635C2870.9 978.705 2846.57 958.515 2822.7 937.805C2776.96 898.125 2731.44 858.202 2686.12 818.035C2652.46 788.215 2619.06 758.105 2585.92 727.705C2525.69 672.185 2465.24 616.865 2405.98 560.315C2357.05 513.615 2308.2 466.665 2265.64 413.815C2234.89 375.615 2206.08 336.055 2182.43 292.935C2162.82 257.019 2146.68 219.315 2134.22 180.335C2127.56 159.645 2122.29 138.455 2117.41 117.255C2115.04 106.965 2114.98 96.0951 2113.83 85.1451Z" fill="white"/>
<path d="M2437.51 1685.71L2421.12 1681.65C2423.41 1677.46 2425.43 1673.74 2428.12 1668.86L2412.59 1663.25C2414.25 1661.03 2415 1658.87 2416.22 1658.56C2434.31 1653.98 2449.67 1640.56 2470.46 1643.98C2482.04 1645.86 2485.21 1641.78 2488.15 1630.4C2491.58 1617.13 2491.87 1604.2 2485.44 1591.4C2481.69 1583.91 2479.84 1575.48 2476.84 1567.58C2475.4 1563.81 2473.28 1560.3 2470.38 1554.48C2466.11 1560.23 2463.18 1563.48 2461.1 1567.13C2455.74 1576.66 2447.36 1579.35 2437.3 1578.06C2419.45 1575.77 2402.91 1569.27 2386.59 1562.06C2381.96 1560.06 2377.05 1558.56 2370.59 1556.23C2370.59 1561.23 2370.2 1564.23 2370.65 1567.02C2375.26 1595.87 2361.38 1624.1 2335.14 1636.94C2293.77 1657.16 2250.98 1629.04 2244.65 1589.71C2242.79 1578.18 2242.93 1566.62 2247.65 1555.52C2248.65 1553.1 2250.23 1549.88 2249.43 1547.89C2243.02 1532.1 2257.43 1522.81 2260.76 1510.12C2260.96 1509.31 2261.6 1508.18 2262.26 1507.99C2275.34 1504.29 2284.03 1491.13 2298.96 1491.27C2306.05 1491.34 2313.2 1489.67 2320.23 1490.15C2326.72 1490.58 2333.82 1491.49 2339.38 1494.52C2358.51 1504.95 2378.38 1511.67 2400.38 1511.34C2404.8 1511.27 2409.24 1512.13 2413.66 1512.68C2427.24 1514.37 2427.38 1514.33 2433.52 1502.77C2440.39 1489.85 2447.52 1477.32 2449.25 1462.06C2450.25 1453.58 2455.36 1445.44 2459.25 1437.47C2462.78 1430.28 2463.25 1423.63 2461.17 1415.67C2454.67 1391.18 2457.45 1366.98 2467.26 1343.88C2474.48 1326.88 2488.01 1317.67 2506.72 1316.44C2525.43 1315.21 2538.94 1323.27 2545.26 1340.8C2547.95 1348.27 2548.99 1356.34 2550.63 1364.17C2551.36 1367.63 2550.86 1371.59 2552.38 1374.59C2556.04 1381.85 2557.02 1388.65 2553.26 1396.24C2550.67 1401.47 2552.97 1405.86 2558.03 1408.47C2579.17 1419.38 2594.47 1436.94 2608.5 1455.2C2622.29 1473.2 2634.43 1492.45 2646.26 1511.8C2656.14 1527.95 2659.55 1546.57 2663.59 1564.9C2666.35 1577.92 2670.02 1590.74 2674.59 1603.25C2679.82 1617.17 2683.83 1630.85 2683.27 1646.02C2682.65 1662.42 2684.2 1678.89 2683.94 1695.31C2683.62 1715.67 2675.94 1734.43 2670.11 1753.6C2666.11 1766.75 2662.28 1780.14 2660.31 1793.7C2656.09 1822.63 2649.19 1850.13 2632.38 1874.9C2623.99 1887.26 2619.06 1901.9 2612.29 1915.42C2601.88 1936.15 2599.29 1936.96 2578.87 1926.59C2574.92 1924.59 2570.61 1920.69 2567.07 1925.35C2564.7 1928.88 2563.76 1933.2 2564.46 1937.41C2567.29 1951.27 2562.53 1962.24 2552.4 1970.79C2543.75 1978.1 2540.19 1986.54 2541.23 1997.71C2542.77 2014.27 2534.9 2028.84 2530.42 2044.1C2528.68 2050.04 2526.22 2055.78 2524.77 2061.77C2521.87 2073.84 2513.54 2082.58 2501.34 2084.05C2492.5 2084.94 2483.61 2085.24 2474.73 2084.95C2467.37 2084.85 2462.93 2080.49 2462.91 2073.18C2462.91 2066.66 2464.13 2060.18 2464.84 2053.62C2464.96 2053.2 2465.15 2052.79 2465.39 2052.42C2475.15 2032.42 2484.47 2012.3 2487.45 1989.86C2487.9 1985.85 2489.14 1981.97 2491.1 1978.45C2493.06 1974.93 2495.71 1971.84 2498.88 1969.36C2503.49 1965.75 2505.67 1960.77 2504.1 1955.14C2500.53 1942.33 2504.71 1930.35 2507.87 1918.43C2511.98 1902.96 2517.01 1887.71 2522 1872.49C2524.43 1865.12 2525.32 1858.74 2517.6 1853.78C2511.5 1849.85 2511.53 1844.57 2515.27 1838.78C2517.94 1834.67 2520.37 1830.42 2522.85 1826.19C2526.85 1819.32 2526.72 1812.79 2520.94 1806.19C2509.89 1813.76 2498.84 1820.95 2488.22 1828.73C2480.95 1834.05 2474.05 1838.62 2464.32 1839.08C2452.5 1839.65 2439.94 1854.4 2440 1866.31C2440.05 1873.43 2438.18 1880.43 2434.57 1886.58C2430.76 1893.4 2431.85 1895.45 2438.72 1899.09C2440.72 1900.09 2442.72 1900.98 2444.72 1902.02C2464.13 1912.32 2466.9 1930.28 2450.82 1945.31C2444.63 1951.07 2437.71 1956.01 2430.24 1960C2415.95 1967.61 2405.33 1978.11 2398.37 1992.83C2391 2008.42 2378.07 2018.55 2362.74 2025.68C2354.35 2029.58 2345.37 2032.08 2337.9 2024.39C2330.67 2016.93 2327.34 2007.19 2331.07 1997.31C2334.64 1987.89 2339.38 1978.47 2345.55 1970.56C2355.38 1957.96 2366.67 1946.48 2377.63 1934.79C2394.63 1916.68 2394.63 1914.46 2383.14 1891.58C2378.46 1882.04 2374.74 1872.06 2372.05 1861.79C2368.82 1849.79 2371.55 1838.33 2376.88 1826.9C2383.44 1812.9 2387.75 1797.79 2393.97 1783.57C2406.63 1754.62 2419.97 1725.95 2432.97 1697.14C2434.34 1693.89 2435.54 1690.62 2437.51 1685.71Z" fill="white"/>
<path d="M2988.48 1374.81C2987.48 1416.65 2986.58 1458.49 2985.34 1500.33C2984.27 1536.33 2983.34 1572.44 2981.34 1608.43C2978.91 1652.43 2976.04 1696.43 2972.2 1740.28C2968.82 1778.86 2964.42 1817.37 2959.39 1855.77C2955.45 1885.85 2948.27 1915.3 2936.65 1943.46C2928.22 1963.91 2916.65 1982.27 2898.99 1996.12C2895.21 1999.22 2891.03 2001.79 2886.56 2003.79C2876.97 2007.79 2869.27 2005.98 2862.43 1998.18C2854.32 1989.11 2849.71 1977.44 2849.43 1965.28C2848.76 1939.45 2848.18 1913.59 2848.63 1887.77C2849.15 1858.4 2850.51 1829.02 2852.11 1799.69C2854.41 1757.47 2857.51 1715.29 2859.81 1673.07C2862.53 1623.29 2864.97 1573.48 2867.13 1523.66C2868.73 1485.42 2869.55 1447.13 2870.67 1408.88C2870.81 1405.31 2870.75 1401.74 2870.49 1398.19C2869.7 1388.26 2865.85 1379.98 2856.38 1375.58C2834.64 1365.49 2813.17 1354.65 2790.91 1345.83C2719.67 1317.57 2646.83 1293.9 2573.34 1272.29C2537.51 1261.76 2501.26 1252.77 2464.26 1246.91C2450.15 1244.68 2436.7 1239.36 2424.88 1231.33C2404.52 1217.52 2398.66 1198.2 2403.24 1175.33C2410.09 1141.16 2431.41 1122.61 2466.24 1117.43C2495.38 1113.1 2524.07 1116.14 2552.46 1121.71C2581.68 1127.45 2610.67 1134.52 2639.46 1142.09C2660.91 1147.73 2682.04 1154.69 2703.05 1161.82C2734.17 1172.38 2765.17 1183.32 2796.05 1194.64C2830.67 1207.25 2865.23 1220.04 2899.59 1233.34C2921.12 1241.67 2942.17 1251.27 2963.59 1259.95C2981.14 1267.08 2988.5 1280.02 2988.18 1298.65C2987.75 1324.02 2988.07 1349.41 2988.07 1374.8L2988.48 1374.81Z" fill="white"/>
<path d="M1645.9 100.915C1644.05 124.146 1639.3 147.054 1631.76 169.105C1603.7 251.315 1558.66 324.105 1507.14 393.335C1459.92 456.755 1406.07 514.335 1349.09 568.855C1289.88 625.488 1229.74 681.155 1168.68 735.855C1113.29 785.455 1056.34 833.335 999.684 881.555C968.844 907.815 937.568 933.558 905.854 958.785C892.324 969.485 877.024 977.945 862.514 987.405C861.419 988.168 860.262 988.837 859.054 989.405C845.874 995.075 836.344 988.335 838.524 974.175C840.331 962.279 842.954 950.521 846.374 938.985C855.814 907.405 866.244 876.125 875.584 844.525C882.894 819.795 889.314 794.815 895.834 769.865C903.873 738.253 919.498 709.078 941.354 684.865C971.874 650.985 1008.95 625.735 1048.02 603.105C1117.73 562.735 1188.39 523.955 1255.63 479.455C1304.28 447.125 1349.62 410.076 1390.99 368.845C1450.26 310.065 1498.09 242.675 1541.53 171.845C1555.53 149.055 1569.09 126.015 1583.66 103.605C1590.6 92.7408 1598.64 82.6235 1607.66 73.415C1619.38 61.675 1634.66 65.3151 1640.66 80.6251C1643.54 87.9751 1644.67 95.995 1645.9 100.915Z" fill="white"/>
<path d="M1305.7 1106.26C1339.82 1106.93 1371.27 1115.35 1398.7 1135.77C1407.99 1142.63 1416.14 1150.89 1422.88 1160.27C1435.51 1178.19 1430.72 1196.43 1410.77 1205.46C1394.18 1212.91 1377.03 1219.06 1359.47 1223.83C1330.77 1231.74 1301.66 1238.19 1272.7 1245.11C1253.7 1249.66 1234.54 1253.73 1215.56 1258.44C1188.78 1265.07 1161.97 1271.62 1135.42 1279.07C1086.09 1292.9 1036.94 1307.62 989.814 1327.77C955.884 1342.28 923.114 1359.47 889.814 1375.51C883.424 1378.59 881.204 1384.11 881.244 1390.89C881.324 1404.26 881.164 1417.62 881.444 1430.99C881.744 1445.22 882.804 1459.45 882.914 1473.68C883.374 1529.39 883.524 1585.1 883.914 1640.8C884.114 1667.98 884.474 1695.16 884.994 1722.34C886.114 1783.77 887.934 1845.22 888.264 1906.66C888.384 1930.17 885.334 1953.65 883.464 1977.2C883.014 1980.73 881.93 1984.15 880.264 1987.29C870.754 2006.91 859.854 2009.95 842.174 1997.76C826.174 1986.7 814.634 1972.13 811.684 1952.48C807.844 1926.94 804.294 1901.33 801.794 1875.64C797.594 1832.64 793.684 1789.57 790.794 1746.46C785.974 1674.46 781.934 1602.46 777.794 1530.46C775.094 1483.36 772.514 1436.24 770.464 1389.1C769.044 1356.18 768.864 1323.22 767.584 1290.29C767.204 1280.73 771.344 1275.74 779.424 1271.72C830.784 1246.16 882.634 1221.64 936.294 1201.33C978.654 1185.33 1021.23 1169.66 1064.35 1155.84C1119.88 1138.04 1176.35 1123.57 1234.07 1114.41C1257.76 1110.62 1281.82 1108.91 1305.7 1106.26Z" fill="white"/>
<path d="M3025.66 1866.45C3027.66 1834.45 3029.74 1802.51 3031.5 1770.53C3032.33 1755.53 3039.5 1744.32 3051.12 1735.72C3066.83 1724.06 3082.35 1712.03 3098.86 1701.59C3150 1669.26 3202.06 1638.35 3252.86 1605.45C3301.71 1573.81 3343.79 1534.09 3382.95 1491.1C3414.42 1456.55 3446.64 1422.66 3478.95 1388.92C3485.31 1382.28 3493.35 1376.92 3501.35 1372.29C3510.07 1367.22 3517.35 1370.23 3519.75 1380.1C3522.8 1392.15 3524.73 1404.45 3525.52 1416.86C3527.58 1459.22 3524.95 1501.52 3519.46 1543.47C3514.91 1578.77 3506.75 1613.52 3495.11 1647.17C3467.4 1726.9 3419.85 1792.97 3357.57 1849.01C3322.85 1880.26 3283.49 1904.24 3240.21 1921.71C3208.1 1934.77 3174.9 1944.98 3140.99 1952.23C3117.51 1957.17 3094.14 1962.59 3070.62 1967.31C3063.19 1968.7 3055.63 1969.34 3048.06 1969.22C3035.21 1969.14 3030.29 1965.06 3028.82 1952.02C3027.47 1940.11 3027.42 1928.02 3027.25 1916.02C3027.01 1899.53 3027.19 1883.02 3027.19 1866.56L3025.66 1866.45Z" fill="white"/>
<path d="M695.834 1969.86C676.574 1966.59 657.184 1963.86 638.084 1959.86C620.724 1956.2 603.594 1951.38 586.504 1946.57C550.504 1936.45 515.964 1922.57 482.134 1906.8C452.304 1892.8 423.384 1877.35 396.694 1857.89C383.621 1848.53 372.506 1836.71 363.974 1823.08C360.684 1817.79 357.464 1812.38 353.474 1807.64C337.474 1788.64 326.634 1766.57 316.654 1744.3C301.027 1709.44 286.381 1674.15 272.714 1638.43C263.204 1613.59 253.714 1588.32 248.484 1562.38C243.134 1535.94 242.154 1508.49 240.764 1481.38C239.274 1452.53 238.694 1423.57 241.434 1394.74C242.056 1388.6 243.802 1382.61 246.584 1377.09C250.694 1368.99 256.474 1367.1 264.274 1371.77C273.374 1377.22 282.624 1383.12 290.014 1390.61C312.834 1413.72 335.524 1437.04 356.944 1461.43C406.004 1517.3 453.634 1574.42 503.074 1629.93C543.074 1674.81 584.594 1718.27 625.864 1761.93C638.994 1775.82 653.474 1788.44 667.364 1801.62C669.304 1803.46 671.144 1805.63 673.474 1806.79C698.154 1818.79 708.714 1842.66 720.474 1864.79C729.174 1881.13 734.974 1899.08 741.394 1916.55C745.454 1927.62 742.564 1938.82 738.234 1949.12C732.524 1962.72 719.594 1966.02 706.654 1968.4C703.214 1969.03 699.554 1968.48 695.984 1968.48L695.834 1969.86Z" fill="white"/>
<path d="M305.844 2165.92C358.844 2165.92 411.904 2166.15 464.924 2165.73C475.694 2165.64 483.154 2168.89 489.984 2177.4C527.877 2224.66 566.067 2271.66 604.554 2318.4C609.757 2324.52 612.513 2332.36 612.294 2340.4C612.114 2396.56 612.294 2452.73 612.194 2508.89C612.194 2524.11 610.304 2525.82 595.344 2525.82H398.834C396.604 2525.82 394.374 2525.92 392.144 2525.82C381.834 2525.29 379.534 2523.31 379.144 2513.11C378.774 2502.43 379.054 2491.72 379.044 2481.02C379.044 2465.87 379.264 2450.71 378.954 2435.56C378.574 2417.25 361.954 2401.41 343.534 2401.39C318.574 2401.39 293.617 2401.39 268.664 2401.39C249.794 2401.39 234.834 2415.67 234.604 2434.51C234.304 2458.57 234.304 2482.64 234.604 2506.72C234.794 2522.87 250.224 2537.61 266.354 2537.72C267.244 2537.72 268.134 2537.72 269.034 2537.72C334.934 2538.44 400.834 2539.34 466.744 2539.72C477.204 2539.78 484.644 2543.65 490.904 2551.31C503.304 2566.49 515.814 2581.59 528.184 2596.79C553.484 2627.89 578.604 2659.14 604.084 2690.08C609.608 2696.52 612.544 2704.78 612.324 2713.26C612.124 2797.5 612.124 2881.75 612.324 2965.99C612.324 2975.92 609.324 2983.86 603.024 2991.54C564.284 3038.68 525.777 3086.02 487.504 3133.54C481.644 3140.84 475.364 3144.01 465.994 3143.99C359.934 3143.75 253.877 3143.75 147.824 3143.99C138.464 3143.99 132.034 3140.99 126.164 3133.72C86.6107 3084.9 46.8573 3036.26 6.90399 2987.8C2.29858 2982.35 -0.12029 2975.37 0.114196 2968.24C0.274196 2911.64 0.114059 2855.03 0.224059 2798.42C0.224059 2784.31 1.22411 2783.29 15.5241 2783.29C82.8108 2783.29 150.098 2783.37 217.384 2783.52C232.234 2783.52 233.384 2784.78 233.454 2799.59C233.564 2823.21 234.334 2846.89 233.174 2870.45C232.424 2885.77 242.534 2893.87 251.064 2903.08C253.444 2905.65 259.374 2905.57 263.684 2905.61C292.204 2905.81 320.724 2905.83 349.244 2905.67C363.244 2905.6 378.924 2891.41 379.304 2877.24C379.971 2853.19 379.971 2829.12 379.304 2805.03C378.904 2789.44 361.154 2773.51 345.564 2773.49C280.504 2773.39 215.444 2773.05 150.384 2773.49C137.574 2773.58 128.874 2769.68 120.804 2759.62C83.6841 2713.46 45.974 2667.76 8.21405 2622.12C2.69651 2615.76 -0.229725 2607.55 0.0140983 2599.12C0.274098 2513.55 0.274098 2427.98 0.0140983 2342.4C0.0140983 2332.51 2.54401 2324.51 8.92401 2316.78C46.924 2270.78 84.7841 2224.59 122.054 2177.96C129.244 2168.96 136.734 2165.56 148.054 2165.66C200.674 2166.19 253.264 2165.91 305.844 2165.92ZM306.844 2195.72C256.494 2195.72 206.144 2195.8 155.844 2195.64C148.284 2195.64 142.334 2197.14 137.204 2203.52C103.204 2245.88 68.944 2288.06 34.424 2330.05C27.154 2338.85 24.0642 2347.77 24.1242 2359.17C24.5042 2433.6 24.5042 2508.03 24.1242 2582.47C24.1242 2592.47 26.7041 2600.47 32.9841 2608.16C67.1441 2649.84 101.114 2691.67 134.894 2733.67C142.304 2742.93 150.564 2746.39 162.384 2746.28C221.194 2745.77 280.014 2746.04 338.834 2746.04C373.764 2746.04 373.634 2746.16 395.674 2772.9C400.946 2778.99 403.731 2786.84 403.474 2794.9C403.204 2819.41 403.534 2843.9 403.334 2868.44C403.024 2905.89 406.504 2894.05 384.114 2920.69C382.878 2921.95 381.716 2923.29 380.634 2924.69C375.484 2932.47 368.454 2935.19 359.054 2935.07C326.984 2934.64 294.874 2934.21 262.824 2935.25C247.664 2935.75 235.824 2932.55 227.574 2919.25C225.494 2915.91 222.314 2913.25 219.364 2910.5C212.254 2904 209.864 2896.02 210.064 2886.5C210.454 2866.9 210.334 2847.29 210.114 2827.68C209.964 2814.27 207.884 2812.44 194.304 2812.43C143.064 2812.39 91.8242 2812.39 40.5842 2812.43C26.1442 2812.43 24.3341 2814.06 24.3041 2828.49C24.2041 2870.38 24.364 2912.28 24.164 2954.18C24.164 2961.7 26.0542 2968 30.8542 2973.83C66.2542 3016.83 101.684 3059.77 136.734 3103.04C143.304 3111.15 150.734 3114.18 160.954 3113.93C183.224 3113.37 205.514 3113.74 227.794 3113.74C302.654 3113.74 377.511 3113.76 452.364 3113.81C461.204 3113.81 468.664 3112.74 474.814 3105.1C510.007 3061.4 545.431 3017.88 581.084 2974.54C586.024 2968.54 587.444 2962.15 587.434 2954.8C587.367 2878.14 587.394 2801.47 587.514 2724.8C587.514 2715.69 584.304 2708.66 578.664 2701.8C545.144 2661.32 511.664 2620.81 478.664 2579.92C471.324 2570.82 463.584 2566.8 451.594 2566.92C387.434 2567.49 323.274 2567.19 259.104 2567.19C255.544 2567.19 251.774 2567.88 248.464 2566.95C244.004 2565.69 239.014 2564.08 235.814 2561C229.104 2554.54 223.544 2546.9 217.244 2540C211.784 2534 209.954 2527.21 210.044 2519.21C210.344 2493.36 210.194 2467.51 210.194 2441.66C210.194 2408.29 210.404 2408.45 231.564 2383.09C237.294 2376.23 243.564 2373.65 252.284 2373.76C281.284 2374.13 310.214 2373.91 339.174 2373.91C374.174 2373.91 373.994 2374.04 395.924 2400.75C401.128 2406.86 403.828 2414.72 403.484 2422.75C403.164 2442.36 403.294 2461.96 403.404 2481.57C403.494 2496.51 405.404 2498.46 420.494 2498.49C470.847 2498.59 521.197 2498.59 571.544 2498.49C585.544 2498.49 587.304 2496.84 587.344 2483.31C587.474 2439.19 587.344 2395.07 587.414 2350.95C587.605 2344.23 585.312 2337.68 580.974 2332.55C546.147 2290.27 511.481 2247.87 476.974 2205.33C471.034 2197.97 464.524 2195.43 455.284 2195.5C405.764 2195.91 356.324 2195.72 306.864 2195.72H306.844Z" fill="white"/>
<path d="M1309.41 1425.09C1314.87 1429.15 1319.59 1427.09 1324.05 1423.58C1334.89 1415.02 1345.63 1406.35 1356.49 1397.82C1364.01 1391.91 1368.04 1384.56 1367.33 1374.72C1366.94 1369.4 1367.33 1364.02 1367.24 1358.72C1367.07 1349.85 1371.78 1344.63 1379.69 1341.79C1384.11 1340.17 1388.91 1339.88 1393.49 1340.97C1398.07 1342.06 1402.23 1344.47 1405.45 1347.91C1411.25 1354.29 1410.27 1360.81 1406.45 1367.57C1405.05 1370.34 1403.48 1373.02 1401.76 1375.61C1391.11 1390.06 1383.7 1406.19 1376.9 1422.61C1370.37 1438.44 1361.62 1452.61 1348.29 1463.88C1333.65 1476.2 1326.95 1491.98 1329.21 1511.29C1329.88 1517.04 1330.04 1522.83 1330.51 1528.6C1331.92 1545.72 1328.41 1562.13 1324.51 1578.7C1321.91 1590.43 1320.52 1602.39 1320.35 1614.41C1319.74 1638.47 1320.46 1662.54 1320.08 1686.61C1319.86 1700.49 1324.13 1711.69 1335.08 1720.61C1342.32 1726.48 1348.73 1733.38 1355.48 1739.86C1367.13 1751.03 1376.82 1763.24 1382.86 1778.77C1386.45 1788 1394.15 1795.66 1400.22 1803.88C1403.65 1808.51 1407.62 1812.75 1411.17 1817.3C1413.19 1819.72 1414.5 1822.65 1414.93 1825.77C1415.37 1828.88 1414.92 1832.06 1413.64 1834.93C1403.47 1860.27 1403.99 1887.29 1401.64 1913.8C1400.55 1925.76 1400.55 1937.78 1401.64 1949.73C1403.57 1970.16 1411.46 1979.97 1435.64 1987.14C1444.15 1989.66 1453.01 1991 1461.64 1993.14C1465.54 1994.02 1469.34 1995.31 1472.97 1996.97C1485.17 2002.81 1486.62 2011.8 1475.37 2018.72C1465.68 2024.72 1454.71 2028.96 1443.81 2032.38C1436.31 2034.72 1427.93 2034.1 1419.99 2035.18C1407.66 2036.86 1395.28 2038.37 1383.1 2040.86C1366.23 2044.3 1359.55 2040.12 1358.53 2022.67C1357.69 2008.45 1358.67 1994.13 1358.01 1979.9C1357.54 1969.73 1355.75 1959.6 1354.39 1949.49C1354.13 1947.28 1353.48 1945.12 1352.48 1943.11C1343.48 1925.68 1341.43 1906.62 1339.62 1887.56C1338.48 1875.96 1340.31 1864.26 1344.94 1853.56C1349.43 1843.03 1345.69 1836.51 1334.33 1834.39C1329.95 1833.6 1325.47 1833.48 1321.04 1834.04C1309.45 1835.44 1300.04 1831.49 1292.19 1823.28C1286.03 1816.86 1279.87 1810.41 1273.73 1803.95C1264.82 1794.59 1256.26 1784.87 1246.94 1775.95C1236.43 1765.87 1230.17 1765.84 1218.72 1774.15C1192.07 1793.48 1165.34 1812.71 1138.8 1832.15C1132.35 1836.88 1126.65 1842.61 1120.33 1847.53C1115.1 1851.61 1109.85 1855.95 1103.94 1858.81C1089.99 1865.55 1076.27 1864.81 1063.87 1854.73C1044.61 1838.99 1021.8 1827.74 1005.48 1808.27C1000.48 1802.27 993.894 1801.59 986.044 1803.03C972.491 1805.6 958.774 1807.21 944.994 1807.86C928.174 1808.53 921.904 1799.5 928.744 1784.08C932.404 1775.81 937.624 1766.92 944.654 1761.74C958.544 1751.5 974.164 1743.61 989.114 1734.85C991.41 1733.48 993.873 1732.41 996.444 1731.67C1011.06 1727.67 1023.29 1735.91 1025.18 1750.94C1027.33 1768.08 1028.95 1769.72 1046.04 1773.19C1056.04 1775.19 1065.91 1777.56 1074.5 1783.97C1084.9 1791.72 1086.99 1791.26 1094.05 1779.49C1109.85 1753.15 1125.24 1726.58 1140.75 1700.07C1151.98 1680.87 1164.42 1662.24 1173.94 1642.22C1183.38 1622.36 1193.01 1602.02 1193.57 1579.22C1193.69 1574.05 1195.17 1567.66 1189.37 1564.76C1183.32 1561.76 1177.93 1565.53 1173.82 1569.62C1163.1 1580.31 1152.82 1591.4 1142.36 1602.39C1138.69 1606.27 1135.58 1610.72 1131.6 1614.23C1125.95 1619.23 1119.36 1622.92 1123.89 1632.68C1125.78 1636.75 1121.48 1640.01 1117.11 1640.77C1106.55 1642.61 1096.41 1641.02 1088.03 1634.17C1075.75 1624.17 1079.78 1601.63 1095.14 1597.17C1104.25 1594.5 1109.3 1589 1113.97 1581.66C1133.1 1551.66 1151.64 1521.44 1165.59 1488.38C1177.36 1460.49 1199.32 1441.89 1228.73 1432.86C1233.39 1431.43 1237.89 1429.46 1242.44 1427.68C1249.83 1424.78 1252.51 1421.04 1250.87 1413.41C1249.51 1407.81 1247.44 1402.4 1244.71 1397.33C1233.92 1375.99 1236.53 1354.6 1246.35 1334.33C1254.35 1317.82 1274.99 1311.02 1293.81 1315.95C1314.49 1321.37 1325.03 1334.54 1325.87 1354.83C1326.68 1374.26 1319.34 1391.43 1311.97 1408.61C1309.76 1414.03 1307.04 1419.1 1309.41 1425.09Z" fill="white"/>
<path d="M3383.93 2746.43C3383.72 2749.2 3383.41 2751.35 3383.42 2753.5C3383.54 2796.74 3383.67 2839.99 3383.81 2883.24C3383.81 2885.47 3383.88 2887.7 3383.81 2889.93C3383.71 2896.61 3387.21 2899.72 3393.67 2899.77C3401.13 2899.82 3408.59 2899.77 3417.06 2899.77C3417.69 2905.29 3418.49 2909.12 3418.5 2912.94C3418.58 2982.94 3418.58 3052.94 3418.5 3122.94C3418.5 3125.16 3418.45 3127.39 3418.33 3129.61C3418.08 3134.85 3415.66 3137.95 3410.08 3137.93C3406.96 3137.93 3403.84 3138 3400.72 3138H3189.52C3187.73 3138 3185.95 3138.08 3184.17 3138C3174.17 3137.55 3172.43 3136.21 3172.17 3126.28C3171.82 3113.36 3172.03 3100.43 3172.03 3087.5C3172.03 3031.78 3172.03 2976.05 3172.03 2920.32C3172.03 2916.75 3172.09 2913.18 3172.12 2909.62C3172.19 2902.97 3175.75 2899.97 3182.2 2899.96C3187.1 2899.96 3192.02 2900.07 3196.91 2899.8C3205.67 2899.33 3207.04 2898.08 3207.78 2889.74C3208.13 2885.74 3207.97 2881.74 3207.97 2877.74V2414.95C3207.86 2395.48 3207.36 2394.95 3187.56 2394.7C3173.27 2394.49 3172.07 2393.49 3172.06 2379.62C3172 2311.86 3172 2244.09 3172.06 2176.33C3172.06 2161.24 3173.11 2160.19 3187.86 2160.17C3244.02 2160.09 3300.18 2160.09 3356.34 2160.17C3369.88 2160.17 3370.34 2160.57 3374.91 2172.73C3396.99 2231.53 3419.05 2290.34 3441.09 2349.17C3459.3 2397.45 3477.82 2445.6 3496.09 2493.86C3502.54 2510.91 3508.55 2528.13 3514.84 2545.24C3516.91 2550.88 3518.52 2556.95 3526.23 2561.47C3527.23 2556.59 3528.47 2553.41 3528.48 2550.22C3528.62 2503.41 3528.64 2456.6 3528.53 2409.79C3528.53 2397.26 3525.97 2395.11 3513.53 2394.71C3493.28 2394.07 3493.28 2394.07 3493.28 2373.76C3493.28 2309.09 3493.28 2244.44 3493.28 2179.82C3493.28 2176.7 3493.14 2173.58 3493.28 2170.47C3493.77 2161.92 3494.83 2160.89 3503.74 2160.23C3506.4 2160.03 3509.08 2160.14 3511.74 2160.14H3721.76C3724.88 2160.14 3728 2160.24 3731.12 2160.24C3737.25 2160.24 3740 2163.43 3739.95 2169.39C3739.95 2172.06 3739.95 2174.74 3739.95 2177.39C3739.95 2243.81 3739.95 2310.24 3739.95 2376.67C3739.95 2379.35 3739.84 2382.02 3739.89 2384.67C3740.01 2391.25 3736.94 2394.6 3730.24 2394.58C3724.89 2394.58 3719.55 2394.68 3714.24 2394.8C3707.76 2394.94 3704.41 2398.27 3704.3 2404.8C3704.3 2407.92 3704.21 2411.05 3704.21 2414.17V2879.61C3704.21 2900.37 3703.21 2900.01 3724.91 2899.9C3727.58 2899.9 3730.67 2899.22 3732.81 2900.32C3735.53 2901.73 3738.47 2904.26 3739.51 2906.99C3740.7 2910.13 3739.98 2913.98 3739.98 2917.57C3739.98 2984.45 3739.98 3051.32 3739.98 3118.2C3739.98 3120.87 3740.06 3123.55 3739.9 3126.2C3739.3 3136.45 3738.24 3137.73 3728.03 3137.89C3712.44 3138.12 3696.83 3137.97 3681.23 3137.97C3638.01 3137.97 3594.77 3137.97 3551.53 3137.97C3538.45 3137.97 3537.37 3137.3 3532.93 3125.42C3511.6 3068.34 3490.31 3011.25 3469.05 2954.16C3446.56 2894.08 3423.99 2834.04 3401.34 2774.04C3398.68 2766.95 3396.34 2759.75 3393.88 2752.58C3392.5 2748.61 3390.76 2745.13 3383.93 2746.43ZM3546.76 2677.55L3544.91 2678.2C3542.35 2673.27 3539.3 2668.53 3537.33 2663.38C3527.15 2636.82 3517.33 2610.14 3507.24 2583.53C3481.67 2515.75 3455.93 2448.03 3430.5 2380.2C3408.14 2320.56 3386.12 2260.78 3363.91 2201.08C3360.21 2191.08 3359.18 2190.24 3348.27 2190.22C3299.69 2190.1 3251.12 2190.1 3202.55 2190.22C3190.55 2190.22 3189.41 2191.47 3189.38 2203.28C3189.26 2253.2 3189.26 2303.11 3189.38 2353.03C3189.38 2365.58 3191.68 2368.09 3204.3 2367.79C3224.67 2367.3 3223.93 2369.13 3223.82 2388.1V2908.25C3223.82 2911.37 3223.95 2914.5 3223.82 2917.61C3223.23 2927.69 3222.16 2928.67 3211.72 2929.08C3209.94 2929.16 3208.15 2929.08 3206.37 2929.08C3190.45 2929.32 3189.37 2930.23 3189.37 2945.56C3189.33 2993.7 3189.33 3041.84 3189.37 3089.98C3189.37 3106.77 3190.52 3107.8 3208 3107.81C3266.37 3107.81 3324.74 3107.81 3383.12 3107.81C3385.35 3107.81 3387.58 3107.92 3389.8 3107.81C3398.49 3107.19 3400.51 3105.26 3401.26 3096.45C3401.56 3092.91 3401.4 3089.32 3401.4 3085.75C3401.4 3040.73 3401.4 2995.73 3401.4 2950.75C3401.4 2927.75 3402.81 2929.19 3379.47 2929.11C3365.6 2929.11 3364.8 2928.38 3364.78 2914.98C3364.7 2824.98 3364.7 2734.94 3364.78 2644.88C3364.78 2640.32 3365.71 2635.76 3366.21 2631.2L3369.21 2630.93C3371.33 2635.69 3373.71 2640.36 3375.53 2645.24C3383.16 2665.69 3390.53 2686.25 3398.17 2706.71C3420.22 2765.93 3442.31 2825.13 3464.45 2884.33C3478.45 2921.78 3492.79 2959.14 3506.91 2996.56C3518.99 3028.56 3531.15 3060.51 3542.96 3092.56C3548.08 3106.48 3549.23 3107.8 3563.88 3107.82C3610.67 3107.86 3657.46 3107.86 3704.25 3107.82C3706.92 3107.82 3709.59 3107.74 3712.25 3107.68C3718.3 3107.54 3721.07 3104.19 3721.25 3098.39C3721.35 3095.72 3721.41 3093.04 3721.41 3090.39C3721.41 3041.81 3721.41 2993.22 3721.41 2944.64C3721.41 2940.28 3721.02 2935.91 3720.83 2931.99C3718.6 2930.88 3717.47 2929.9 3716.25 2929.77C3712.72 2929.37 3709.16 2929.2 3705.61 2929.14C3686.87 2928.84 3686.85 2928.86 3686.85 2910.79C3686.85 2736.97 3686.85 2563.14 3686.85 2389.31C3686.85 2385.74 3686.73 2382.16 3686.96 2378.61C3687.52 2370.06 3688.85 2368.72 3697.27 2367.99C3699.93 2367.77 3702.62 2367.91 3705.27 2367.88C3720.27 2367.62 3721.36 2366.68 3721.38 2351.99C3721.46 2302.52 3721.46 2253.04 3721.38 2203.56C3721.38 2199.71 3720.68 2195.86 3720.26 2191.56C3716.32 2191.02 3713.32 2190.26 3710.32 2190.26C3647.5 2190.18 3584.67 2190.18 3521.83 2190.26C3518.06 2190.26 3514.28 2191.32 3509.59 2192.03V2205.21C3509.59 2253.79 3509.59 2302.37 3509.59 2350.96C3509.59 2365.89 3511.36 2367.56 3526.59 2367.9C3546.59 2368.35 3546.74 2368.34 3546.75 2387.8C3546.8 2476.94 3546.8 2566.09 3546.75 2655.24L3546.76 2677.55Z" fill="white"/>
<path d="M2632.11 2652.54C2632.11 2707.36 2632.11 2762.19 2632.11 2817.01C2632.11 2820.58 2631.93 2824.17 2632.25 2827.71C2632.45 2829.84 2632.81 2832.61 2634.25 2833.85C2640.25 2839.18 2647.68 2837.45 2654.68 2836.85C2660.62 2836.36 2664.04 2832.85 2665.56 2826.85C2670.45 2807.41 2675.67 2788.06 2680.83 2768.68C2700.57 2694.63 2720.33 2620.58 2740.09 2546.53C2745.58 2525.89 2750.94 2505.22 2756.38 2484.53C2758.38 2476.85 2756.93 2474.24 2749.15 2471.92C2738.06 2468.61 2737.96 2468.6 2737.95 2457.86C2737.9 2409.74 2737.9 2361.6 2737.95 2313.46C2737.95 2303.03 2740.02 2300.94 2750.19 2300.34C2752.41 2300.21 2754.65 2300.34 2756.88 2300.34C2846 2300.34 2935.13 2300.34 3024.25 2300.34C3044.1 2300.34 3044.08 2300.41 3044.07 2320.28C3044.07 2363.51 3044.07 2406.74 3044.07 2449.98C3044.07 2453.1 3044.18 2456.22 3044.07 2459.33C3043.62 2469.63 3042.87 2470.4 3032.63 2471.77C3021.1 2473.3 3019.48 2474.99 3022.28 2486.34C3028.14 2510.08 3034.46 2533.72 3040.82 2557.34C3047.41 2581.81 3054.3 2606.22 3061.01 2630.65C3068.32 2657.23 3075.71 2683.79 3082.81 2710.42C3090.96 2740.95 3098.81 2771.53 3106.81 2802.1C3108.95 2810.29 3111.35 2818.42 3113.11 2826.69C3114.69 2834.11 3119.31 2837.1 3126.34 2837.29C3130.8 2837.42 3135.26 2837.47 3139.71 2837.29C3146.35 2837.02 3149.71 2840.18 3150 2846.7C3150.12 2849.37 3150.2 2852.04 3150.2 2854.7C3150.2 2901.04 3150.2 2947.39 3150.2 2993.75C3150.2 3008.16 3149.2 3009.28 3135.25 3009.3C3070.65 3009.38 3006.03 3009.38 2941.41 3009.3C2927.22 3009.3 2925.85 3007.93 2925.84 2994.2C2925.77 2947.4 2925.84 2900.59 2925.77 2853.79C2925.77 2846.26 2926.41 2839.72 2934.47 2835.99C2936.62 2834.99 2939.15 2830.78 2938.58 2828.99C2937.69 2826.1 2934.71 2823.2 2931.88 2821.74C2929.33 2820.44 2925.79 2820.9 2922.69 2820.89C2899.96 2820.83 2877.23 2820.83 2854.51 2820.89C2852.73 2820.89 2850.94 2820.81 2849.17 2820.97C2844.55 2821.38 2840.23 2822.42 2838.85 2827.74C2837.58 2832.65 2840.41 2835.15 2844.43 2836.97C2849.85 2839.41 2850.33 2844.29 2850.34 2849.35C2850.34 2862.29 2850.34 2875.22 2850.34 2888.14C2850.34 2922.46 2850.34 2956.79 2850.34 2991.14C2850.34 3009.25 2850.27 3009.42 2832.88 3009.44C2770.49 3009.49 2708.1 3009.49 2645.72 3009.44C2630.58 3009.44 2629.57 3008.44 2629.53 2993.71C2629.44 2968.3 2629.53 2942.9 2629.53 2917.49C2629.53 2914.37 2629.91 2911.17 2629.35 2908.16C2628.91 2905.78 2627.79 2902.51 2626.03 2901.7C2624.27 2900.89 2620.95 2902.15 2619.09 2903.54C2616.29 2905.64 2614.09 2908.54 2611.76 2911.27C2591.32 2934.82 2570.76 2958.27 2550.6 2982.07C2544.29 2989.54 2537.2 2992.54 2527.45 2992.52C2425.41 2992.28 2323.36 2992.23 2221.31 2992.36C2206.39 2992.36 2205.09 2991.11 2205.06 2976.5C2205 2936.83 2205 2897.16 2205.06 2857.5C2205.06 2854.39 2205.25 2851.28 2205.62 2848.19C2206.19 2843.56 2208.92 2841.04 2213.62 2840.9C2217.62 2840.78 2221.62 2841 2225.62 2840.69C2234.09 2840.03 2236.34 2837.74 2237.15 2829.1C2237.43 2826 2237.25 2822.86 2237.25 2819.74C2237.25 2725.69 2237.25 2631.64 2237.25 2537.59C2237.25 2536.26 2237.25 2534.92 2237.25 2533.59C2237.02 2519.59 2235.76 2518.29 2222 2517.9C2219.77 2517.84 2217.54 2517.81 2215.32 2517.9C2208.62 2518.14 2205.54 2514.56 2205.13 2508.24C2204.96 2505.57 2204.96 2502.89 2204.96 2500.24C2204.96 2462.8 2204.96 2425.37 2204.96 2387.93C2204.87 2384.8 2204.95 2381.68 2205.19 2378.56C2206.09 2370.4 2207.76 2368.89 2216.19 2368.34C2218.85 2368.16 2221.53 2368.34 2224.19 2368.34C2324.9 2368.34 2425.61 2368.49 2526.31 2368.1C2538.05 2368.1 2546.25 2371.45 2553.85 2380.53C2576.16 2407.14 2599.1 2433.24 2622.29 2459.1C2629.29 2466.93 2632.29 2475.1 2632.2 2485.56C2631.92 2541.1 2632.12 2596.82 2632.11 2652.54ZM2782.27 2453.11C2779.87 2462.41 2778.02 2469.58 2776.17 2476.73C2767.83 2509.02 2759.62 2541.33 2751.1 2573.56C2740.63 2613.13 2729.84 2652.63 2719.3 2692.18C2705.78 2742.96 2692.43 2793.78 2678.88 2844.56C2675.26 2858.17 2675.06 2858.12 2660.6 2858.48C2646.14 2858.84 2645.23 2859.66 2645.2 2873.6C2645.13 2905.68 2645.13 2937.77 2645.2 2969.85C2645.2 2984.9 2647.35 2987.25 2661.94 2987.28C2714.06 2987.38 2766.19 2987.38 2818.31 2987.28C2832.95 2987.28 2834.64 2985.61 2834.69 2971.28C2834.81 2938.75 2834.69 2906.23 2834.69 2873.7C2834.69 2871.47 2834.57 2869.24 2834.46 2867.01C2834.22 2861.75 2831.62 2858.91 2826.2 2858.5C2822.44 2858.21 2818.72 2857.39 2813.11 2856.5C2818.37 2837.03 2823.2 2819.19 2828.02 2801.38C2831.17 2800.73 2833.3 2799.92 2835.44 2799.91C2869.74 2799.81 2904.04 2799.7 2938.35 2799.91C2947.13 2799.91 2949.93 2802.63 2952.83 2812.56C2955.57 2821.96 2957.92 2831.49 2960.37 2840.98C2961.65 2845.92 2962.78 2850.91 2963.95 2855.72C2961.28 2856.92 2960.07 2857.95 2958.89 2857.92C2940.89 2857.45 2941.81 2863.37 2941.89 2877.53C2941.96 2908.72 2941.89 2939.91 2941.89 2971.1C2941.89 2985.63 2943.25 2987.23 2957.89 2987.26C3010.91 2987.38 3063.91 2987.38 3116.89 2987.26C3131.34 2987.26 3132.84 2985.61 3132.89 2970.93C3132.98 2939.73 3132.89 2908.53 3132.89 2877.34C3132.89 2860.15 3132.76 2857.92 3114.51 2858.34C3103.68 2858.58 3103.6 2858.05 3100.9 2847.95C3089.39 2805 3078.02 2762.01 3066.4 2719.09C3055.95 2680.46 3045.14 2641.94 3034.69 2603.31C3025.06 2567.69 3015.59 2532.03 3006.27 2496.31C3002.69 2482.69 2999.46 2468.98 2995.65 2453.57C3002.79 2453.02 3008.35 2452.52 3013.92 2452.19C3024.53 2451.57 3026.21 2449.99 3026.81 2439.6C3026.94 2437.38 3026.87 2435.16 3026.87 2432.93C3026.87 2402.63 3026.87 2372.32 3026.87 2342.02C3026.87 2323.77 3025.87 2322.73 3008.34 2322.72C2929.94 2322.68 2851.54 2322.68 2773.12 2322.72C2770.45 2322.72 2767.78 2322.8 2765.12 2322.89C2759.29 2323.08 2755.6 2326.17 2755.58 2331.89C2755.42 2368.87 2755.42 2405.84 2755.58 2442.81C2755.58 2449.32 2759.8 2452.12 2766.18 2452.15C2770.53 2452.18 2774.87 2452.61 2782.27 2453.11ZM2253.46 2855.31C2250.68 2856.67 2249.53 2857.65 2248.31 2857.75C2243.44 2858.14 2238.55 2858.24 2233.66 2858.48C2222.92 2858.99 2221.18 2860.31 2221.09 2871.11C2220.85 2900.53 2220.85 2929.95 2221.09 2959.36C2221.17 2970.17 2223.55 2972.15 2234.99 2972.36C2245.68 2972.58 2256.38 2972.42 2267.07 2972.42C2350.84 2972.42 2434.61 2972.44 2518.38 2972.5C2527.71 2972.5 2535.56 2971.15 2542.17 2963.41C2563.87 2938.02 2586 2912.98 2608.17 2888.02C2613.68 2882.14 2616.66 2874.34 2616.5 2866.28C2616.39 2741.5 2616.39 2616.71 2616.5 2491.91C2616.71 2484.29 2613.93 2476.9 2608.75 2471.31C2587.09 2447.07 2565.43 2422.81 2544.3 2398.11C2537.3 2389.92 2529.54 2386.91 2518.84 2386.99C2457.84 2387.4 2396.75 2387.19 2335.7 2387.19C2302.7 2387.19 2269.7 2387.12 2236.78 2387.19C2221.78 2387.19 2221.07 2388.03 2220.98 2403.29C2220.86 2423.79 2220.98 2444.28 2220.98 2464.79C2220.98 2472.79 2220.69 2480.85 2221.11 2488.85C2221.56 2497.39 2224.11 2499.68 2232.6 2500.34C2236.6 2500.65 2240.6 2500.43 2244.6 2500.51C2249.86 2500.6 2252.97 2503.11 2253.27 2508.51C2253.42 2511.17 2253.47 2513.85 2253.47 2516.51C2253.47 2624.82 2253.47 2733.13 2253.47 2841.44C2253.45 2846.36 2253.46 2851.15 2253.46 2855.31Z" fill="white"/>
<path d="M1819.41 2717.86C1818.99 2720.8 1818.2 2723.74 1818.19 2726.68C1818.11 2748.06 1818.13 2769.46 1818.25 2790.86C1818.34 2803.73 1819.54 2804.86 1831.61 2805.4C1850.92 2806.24 1850.9 2806.24 1850.89 2825.97C1850.89 2858.51 1850.89 2891.05 1850.89 2923.59C1850.89 2938.93 1849.48 2940.33 1833.96 2940.34C1768.9 2940.41 1703.84 2940.41 1638.78 2940.34C1623.78 2940.34 1623.03 2939.49 1623 2924.34C1622.94 2890.02 1622.94 2855.68 1623 2821.34C1623 2806.52 1623.82 2805.87 1639 2805.39C1653.65 2804.93 1655.9 2802.71 1655.91 2787.98C1655.91 2704.18 1655.91 2620.38 1655.91 2536.58C1655.91 2521.85 1653.91 2520.02 1638.73 2519.75C1634.36 2519.67 1630 2519.75 1624.73 2519.75C1624.02 2515.25 1623.04 2511.89 1623.03 2508.52C1622.93 2472.41 1622.93 2436.31 1623.03 2400.21C1623.03 2387.56 1624.03 2386.55 1636.92 2386.52C1689.5 2386.39 1742.09 2386.6 1794.67 2386.32C1803.38 2386.32 1808.52 2389.76 1812.9 2396.98C1846.66 2452.53 1880.58 2507.99 1914.64 2563.35C1923.25 2577.4 1931.87 2591.45 1940.64 2605.42C1942.38 2608.2 1944.75 2610.6 1947.92 2614.52C1949.92 2610.68 1952.03 2608.59 1952.05 2606.52C1952.31 2581.52 1952.45 2556.6 1952.17 2531.65C1952.08 2523.18 1949.17 2520.79 1940.82 2519.89C1939.94 2519.79 1939.04 2519.82 1938.15 2519.78C1920.15 2518.93 1920.1 2518.93 1920.1 2501.43C1920.1 2468 1920.04 2434.57 1920.15 2401.14C1920.15 2387.25 1920.86 2386.54 1934.29 2386.53C1999.8 2386.45 2065.31 2386.45 2130.81 2386.53C2132.59 2386.53 2134.38 2386.53 2136.15 2386.63C2145.55 2387.37 2146.99 2388.43 2147.15 2397.88C2147.45 2422.39 2147.35 2446.88 2147.39 2471.42C2147.39 2483.42 2147.6 2495.49 2147.39 2507.52C2147.16 2517.72 2145.63 2520.03 2135.75 2519.52C2112.23 2518.32 2115.34 2524.47 2115.33 2541.97C2115.27 2623.1 2115.27 2704.22 2115.33 2785.34C2115.33 2788.02 2115.24 2790.7 2115.33 2793.34C2115.79 2803.85 2116.71 2804.79 2126.84 2805.34C2147.49 2806.52 2147.47 2806.52 2147.46 2827.4C2147.46 2859.05 2147.46 2890.69 2147.46 2922.34C2147.46 2938.78 2146.04 2940.34 2130.25 2940.34C2077.67 2940.42 2025.08 2940.28 1972.5 2940.51C1964.5 2940.51 1959.21 2938 1954.97 2931.04C1913.51 2862.98 1871.9 2795 1830.16 2727.12C1827.94 2723.51 1825.26 2720.19 1822.8 2716.73L1819.41 2717.86ZM1967.24 2676.86C1956.94 2671.28 1954.77 2663.09 1950.71 2656.47C1904.13 2580.57 1857.63 2504.62 1811.21 2428.64C1792.21 2397.64 1797.5 2403.48 1764.95 2403.23C1728.41 2402.95 1691.86 2403.05 1655.32 2403.14C1641.38 2403.14 1639.75 2404.83 1639.69 2418.27C1639.59 2441.45 1639.59 2464.63 1639.69 2487.81C1639.75 2502.63 1640.31 2503.07 1655.79 2503.68C1658.47 2503.67 1661.14 2503.82 1663.79 2504.13C1668.79 2504.94 1671.79 2507.81 1671.93 2513.13C1672.01 2515.8 1671.99 2518.47 1671.99 2521.13C1671.99 2614.3 1671.99 2707.47 1671.99 2800.63C1671.99 2815.97 1674.87 2822.17 1652.47 2821.5C1641.06 2821.16 1639.87 2822.94 1639.74 2835.01C1639.55 2852.39 1639.67 2869.78 1639.67 2887.17C1639.67 2895.17 1639.45 2903.23 1639.8 2911.24C1640.21 2920.63 1641.75 2922.06 1650.8 2922.63C1654.35 2922.85 1657.93 2922.72 1661.49 2922.72H1801.88C1809.01 2922.72 1816.15 2922.99 1823.27 2922.63C1832.06 2922.18 1834.44 2920.11 1834.54 2911.22C1834.84 2884.92 1834.84 2858.62 1834.54 2832.32C1834.46 2823.9 1832.46 2822.27 1824.29 2821.44C1821.64 2821.17 1818.95 2821.36 1816.29 2821.31C1802.88 2821.06 1801.6 2820.02 1801.57 2806.87C1801.44 2758.73 1801.44 2710.58 1801.57 2662.44C1801.57 2659.8 1802.8 2657.16 1803.89 2652.76C1807.29 2656.64 1809.65 2658.68 1811.21 2661.21C1841.93 2711.31 1872.59 2761.46 1903.21 2811.64C1923.39 2844.7 1943.54 2877.78 1963.66 2910.88C1968.04 2918.08 1973.04 2923.01 1982.66 2922.88C2027.22 2922.47 2071.79 2922.77 2116.36 2922.63C2129.45 2922.63 2131.44 2920.38 2131.54 2906.63C2131.68 2886.13 2131.54 2865.63 2131.54 2845.11C2131.54 2822.54 2131.54 2822.54 2109.66 2821.24C2099.92 2820.65 2098.34 2819.09 2097.76 2809.16C2097.61 2806.49 2097.76 2803.81 2097.76 2801.16V2525.66C2097.76 2504.98 2097.76 2504.98 2118.27 2503.6C2128.79 2502.9 2131.27 2500.92 2131.42 2490.98C2131.68 2465.56 2131.68 2440.16 2131.42 2414.76C2131.32 2405.93 2129.1 2403.92 2120.17 2403.35C2113.51 2402.92 2106.8 2403.17 2100.17 2403.17C2050.25 2403.17 2000.34 2403.17 1950.42 2403.17C1936.34 2403.17 1934.95 2404.66 1934.84 2418.4C1934.73 2433.11 1934.84 2447.82 1934.84 2462.53C1934.84 2472.34 1934.52 2482.16 1934.95 2491.95C1935.33 2500.24 1938.33 2502.89 1946.46 2503.57C1948.67 2503.76 1950.91 2503.57 1953.14 2503.66C1967.59 2504 1968.34 2504.66 1968.37 2518.84C1968.45 2566.52 1968.48 2614.22 1968.44 2661.93C1968.31 2666.27 1967.76 2670.54 1967.24 2676.89V2676.86Z" fill="white"/>
<path d="M829.634 2294.61C888.894 2294.61 948.164 2294.86 1007.43 2294.41C1019.04 2294.32 1027.43 2297.41 1035.28 2306.41C1063.59 2339.06 1092.48 2371.21 1121.57 2403.17C1127.75 2409.96 1130.11 2416.89 1130.07 2425.93C1129.79 2487.43 1129.77 2548.94 1130.01 2610.45C1130.01 2618.34 1128.79 2625.03 1123.2 2631.2C1092.98 2664.53 1062.95 2698.04 1033.11 2731.72C1027.03 2738.6 1020.65 2741.39 1011.18 2741.27C964.404 2740.69 917.614 2740.92 870.824 2740.99C855.874 2740.99 854.544 2742.46 854.514 2756.79C854.514 2776.85 854.424 2796.92 854.514 2816.97C854.584 2829.17 856.354 2830.96 868.214 2831.51C871.764 2831.68 875.334 2831.51 878.904 2831.51C889.554 2831.67 891.394 2833.04 891.444 2843.95C891.657 2892.53 891.684 2941.11 891.524 2989.7C891.524 3001.61 889.304 3003.61 877.234 3003.7C846.034 3003.85 814.844 3003.74 783.654 3003.74H655.314C652.194 3003.74 649.074 3003.83 645.964 3003.7C633.804 3003.19 632.094 3001.63 632.044 2989.44C631.914 2958.69 632.044 2927.93 632.044 2897.18C632.044 2879.35 631.894 2861.52 632.114 2843.69C632.254 2832.45 633.574 2831.4 644.434 2831.45C670.844 2831.57 670.844 2831.57 670.844 2805.66C670.844 2699.13 670.844 2592.6 670.844 2486.08C670.844 2483.85 670.944 2481.61 670.844 2479.39C670.394 2469.39 667.204 2466.25 656.844 2465.79C651.954 2465.57 647.044 2465.79 642.144 2465.55C635.764 2465.25 632.414 2461.73 632.194 2455.35C632.074 2451.78 632.044 2448.22 632.044 2444.65C632.044 2400.97 632.044 2357.3 632.044 2313.65C632.044 2295.22 632.514 2294.65 650.494 2294.65C710.214 2294.63 769.927 2294.61 829.634 2294.61ZM839.224 2851.52C838.224 2848.93 837.354 2847.71 837.344 2846.47C837.044 2806.81 836.794 2767.14 836.594 2727.47C836.594 2722.47 839.284 2720.13 843.964 2719.86C847.964 2719.63 851.964 2719.62 855.964 2719.61C903.644 2719.61 951.334 2719.36 999.024 2719.81C1009.68 2719.91 1017.55 2717.02 1024.69 2708.88C1051.11 2678.72 1077.99 2648.96 1104.89 2619.22C1110.28 2613.22 1112.89 2607.01 1112.82 2598.81C1112.56 2544.43 1112.56 2490.05 1112.82 2435.66C1112.94 2432.34 1112.4 2429.04 1111.23 2425.94C1110.06 2422.84 1108.29 2420 1106.01 2417.58C1078.51 2387.19 1051.09 2356.72 1023.75 2326.16C1017.96 2319.65 1011.52 2316.89 1002.75 2316.91C891.334 2317.11 779.911 2317.16 668.484 2317.06C652.484 2317.06 651.264 2318.43 651.244 2334.91C651.244 2363.91 651.534 2392.9 651.154 2421.83C650.764 2450.46 654.624 2446.15 675.344 2446.26C688.344 2446.33 688.924 2446.91 688.934 2459.92C688.987 2586.52 688.987 2713.12 688.934 2839.74C688.934 2843.54 688.134 2847.35 687.534 2852.69C679.864 2852.69 673.274 2852.6 666.694 2852.69C652.694 2852.91 651.404 2853.95 651.334 2868C651.174 2900.1 651.154 2932.19 651.274 2964.29C651.274 2978.92 653.574 2981.2 668.604 2981.22C731.444 2981.32 794.287 2981.32 857.134 2981.22C871.434 2981.22 872.614 2980.06 872.664 2966.15C872.784 2933.15 872.784 2900.15 872.664 2867.15C872.664 2862.85 871.814 2858.56 871.294 2853.69L839.224 2851.52Z" fill="white"/>
<path d="M1325.88 2374.14H1451.53C1455.09 2374.14 1458.68 2373.94 1462.21 2374.28C1470.13 2375.03 1471.95 2376.98 1472.68 2385.21C1472.95 2388.31 1472.82 2391.44 1472.83 2394.56C1472.88 2432 1472.93 2469.43 1472.97 2506.86C1472.97 2521.54 1472.97 2521.55 1459.03 2523.98C1451.22 2525.35 1449.16 2528.55 1451.54 2537.41C1455.22 2551.16 1459.33 2564.8 1463.34 2578.47C1486.18 2656.25 1509.03 2734.04 1531.87 2811.83C1534.26 2819.95 1536.64 2828.07 1538.87 2836.24C1540.74 2843.24 1544.87 2846.24 1552.29 2846.61C1574.47 2847.61 1574.39 2847.87 1574.4 2870.71C1574.4 2907.25 1574.46 2943.79 1574.57 2980.33C1574.57 2982.12 1574.69 2983.92 1574.57 2985.69C1573.95 2995.08 1571.66 2997.43 1562.51 2997.99C1560.29 2998.13 1558.06 2997.99 1555.83 2997.99H1379.39C1377.16 2997.99 1374.93 2998.04 1372.71 2997.99C1360.42 2997.56 1359.1 2996.37 1359.07 2983.77C1358.99 2942.32 1359.07 2900.88 1359.07 2859.44C1359.07 2853.49 1359.25 2848.55 1366.61 2845.76C1372.61 2843.49 1371.85 2834.94 1365.86 2832.22C1362.78 2830.82 1358.96 2830.58 1355.47 2830.56C1333.64 2830.42 1311.81 2830.47 1289.98 2830.56C1287.32 2830.56 1284.19 2830.17 1282.14 2831.4C1279.34 2833.06 1276.32 2835.79 1275.43 2838.69C1274.87 2840.54 1277.43 2844.83 1279.56 2845.74C1285.78 2848.37 1286.61 2853.08 1286.61 2858.74C1286.61 2901.08 1286.72 2943.42 1286.61 2985.74C1286.61 2996.11 1284.61 2997.98 1273.73 2998C1211.37 2998.12 1148.99 2998.12 1086.6 2998C1075.32 2998 1073.54 2995.92 1073.51 2984.47C1073.43 2943.03 1073.43 2901.58 1073.51 2860.12C1073.51 2847.99 1074.67 2847.03 1086.3 2846.57C1088.97 2846.47 1091.65 2846.45 1094.3 2846.57C1101.57 2846.94 1105.6 2843.95 1107.66 2836.57C1119 2795.91 1130.6 2755.29 1142.46 2714.71C1154.46 2673.71 1166.84 2632.91 1178.91 2591.97C1184.31 2573.63 1189.51 2555.22 1194.49 2536.75C1196.81 2528.19 1196.12 2526.17 1187.67 2524.36C1179.54 2522.63 1178.08 2517.96 1178.1 2510.99C1178.22 2469.99 1178.1 2428.99 1178.25 2387.99C1178.25 2375.49 1179.52 2374.28 1192.25 2374.24C1236.76 2374.07 1281.33 2374.14 1325.88 2374.14ZM1250.27 2862.61C1254.77 2847.12 1258.62 2833.08 1262.99 2819.19C1264.64 2813.95 1269.15 2812.01 1274.62 2812.02C1307.16 2812.1 1339.7 2812.13 1372.22 2812.09C1377.17 2812.09 1380.72 2813.52 1382.34 2818.76C1385.75 2829.76 1389.67 2840.69 1392.98 2851.76C1393.98 2854.96 1393.53 2858.58 1393.73 2861.76C1391.66 2862.76 1390.53 2863.61 1389.28 2863.82C1375.11 2866.22 1375.07 2866.21 1375.06 2880.21C1375.06 2902.06 1375.06 2923.9 1375.06 2945.74C1375.06 2952.87 1374.74 2960.01 1375.13 2967.12C1375.58 2975.3 1377.62 2977.22 1385.53 2978.21C1387.75 2978.42 1389.98 2978.5 1392.2 2978.46C1442.56 2978.46 1492.92 2978.46 1543.27 2978.46C1557.17 2978.46 1559.12 2976.28 1559.18 2961.8C1559.28 2936.39 1559.23 2910.98 1559.18 2885.58C1559.18 2865.52 1559.12 2865.32 1538.61 2864.36C1532.36 2864.07 1528.42 2862.15 1527.2 2855.72C1526.71 2853.11 1525.71 2850.58 1524.97 2848.01C1507.16 2786.87 1489.35 2725.72 1471.53 2664.58C1457.42 2616.34 1443.07 2568.19 1429.02 2519.94C1427.87 2516.01 1428.27 2511.63 1427.89 2506.64C1433.53 2506.37 1437.45 2506.16 1441.37 2505.99C1453.62 2505.47 1455.5 2503.88 1455.57 2491.99C1455.71 2463.91 1455.71 2435.83 1455.57 2407.75C1455.5 2394.2 1454.57 2393.14 1441.13 2393.12C1363.58 2393.04 1286.04 2393.04 1208.5 2393.12C1194.24 2393.12 1193.77 2393.74 1193.72 2408.6C1193.62 2435.79 1193.62 2462.98 1193.72 2490.18C1193.72 2503.83 1194.66 2504.63 1209 2506.08C1219.25 2507.08 1220.24 2508.57 1217.34 2518.76C1210.9 2541.43 1204.43 2564.1 1197.91 2586.76C1189.69 2615.43 1181.44 2644.07 1173.16 2672.67C1164.47 2702.54 1155.63 2732.36 1146.87 2762.21C1137.61 2793.79 1128.26 2825.34 1119.25 2856.98C1117.74 2862.27 1114.96 2864.38 1109.81 2864.25C1107.14 2864.18 1104.46 2864.25 1101.81 2864.32C1089.05 2864.68 1087.81 2865.56 1087.71 2878.04C1087.47 2906.58 1087.43 2935.11 1087.6 2963.64C1087.68 2975.57 1090.6 2978.06 1102.99 2978.55C1104.77 2978.62 1106.55 2978.55 1108.33 2978.55C1156.46 2978.55 1204.59 2978.55 1252.72 2978.55C1255.84 2978.55 1258.97 2978.55 1262.08 2978.36C1268.51 2977.97 1271.91 2974.36 1271.92 2968.03C1271.98 2936.83 1271.92 2905.65 1271.86 2874.45C1271.84 2874 1271.79 2873.55 1271.71 2873.11C1271.05 2868.11 1268.55 2864.99 1263.22 2864.46C1259.37 2864.03 1255.61 2863.34 1250.27 2862.61Z" fill="white"/>
<path d="M2632.9 3212.92C2668.5 3213.79 2703.11 3218.92 2734.34 3237.52C2765.95 3256.32 2770.46 3277.44 2758.08 3304.64C2743.14 3337.58 2721.77 3367.22 2695.23 3391.81C2691.96 3394.83 2688.34 3397.46 2684.45 3399.64C2672.07 3406.52 2662.38 3406.04 2653.29 3395.19C2644.85 3385.12 2637.19 3373.72 2632.03 3361.69C2619.11 3331.58 2613.1 3299.63 2611.27 3266.94C2610.53 3253.61 2609.78 3240.26 2609.58 3226.94C2609.39 3214.94 2611.18 3213.42 2623.58 3212.94C2626.66 3212.81 2629.76 3212.91 2632.9 3212.92Z" fill="white"/>
<path d="M3216 3407.47C3216 3403.2 3215.94 3401.86 3216 3400.52C3216.81 3382.64 3221.8 3378.7 3239.42 3381.09C3277.97 3386.3 3314.91 3397.28 3350.62 3412.45C3357.45 3415.36 3363.79 3419.84 3369.69 3424.45C3380.88 3433.17 3383.32 3444.95 3379.04 3458.02C3377.22 3463.99 3374.55 3469.66 3371.11 3474.88C3348.03 3508.04 3320.11 3536.6 3286.92 3559.66C3280.34 3564.1 3272.88 3567.06 3265.04 3568.34C3253.29 3570.24 3244.53 3565.44 3240.72 3554.12C3235.67 3538.99 3231.8 3523.49 3229.13 3507.76C3225.13 3484.1 3222.4 3460.22 3219.28 3436.41C3217.9 3425.81 3216.86 3415.18 3216 3407.47Z" fill="white"/>
<path d="M1071.89 3228.1C1086.76 3230.57 1099.22 3231.76 1111.18 3234.85C1125.53 3238.55 1134.8 3249.14 1140.07 3262.47C1147.07 3280.21 1148.19 3298.63 1144.3 3317.47C1138.67 3344.74 1127.5 3369.04 1106.76 3387.97C1100.92 3393.35 1093.93 3397.35 1086.32 3399.66C1075.67 3402.66 1064.6 3400.49 1056.55 3392.24C1046.67 3382.11 1036.8 3371.69 1028.7 3360.16C1013.59 3338.64 1000.6 3315.89 995.174 3289.56C989.914 3264.07 999.724 3244.96 1024.59 3237.65C1040.66 3232.96 1057.51 3230.92 1071.89 3228.1Z" fill="white"/>
<path d="M526.764 3459.5C527.764 3490.17 522.594 3519.76 510.284 3547.95C508.539 3552.04 506.339 3555.92 503.724 3559.53C495.794 3570.2 487.094 3571.79 476.234 3564.06C467.544 3557.89 458.724 3551.61 451.234 3544.06C433.344 3526.11 415.984 3507.61 398.884 3488.9C393.524 3483.04 389.334 3476.01 385.164 3469.18C373.254 3449.7 374.744 3436.74 393.374 3422.98C405.593 3414.12 418.972 3406.99 433.134 3401.78C450.134 3395.42 468.014 3391.34 485.744 3387.27C501.744 3383.61 510.484 3387.58 517.234 3402.39C521.764 3412.33 524.564 3423.31 526.474 3434.12C527.894 3442.36 526.764 3451.03 526.764 3459.5Z" fill="white"/>
<path d="M3028.65 3377.62C3030.36 3369.62 3031.65 3359.78 3034.65 3350.54C3038.99 3337.23 3047.74 3331.64 3061.53 3334.54C3091.19 3340.88 3119.85 3350.54 3145.64 3366.94C3160.02 3376.08 3161.75 3385.28 3152.26 3399.48C3132.68 3428.77 3106.99 3451.92 3077.61 3471.08C3074.59 3472.97 3071.28 3474.34 3067.8 3475.14C3056.74 3477.84 3049.18 3474.63 3045.2 3464.06C3041 3452.88 3037.2 3441.33 3035.14 3429.61C3032.14 3413.01 3030.86 3396.09 3028.65 3377.62Z" fill="white"/>
<path d="M729.434 3373.74C729.044 3399.74 725.184 3422.42 716.254 3444C714.108 3448.87 711.317 3453.44 707.954 3457.58C699.524 3468.34 689.954 3471.41 677.274 3465.91C668.707 3462.24 660.746 3457.3 653.664 3451.25C634.763 3434.95 618.76 3415.57 606.334 3393.93C599.074 3381.15 600.004 3374.34 613.044 3367.67C631.924 3358.02 651.654 3349.97 671.284 3341.84C679.014 3338.64 687.354 3336.84 695.534 3334.84C713.714 3330.45 723.234 3340.66 727.534 3356.64C729.204 3362.99 729.034 3369.85 729.434 3373.74Z" fill="white"/>
<path d="M1244.35 1939.12C1254.07 1938.77 1263.68 1941.3 1271.96 1946.39C1291.96 1958.52 1301.12 1982.06 1294.01 2003.94C1288.56 2020.73 1266.73 2033.78 1246.91 2031.94C1226.91 2030.07 1211.2 2020.44 1201.75 2002.94C1189.75 1980.73 1201.03 1938.08 1236.04 1939.14C1238.25 1939.19 1240.48 1939.12 1244.35 1939.12Z" fill="white"/>
<path d="M54.8542 2848.14C59.4242 2847.66 63.7241 2846.82 68.0241 2846.81C100.544 2846.69 133.071 2846.69 165.604 2846.81C179.954 2846.81 180.754 2847.72 180.904 2861.97C181.037 2873.97 181.037 2886 180.904 2898.06C180.639 2904.8 182.941 2911.38 187.344 2916.49C199.494 2930.72 211.604 2944.98 223.294 2959.58C228.844 2966.52 235.394 2969.01 244.144 2968.95C285.577 2968.67 327.014 2968.67 368.454 2968.95C377.184 2969.01 383.794 2966.58 389.354 2959.66C400.504 2945.76 412.014 2932.16 423.674 2918.66C428.495 2913.39 431.087 2906.45 430.904 2899.31C430.644 2860.09 430.744 2820.88 430.824 2781.65C430.824 2775.23 429.824 2769.48 425.494 2764.26C413.824 2750.26 402.294 2736.06 391.114 2721.62C384.564 2713.18 376.814 2709.74 365.894 2709.82C300.834 2710.26 235.774 2709.82 170.724 2710.29C159.494 2710.37 151.534 2707.42 144.334 2698.46C117.274 2664.79 89.6241 2631.58 61.9741 2598.38C56.0909 2591.66 52.9432 2582.98 53.154 2574.05C53.434 2504.52 53.4574 2435 53.2241 2365.48C53.2241 2357.56 54.9041 2350.84 60.0641 2344.54C87.9841 2310.41 115.874 2276.25 143.214 2241.66C150.544 2232.38 158.654 2228.47 170.524 2228.52C261.424 2228.88 352.324 2228.88 443.224 2228.52C454.514 2228.52 462.224 2232.16 469.314 2241.11C496.244 2274.89 523.784 2308.19 551.544 2341.3C558.844 2350 562.284 2358.93 562.004 2370.41C561.354 2396.69 561.894 2422.99 561.794 2449.28C561.794 2462.61 560.504 2463.96 547.304 2464.02C513.444 2464.16 479.581 2464.16 445.714 2464.02C431.934 2463.96 430.914 2462.77 430.814 2448.38C430.704 2435.01 430.634 2421.64 430.814 2408.27C431.076 2401.99 428.97 2395.85 424.914 2391.06C413.554 2377.34 402.214 2363.6 391.324 2349.51C384.794 2341.07 377.124 2337.44 366.184 2337.59C326.084 2338.15 285.981 2338.15 245.874 2337.59C234.964 2337.46 227.464 2340.95 221.034 2349.75C210.804 2363.75 199.794 2377.24 188.654 2390.55C183.354 2396.61 180.529 2404.44 180.744 2412.49C180.984 2451.25 180.984 2490.03 180.744 2528.81C180.567 2536.43 183.275 2543.83 188.324 2549.52C199.834 2563.11 211.324 2576.79 222.134 2590.91C228.134 2598.73 235.064 2601.76 244.924 2601.71C310.874 2601.38 376.824 2601.78 442.764 2601.3C454.124 2601.22 461.764 2604.63 468.924 2613.49C496.574 2647.82 524.774 2681.72 553.094 2715.49C558.982 2722.2 562.124 2730.88 561.894 2739.8C561.654 2806.66 561.654 2873.52 561.894 2940.36C561.894 2948.84 559.724 2955.72 554.244 2962.36C524.964 2997.7 495.924 3033.21 467.124 3068.91C460.894 3076.67 454.124 3079.49 444.324 3079.46C352.537 3079.16 260.747 3079.16 168.954 3079.46C158.704 3079.46 151.534 3076.65 145.004 3068.4C117.664 3033.81 89.7542 2999.66 61.8742 2965.49C56.9342 2959.49 53.144 2953.41 53.204 2945.19C53.394 2916.19 53.2042 2887.24 53.3442 2858.27C53.4142 2855.33 54.2342 2852.32 54.8542 2848.14Z" fill="white"/>
<path d="M3562.46 2792.61C3569.36 2789.73 3567.62 2785.21 3567.62 2781.52C3567.62 2638.44 3567.58 2495.37 3567.5 2352.29V2350.95C3567.29 2333.81 3566.08 2332.55 3549.41 2332.36C3531.53 2332.15 3531.49 2332.15 3531.46 2314.56C3531.46 2288.71 3531.35 2262.86 3531.46 2237.01C3531.53 2224.06 3532.32 2223.25 3545.15 2223.23C3591.94 2223.13 3638.73 2223.13 3685.52 2223.23C3698.23 2223.23 3699.34 2224.33 3699.41 2236.96C3699.57 2264.15 3699.55 2291.34 3699.36 2318.53C3699.36 2322.78 3698.19 2327.03 3697.36 2332.47C3689.57 2332.47 3682.94 2332.13 3676.36 2332.55C3667.41 2333.11 3665.61 2335.11 3665 2343.97C3664.75 2347.52 3664.91 2351.1 3664.91 2354.67V2940.36C3664.91 2961.89 3664.91 2961.89 3687.07 2963.07C3697.66 2963.63 3699.29 2965.01 3699.36 2975.96C3699.54 3004.48 3699.54 3033 3699.36 3061.53C3699.3 3072.46 3698.22 3073.53 3686.77 3073.53C3648.01 3073.67 3609.24 3073.67 3570.46 3073.53C3560.2 3073.53 3558.46 3071.81 3554.85 3062.35C3532.45 3002.9 3509.85 2943.5 3487.63 2883.99C3446.43 2773.95 3405.32 2663.88 3364.3 2553.77C3360.71 2544.18 3357.3 2534.54 3353.7 2524.95C3352.2 2520.95 3352.11 2520.95 3344.11 2518.46C3343.66 2521.98 3342.87 2525.28 3342.87 2528.58C3342.87 2666.32 3342.91 2804.06 3342.99 2941.78C3342.99 2944.46 3342.87 2947.14 3343.07 2949.78C3343.78 2959.29 3346.87 2962.36 3356.17 2963.02C3356.62 2963.02 3357.07 2963.02 3357.51 2963.02C3380.07 2964.02 3380.06 2964.03 3380.05 2985.96C3380.05 3010.48 3380.12 3034.95 3380.05 3059.5C3380 3072.38 3379.05 3073.5 3366.53 3073.5C3318.85 3073.62 3271.19 3073.62 3223.53 3073.5C3220.06 3073.5 3216.59 3072.78 3212.28 3072.31C3211.84 3068.37 3211.14 3064.95 3211.13 3061.52C3211.03 3033.44 3211.02 3005.36 3211.08 2977.28C3211.08 2964.65 3212.3 2962.84 3224.57 2963.19C3249.14 2963.91 3245.62 2958.64 3245.62 2941.32C3245.67 2745.64 3245.67 2549.98 3245.62 2354.32C3245.62 2353.87 3245.62 2353.44 3245.62 2352.99C3245.56 2333.19 3245.29 2332.91 3225.54 2332.41C3212.29 2332.08 3211.12 2331.06 3211.07 2317.72C3210.95 2290.52 3210.95 2263.33 3211.07 2236.15C3211.07 2225.41 3212.82 2223.36 3223.4 2223.3C3261.72 2223.08 3300.06 2223.08 3338.4 2223.3C3348.15 2223.35 3350.13 2225.52 3353.66 2235.02C3380.33 2306.84 3407.04 2378.65 3433.79 2450.47C3453.58 2503.83 3473.05 2557.29 3492.95 2610.62C3508.95 2653.49 3525.41 2696.17 3541.53 2738.98C3546.38 2751.87 3550.61 2764.98 3555.43 2777.89C3557.34 2782.93 3560.11 2787.72 3562.46 2792.61Z" fill="white"/>
<path d="M3111.53 2884.68C3111.87 2888.46 3112.53 2892.34 3112.53 2896.24C3112.64 2913.62 3112.64 2931.01 3112.53 2948.4C3112.44 2961.73 3110.95 2963.4 3098.22 2963.49C3057.23 2963.62 3016.23 2963.62 2975.22 2963.49C2963.68 2963.49 2961.84 2961.56 2961.74 2950.41C2961.58 2932.14 2961.56 2913.85 2961.79 2895.58C2961.93 2883.86 2963.09 2883.01 2975.01 2882.4C2979.33 2882.17 2983.64 2881.7 2989.43 2881.21C2988.79 2874.83 2988.91 2869.52 2987.64 2864.58C2981.07 2839.16 2974.28 2813.79 2967.26 2788.47C2963.77 2775.96 2962.88 2775.47 2949.41 2775.47C2908.85 2775.37 2868.3 2775.37 2827.75 2775.47C2815.16 2775.47 2812.69 2778.06 2809.59 2790.25C2803.14 2815.67 2796.29 2841 2789.71 2866.39C2788.63 2870.54 2788.08 2874.83 2786.98 2880.72L2814.04 2883.56C2814.56 2887.42 2815.47 2891.21 2815.5 2894.99C2815.68 2913.25 2815.7 2931.52 2815.56 2949.8C2815.46 2961.88 2814.23 2963.38 2802.91 2963.43C2761.47 2963.6 2720.03 2963.6 2678.58 2963.43C2667.53 2963.43 2665.52 2961.6 2665.41 2951.43C2665.18 2930.93 2665.41 2910.43 2665.56 2889.92C2665.56 2888.2 2666.27 2886.48 2666.8 2884.06C2669.71 2883.35 2672.66 2882.79 2675.62 2882.41C2688.75 2881.41 2688.94 2881.49 2692.54 2868.17C2699.28 2843.17 2705.75 2818.17 2712.38 2793.17C2729.05 2730.34 2745.72 2667.51 2762.38 2604.68C2772.92 2564.68 2783.06 2524.58 2793.51 2484.56C2798.1 2466.99 2803 2449.5 2807.62 2432.56C2802.88 2425.95 2796.69 2427.49 2791.1 2427.32C2776.1 2426.87 2775.67 2426.54 2775.58 2411.09C2775.48 2394.61 2775.48 2378.12 2775.58 2361.62C2775.68 2347.47 2776.58 2346.57 2790.91 2346.55C2854.63 2346.49 2918.35 2346.49 2982.07 2346.55C2986.53 2346.55 2990.99 2346.39 2995.44 2346.55C3004.69 2346.95 3006.44 2348.35 3006.72 2357.55C3007.1 2372.25 3006.84 2386.96 3006.85 2401.67C3006.85 2406.13 3006.99 2410.59 3006.78 2415.04C3006.26 2425.97 3004.94 2427.19 2994.21 2427.29C2989.3 2427.29 2984.37 2427.03 2979.51 2427.46C2971.06 2428.22 2969.4 2430.45 2971.51 2438.83C2975.69 2455.21 2980.28 2471.49 2984.63 2487.83C2993.32 2520.49 3001.9 2553.18 3010.63 2585.83C3017.32 2610.74 3024.33 2635.57 3031.02 2660.48C3037.48 2684.48 3043.63 2708.65 3050.02 2732.7C3058.73 2765.35 3067.63 2797.94 3076.33 2830.6C3079.33 2841.77 3081.88 2853.05 3084.72 2864.26C3088.78 2880.26 3089.07 2880.5 3105.42 2882.68C3107.3 2882.95 3108.92 2883.8 3111.53 2884.68ZM2888.81 2719.27V2719.33C2904.4 2719.33 2920 2719.62 2935.58 2719.23C2944.89 2719.01 2947.51 2715.32 2945.35 2706.36C2943.19 2697.4 2940.35 2688.36 2937.94 2679.3C2923.5 2624.18 2909.11 2569 2894.76 2513.78C2893.76 2510.1 2892.71 2506.1 2888.3 2507.16C2886.23 2507.66 2884.21 2511.37 2883.5 2514C2878.97 2530.74 2875.02 2547.64 2870.5 2564.38C2860.02 2602.97 2849.29 2641.5 2838.74 2680.08C2836.39 2688.66 2833.8 2697.23 2832.34 2705.97C2830.62 2716.23 2833.14 2719.03 2843.42 2719.21C2858.51 2719.48 2873.66 2719.27 2888.81 2719.27Z" fill="white"/>
<path d="M2597.42 2680.32C2597.42 2737.32 2597.06 2794.4 2597.68 2851.43C2597.82 2864.79 2594.53 2875.15 2585.33 2885.02C2568.65 2902.91 2552.88 2921.69 2537.23 2940.52C2530.45 2948.68 2523.06 2952.31 2512.09 2952.25C2427.45 2951.82 2342.81 2952.02 2258.17 2952.01C2255.06 2952.01 2251.94 2952.01 2248.82 2951.84C2243.48 2951.6 2240.41 2948.54 2240.36 2943.41C2240.16 2925.15 2240.22 2906.88 2240.36 2888.61C2240.36 2883.93 2243.11 2881.28 2247.85 2880.88C2248.74 2880.8 2249.63 2880.79 2250.52 2880.72C2271.67 2878.99 2271.69 2878.99 2271.69 2858.21C2271.69 2737.91 2271.69 2617.6 2271.69 2497.29C2271.69 2495.95 2271.69 2494.61 2271.69 2493.29C2271.45 2478.6 2270.69 2477.9 2255.51 2477.58C2241.13 2477.29 2240.27 2476.58 2240.12 2462.49C2239.98 2449.57 2240.01 2436.66 2240.12 2423.74C2240.24 2409.48 2241.25 2408.37 2255.23 2408.33C2286.41 2408.24 2317.6 2408.33 2348.78 2408.33C2403.57 2408.33 2458.37 2408.56 2513.15 2408.15C2523.91 2408.06 2531.57 2411.21 2538.47 2419.61C2554.56 2439.22 2571.21 2458.4 2588.2 2477.25C2595.29 2485.12 2597.67 2493.51 2597.61 2503.91C2597.24 2562.7 2597.43 2621.5 2597.42 2680.32ZM2361.5 2678.98C2361.5 2740.88 2361.5 2802.79 2361.5 2864.71C2361.5 2878.56 2363.35 2880.48 2376.7 2880.56C2405.64 2880.73 2434.58 2880.49 2463.52 2880.73C2467.08 2880.88 2470.62 2880.19 2473.86 2878.71C2477.1 2877.23 2479.94 2875.01 2482.14 2872.22C2488.74 2864.41 2495.45 2856.64 2502.55 2849.27C2508.55 2843.03 2510.55 2835.95 2510.43 2827.45C2510.08 2807.45 2510.31 2787.36 2510.31 2767.31C2510.31 2689.37 2510.33 2611.43 2510.36 2533.49C2510.36 2525.31 2509.98 2517.5 2504.11 2510.97C2496.36 2502.37 2489.28 2493.09 2480.97 2485.1C2477.13 2481.41 2471.08 2478.11 2465.97 2477.98C2434.81 2477.34 2403.64 2477.53 2372.47 2477.76C2363.95 2477.82 2362.39 2479.68 2361.63 2487.92C2361.3 2491.45 2361.48 2495.03 2361.48 2498.59L2361.5 2678.98Z" fill="white"/>
<path d="M1987.17 2742.41C1987.48 2738.41 1988.03 2734.61 1988.03 2730.83C1988.08 2654.59 1988.08 2578.37 1988.03 2502.15C1988.03 2500.36 1988.11 2498.58 1988.03 2496.8C1987.45 2486.91 1984.96 2483.58 1975.03 2484.06C1951.03 2485.22 1954.78 2478.86 1954.62 2461.64C1954.54 2453.18 1954.54 2444.71 1954.62 2436.24C1954.76 2423.13 1955.33 2422.46 1968.02 2422.34C1983.17 2422.2 1998.33 2422.34 2013.48 2422.34C2040.22 2422.34 2066.96 2422.34 2093.7 2422.34C2098.51 2422.34 2103.32 2422.74 2107.7 2422.93C2108.84 2425.16 2109.95 2426.32 2109.97 2427.5C2110.23 2443.08 2110.34 2458.67 2110.51 2474.26C2110.57 2480.83 2107.61 2484.26 2100.78 2483.87C2099.89 2483.82 2099 2483.87 2098.11 2483.87C2076.6 2484.56 2076.62 2484.56 2076.63 2506.63V2818.23C2076.63 2820.02 2076.63 2821.8 2076.63 2823.58C2076.74 2839.41 2077.49 2840.2 2093.16 2840.44C2097.98 2840.51 2102.81 2840.44 2108.74 2840.44C2109.47 2845.6 2110.43 2849.44 2110.48 2853.23C2110.65 2866.61 2110.78 2879.99 2110.4 2893.35C2110.16 2902.1 2108.7 2903.42 2100.09 2903.45C2063.55 2903.6 2027 2903.45 1990.46 2903.68C1982.05 2903.74 1977.46 2899.22 1973.57 2892.79C1954.54 2861.6 1935.46 2830.45 1916.33 2799.33C1875.91 2733.26 1835.49 2667.2 1795.06 2601.14C1792.87 2597.58 1789.77 2594.57 1787 2591.14C1780.45 2595.3 1781.94 2600.59 1781.92 2605.14C1781.8 2626.98 1781.92 2648.83 1781.92 2670.67C1781.92 2721.03 1781.92 2771.41 1781.92 2821.79C1781.92 2824.91 1781.92 2828.03 1782.1 2831.14C1782.41 2836.97 1785.45 2840.14 1791.4 2840.25C1792.29 2840.25 1793.18 2840.4 1794.07 2840.34C1815.29 2838.88 1813.64 2842.58 1813.66 2861.82C1813.66 2870.74 1813.87 2879.66 1813.56 2888.57C1813.39 2893.28 1812.31 2897.95 1811.7 2902.27C1809.06 2902.9 1807.79 2903.47 1806.51 2903.47C1761.94 2903.47 1717.38 2903.47 1672.81 2903.33C1661.5 2903.33 1659.53 2901.24 1659.29 2890.09C1659.03 2877.17 1659.01 2864.24 1659.23 2851.31C1659.4 2842.04 1660.74 2840.24 1670.43 2840.56C1694.87 2841.38 1691.37 2836.56 1691.43 2817.36C1691.51 2712.6 1691.51 2607.84 1691.43 2503.08C1691.43 2500.85 1691.53 2498.62 1691.43 2496.4C1690.94 2486.17 1689.12 2484.4 1678.5 2483.8C1659.15 2482.68 1659.16 2482.68 1659.2 2462.8C1659.2 2453 1659.07 2443.19 1659.2 2433.38C1659.34 2423.91 1660.38 2422.55 1669.97 2422.38C1686.9 2422.04 1703.84 2422.24 1720.78 2422.23C1738.16 2422.23 1755.56 2422.74 1772.91 2422.02C1783.17 2421.59 1789.18 2425.5 1794.36 2434.15C1824.57 2484.57 1855.23 2534.71 1885.76 2584.93C1916.06 2634.75 1946.4 2684.56 1976.76 2734.36C1978.87 2738.03 1980.08 2742.85 1987.17 2742.41Z" fill="white"/>
<path d="M848.764 2877.08C849.354 2881.63 850.154 2885.09 850.174 2888.49C850.314 2906.76 850.384 2925.03 850.174 2943.3C850.054 2956.78 848.774 2958.15 835.824 2958.18C787.264 2958.27 738.701 2958.27 690.134 2958.18C676.304 2958.18 674.594 2956.4 674.484 2942.82C674.344 2924.1 674.434 2905.39 674.484 2886.67C674.484 2884.07 675.094 2881.47 675.634 2877.12C683.184 2876.81 690.564 2876.5 697.954 2876.21C709.704 2875.75 710.544 2874.91 710.894 2862.88C710.994 2859.32 710.894 2855.75 710.894 2852.19V2440.39C710.894 2438.61 710.894 2436.82 710.894 2435.04C710.674 2422.39 709.794 2421.55 697.004 2421.66C674.404 2421.86 674.414 2421.86 674.404 2398.97C674.404 2384.27 674.294 2369.56 674.404 2354.85C674.484 2341.67 675.564 2340.48 689.094 2340.46C745.234 2340.36 801.374 2340.36 857.514 2340.46C902.964 2340.46 948.414 2340.75 993.854 2340.24C1004.26 2340.13 1011.31 2343.62 1017.96 2351.32C1037.48 2373.9 1057.44 2396.1 1077.58 2418.12C1084.89 2426.12 1088.31 2434.59 1088.2 2445.71C1087.69 2493.39 1087.69 2541.05 1088.2 2588.71C1088.33 2600.77 1084.72 2609.97 1076.69 2618.71C1055.86 2641.31 1035.37 2664.22 1015.23 2687.45C1009.42 2694.11 1002.95 2696.6 994.234 2696.55C942.104 2696.29 889.974 2696.43 837.844 2696.43C834.284 2696.43 830.714 2696.37 827.154 2696.43C814.424 2696.77 813.684 2697.43 813.664 2710.43C813.591 2760.33 813.591 2810.25 813.664 2860.17C813.664 2874.88 814.974 2875.92 829.764 2876.26C835.994 2876.36 842.084 2876.77 848.764 2877.08ZM813.634 2518.09C813.634 2545.69 813.524 2573.3 813.634 2600.9C813.704 2613.04 814.894 2614.21 826.464 2614.24C863.854 2614.35 901.234 2614.24 938.624 2614.41C945.464 2614.41 950.474 2611.99 954.864 2606.97C963.064 2597.59 971.431 2588.35 979.964 2579.27C984.864 2574.07 986.674 2568.21 986.614 2561.1C986.388 2532.6 986.388 2504.11 986.614 2475.63C986.614 2468.56 985.054 2462.63 980.194 2457.35C971.444 2447.87 962.774 2438.35 954.434 2428.47C950.024 2423.27 944.904 2421.1 938.164 2421.13C901.224 2421.27 864.284 2421.13 827.334 2421.25C815.134 2421.25 813.654 2422.87 813.604 2435.25C813.534 2462.89 813.614 2490.49 813.624 2518.09H813.634Z" fill="white"/>
<path d="M1325.7 2414.32H1417.92C1421.04 2414.32 1424.17 2414.19 1427.27 2414.43C1435.81 2415.09 1437.83 2416.6 1438.01 2424.74C1438.37 2440.74 1438.39 2456.82 1438.01 2472.85C1437.8 2481.03 1435.88 2482.41 1427.13 2482.95C1421.8 2483.27 1416.41 2482.8 1411.13 2483.25C1402.69 2483.97 1400.96 2486.25 1403.18 2494.49C1407.92 2512.09 1412.93 2529.62 1418.04 2547.12C1426.65 2576.57 1435.49 2605.94 1444.13 2635.38C1454.92 2672.08 1465.65 2708.81 1476.33 2745.56C1487.87 2785.34 1499.34 2825.15 1510.74 2864.98C1511.74 2868.4 1512.74 2871.81 1513.84 2875.21C1516.03 2882.31 1520.2 2886.89 1528.25 2886.51C1535.87 2886.15 1538.36 2890.3 1538.3 2897.3C1538.15 2913.3 1538.48 2929.4 1538.19 2945.43C1538 2955.57 1536.19 2957.59 1526.59 2957.62C1486.05 2957.81 1445.51 2957.79 1404.97 2957.57C1395.43 2957.52 1393.92 2955.97 1393.76 2946.68C1393.46 2930.2 1393.46 2913.71 1393.76 2897.23C1393.94 2888.23 1395.15 2887.35 1403.83 2886.58C1406.49 2886.34 1409.2 2886.58 1411.83 2886.26C1419.83 2885.21 1422.01 2882.27 1419.83 2874.64C1412.93 2850.26 1405.91 2825.92 1398.76 2801.64C1396.36 2793.44 1393.09 2790.64 1384.32 2790.64C1343.32 2790.47 1302.32 2790.57 1261.37 2790.53C1254.1 2790.53 1250.04 2793.87 1248.01 2800.97C1241.16 2824.97 1233.72 2848.73 1226.92 2872.71C1224.13 2882.54 1226.79 2885.7 1236.92 2886.53C1251.58 2887.79 1251.64 2887.8 1251.72 2902.23C1251.8 2916.04 1251.94 2929.86 1251.66 2943.67C1251.42 2955.27 1249.06 2957.67 1237.2 2957.67C1198.44 2957.83 1159.69 2957.83 1120.93 2957.67C1109.34 2957.62 1107.52 2955.76 1107.36 2944.59C1107.13 2929.01 1107.13 2913.41 1107.36 2897.81C1107.5 2888.73 1108.61 2886.59 1116.94 2886.9C1128.94 2887.35 1132.2 2879.79 1134.84 2870.9C1139.03 2856.84 1142.96 2842.69 1147.03 2828.59C1158.01 2790.59 1168.98 2752.59 1179.95 2714.59C1190.13 2679.13 1200.08 2643.6 1210.33 2608.18C1220.71 2572.29 1231.33 2536.46 1241.83 2500.61C1242.71 2498.09 1243.38 2495.51 1243.83 2492.88C1244.43 2487.68 1242.12 2484.23 1236.76 2483.45C1234.12 2482.99 1231.43 2482.87 1228.76 2483.11C1216.11 2484.68 1213.85 2480.96 1213.98 2469.11C1214.13 2454.85 1213.81 2440.59 1214.06 2426.34C1214.25 2415.66 1215.96 2414.29 1226.82 2414.28H1325.71L1325.7 2414.32ZM1322.99 2552.78C1315.27 2562.84 1314.74 2572.89 1311.99 2582C1297.63 2630.26 1283.44 2678.57 1269.42 2726.93C1266.06 2738.41 1268.19 2741.27 1280.52 2741.46C1295.67 2741.69 1310.82 2741.46 1325.97 2741.46C1339.78 2741.46 1353.6 2741.67 1367.41 2741.34C1375.56 2741.15 1377.66 2738.45 1376.81 2730.5C1376.37 2727.42 1375.64 2724.39 1374.64 2721.44C1367.92 2698.9 1360.95 2676.43 1354.44 2653.81C1345.95 2624.34 1337.9 2594.74 1329.44 2565.27C1328.32 2561.41 1325.76 2557.97 1322.99 2552.78Z" fill="white"/>
<path d="M2888.57 2577.62C2891.29 2581.62 2893.01 2583.09 2893.5 2584.93C2902.04 2616.65 2910.48 2648.39 2918.82 2680.16C2919.5 2682.27 2920 2684.44 2920.33 2686.64C2920.86 2691.91 2918.69 2695.47 2913.08 2695.57C2897.08 2695.84 2881.08 2696.18 2865.14 2695.84C2858.29 2695.69 2856.35 2692.23 2858.23 2684.74C2863.44 2664.09 2868.93 2643.52 2874.35 2622.93C2877.29 2611.78 2880.21 2600.62 2883.35 2589.54C2884.39 2586.06 2886.24 2582.86 2888.57 2577.62ZM2896.25 2663.73C2894.14 2659.73 2897.25 2652.03 2889.08 2650.58C2884.57 2649.77 2881.63 2655.44 2881.58 2663.89C2881.58 2668.94 2882.97 2672.7 2888.79 2672.89C2894.61 2673.08 2896.69 2669.86 2896.25 2663.69V2663.73Z" fill="white"/>
<path d="M2380.45 2856.02C2380.28 2852.1 2379.93 2847.76 2379.92 2843.42C2379.92 2734.66 2379.91 2625.9 2379.87 2517.15C2379.87 2515.81 2379.81 2514.47 2379.87 2513.15C2380.38 2502.47 2381.99 2500.75 2392.48 2500.49C2400.06 2500.31 2407.63 2500.49 2415.21 2500.49C2429.47 2500.49 2443.74 2500.78 2457.98 2500.32C2465.75 2500.07 2471.29 2502.72 2476.81 2508.18C2486.28 2517.55 2490.04 2527.86 2489.96 2541.46C2489.41 2634.17 2489.2 2726.88 2490.11 2819.59C2490.28 2836.34 2481.84 2845.95 2471.47 2855.76C2469.75 2857.39 2466.63 2858.26 2464.15 2858.27C2437.87 2858.33 2411.58 2858.17 2385.3 2857.97C2384.09 2857.95 2382.88 2857.02 2380.45 2856.02ZM2395.69 2680.29V2752.48C2395.69 2777.43 2395.59 2802.39 2395.77 2827.34C2395.85 2839.71 2396.66 2840.42 2408.59 2840.57C2421.95 2840.73 2435.34 2840.17 2448.68 2840.79C2457.23 2841.18 2462.83 2837.31 2468.32 2831.6C2474.03 2825.67 2473.32 2818.54 2473.32 2811.51C2473.38 2723.72 2473.38 2635.93 2473.32 2548.15C2473.43 2545.03 2473.31 2541.91 2472.95 2538.81C2471.4 2528.67 2462.31 2518.81 2452.81 2518.53C2436.81 2517.97 2420.75 2518.36 2404.71 2518.42C2399.39 2518.42 2396.43 2521.42 2396 2526.56C2395.66 2530.56 2395.7 2534.56 2395.7 2538.56C2395.68 2585.81 2395.68 2633.05 2395.69 2680.29Z" fill="white"/>
<path d="M838.024 2589.42V2447.49C842.404 2447.07 846.664 2446.33 850.924 2446.31C876.744 2446.2 902.564 2446.5 928.374 2446.12C937.074 2446 943.104 2448.97 949.374 2455.12C960.574 2466.2 965.784 2478.17 964.644 2494.27C963.294 2513.27 964.054 2532.55 964.494 2551.69C964.684 2559.82 962.424 2566.24 956.834 2572.12C935.934 2594.12 944.364 2590.22 916.124 2590.53C895.204 2590.75 874.284 2590.64 853.364 2590.53C848.564 2590.52 843.764 2589.87 838.024 2589.42ZM854.494 2516.98C854.494 2529.9 854.314 2542.81 854.554 2555.72C854.744 2565.65 856.324 2567.4 866.404 2567.57C885.544 2567.88 904.694 2567.95 923.834 2567.51C935.044 2567.26 945.654 2556.36 945.904 2544.97C946.304 2527.16 946.304 2509.34 945.904 2491.52C945.614 2479.52 932.804 2466.3 921.074 2465.99C902.824 2465.5 884.564 2465.59 866.314 2465.93C856.924 2466.11 854.774 2468.61 854.594 2478.24C854.304 2491.15 854.494 2504.07 854.494 2516.98Z" fill="white"/>
<path d="M1324.19 2616.55C1326 2621.35 1328.08 2626.07 1329.56 2630.97C1337.28 2656.5 1344.92 2682.06 1352.46 2707.64C1355.02 2716.26 1353.02 2719.54 1344.26 2719.75C1330.45 2720.09 1316.63 2720.11 1302.82 2719.75C1293.88 2719.51 1291.36 2716.11 1293.68 2707.97C1301.37 2681 1309.21 2654.07 1317.2 2627.19C1318.26 2623.58 1320.07 2620.19 1321.53 2616.69L1324.19 2616.55ZM1324.53 2680.85L1320.23 2680.77C1319.06 2685.55 1317.23 2690.31 1317.06 2695.12C1317 2697.01 1320.78 2699.01 1322.82 2700.97C1324.92 2698.62 1328.87 2696.18 1328.75 2693.97C1328.53 2689.52 1326.07 2685.21 1324.53 2680.85Z" fill="white"/>
</svg>
