<svg id="Layer_1" data-name="Layer 1" xmlns="http://www.w3.org/2000/svg" viewBox="0 0 3740.12 3830.36"><path d="M-1909.06,1928.9c-112.26.7-224.53,2.08-336.79,1.81-49.83-.12-99.68-3.1-149.47-5.65s-99.65-5.1-149.3-9.64c-55.86-5.11-111.64-11.58-167.23-19.09-51.64-7-103.07-15.65-154.44-24.41-34.66-5.91-69.1-13.16-103.6-20-23.58-4.67-47.2-9.16-70.6-14.59-28.12-6.52-56.07-13.82-84-21-25-6.43-49.94-12.87-74.75-19.86-31.62-8.92-63.4-17.47-94.53-27.93-30.67-10.31-60.52-23-90.89-34.23-9.95-3.68-20.53-5.6-30.58-9-15.09-5.18-30.68-9.6-44.81-16.81-35-17.86-67.82-39.29-95.93-67.12-13.66-13.51-25.79-28.06-32.22-46.89-5.38-15.74-4.51-31.66-4-47.63.25-7.81,3.78-10.67,13.16-12.47a100.79,100.79,0,0,1,52.76,3.63c29.32,10.25,58.36,21.32,87.39,32.39,29.91,11.41,59.92,21.82,91.62,27.87,21.66,4.14,42.25,13.56,63.58,19.71,39.33,11.34,78.66,22.75,118.33,32.76,44.92,11.34,90.11,21.65,135.38,31.5,27.4,6,55.13,10.42,82.78,15.14,43,7.32,86.13,14.07,129.13,21.48,25,4.31,50.21,8,74.67,14.5,33.8,8.94,68.32,12.32,102.77,16,35.39,3.78,71,5.3,106.53,7.94,52.83,3.93,105.61,8.54,158.48,11.8,44,2.72,88,4.73,132.08,5.59,72.58,1.41,145.19,2.43,217.78,2.12,64.55-.27,129.1-2.58,193.64-4,22.7-.5,45.42-.73,68.11-1.53,35.13-1.24,70.25-2.6,105.36-4.37,43.56-2.2,87.13-4.39,130.64-7.47,50.65-3.6,100.8-11.22,150.83-19.9,31.12-5.39,62.58-8.76,93.8-13.54,25.52-3.92,51-8.2,76.37-13,42-8,84-15.9,125.75-25,68.33-14.88,136.63-30,204.62-46.32,51.43-12.38,102.41-26.73,153.48-40.59,21.86-5.92,43.65-12.22,65.11-19.44,16.8-5.65,32.7-14,49.58-19.33,31.21-9.79,63.23-14.68,96.12-10.74,10.54,1.26,21.27.83,31.13,6.29,10.46,5.8,14.31,12.6,10.42,23.94a82,82,0,0,1-10.07,20.13c-18.71,26.8-42,49.51-65,72.58-21.08,21.19-45.06,37.71-72.74,48.61-18.59,7.34-37.55,13.8-56.53,20.11-28.22,9.39-56.49,18.66-85,27.32-24.2,7.36-48.66,13.93-73.08,20.57-25.31,6.88-50.63,13.77-76.1,20q-33.66,8.25-67.66,15.05c-27,5.46-54.22,10.33-81.37,15.27-14.88,2.71-29.81,5.15-44.75,7.51-45.75,7.21-91.43,14.86-137.29,21.29-37.92,5.31-76,9.7-114.1,13.46-54,5.35-108.23,9.45-162.29,14.77-12.31,1.21-24.24,6-36.54,7.73-22,3.09-44.15,6-66.33,7.39-40,2.59-80,4.18-120.05,6-45.8,2-91.62,3.77-137.43,5.79-10.65.47-21.29,1.57-31.93,2.38C-1909,1928.12-1909,1928.51-1909.06,1928.9Z" transform="translate(3895.72 375.61)"/><path d="M-3314,90.88c-1.94,37-3.72,79.26-6.49,121.47-3.69,56.21-14.26,111.26-28.38,165.77-7.81,30.15-13,61-20.45,91.24q-11.32,46-24.92,91.39c-9.11,30.24-18.88,60.32-23.49,91.62-5.08,34.61-5.67,69.31,4.22,103.33,5.89,20.26,15.8,38.76,28.05,55.85a914.85,914.85,0,0,0,73.82,89.68c27.92,30,55.1,60.69,77.19,95.49,21.48,33.81,35.71,70.45,44.1,109.52,11.06,51.54,15.62,103.86,18.76,156.34q3.29,54.64,5.65,109.34a95.66,95.66,0,0,1-2,22.56c-2.09,10.55-9,14.61-18.74,9.93-11.15-5.38-22.49-11.35-31.84-19.3-26.1-22.2-52.2-44.56-76.46-68.71-34.71-34.55-68.36-70.22-101.38-106.41-25.5-28-49.3-57.47-73.92-86.24q-48.21-56.36-96.49-112.64c-47.14-55.1-87.42-114.58-116.72-181.24-9.67-22-20.24-43.64-23.89-67.67a258.37,258.37,0,0,1-3.32-34.51c-.48-29.4.41-58.83-.34-88.23-1-38.81,9.45-74.58,25.42-109.44,30.94-67.53,70.53-129.79,113.57-190.06,30.33-42.46,58.77-86.13,80.73-133.63,12.72-27.51,23.17-55.83,28.66-85.87,5.65-30.95,7.17-62.08,2.7-93.1-3.84-26.69-15.35-50.13-36.51-67.92-40-33.64-71-74.82-99-118.51a115.16,115.16,0,0,1-10.83-22.84c-7.32-20.15,5.31-35.14,26.25-31.77,19.2,3.1,36.39,11.62,53.63,19.92,43.83,21.11,85.74,45.24,123.08,76.86,39.89,33.79,67.73,75.34,82.24,125.55C-3313.83,33.75-3314,59.71-3314,90.88Z" transform="translate(3895.72 375.61)"/><path d="M-2065.83,1281.65c-.6-13.34-1.24-26.69-1.8-40-.53-12.6,2.9-24.25,11.7-33.13,19.33-19.52,21.9-41.19,12.17-66.19-10.16-26.14-20.14-52.24-33.61-77-8.46-15.54-21.34-22.71-38.11-25.85-25.3-4.74-50.37-10.73-75.62-15.73-7.37-1.46-15-1.46-22.57-2a66.51,66.51,0,0,1-33.6-11.81c-8.83-6.1-14.65-14.05-14.34-25.58.45-16.92-.08-33.89,1-50.76.5-7.83,2.93-15.85,6-23.12,7.11-16.66,6.35-33.91,5.56-51.28-.32-7.12,0-14.33-1-21.35-2.32-16.4,3.94-29.55,14.44-41.28,15.44-17.23,31.27-34.12,46.33-51.67a136.93,136.93,0,0,0,16.45-24.14c16.27-30.19,32.28-60.55,47.72-91.18a71.42,71.42,0,0,0,7.6-25.2c2.48-28,5.29-56,12.7-83.1,9.66-35.39,25.88-67.37,53.18-92.65a73.78,73.78,0,0,1,19-12.14c12.88-6,25.37-.6,29.85,13,2.16,6.59,3.4,14.08,2.68,20.91-4.28,41-17.67,78.95-41.27,112.79a295.38,295.38,0,0,1-32.47,38.84,213.52,213.52,0,0,0-39,53.82c-13.37,26.18-28.45,51.54-40.89,78.15-13.62,29.11-23.44,59.66-22.65,92.5.28,11.6-1.81,22.06-10.42,30.61-6.46,6.43-8.54,14.61-7.23,23.4,2.16,14.53,4.14,29.14,7.37,43.44,2.71,12,8.16,15.15,20.72,13.29C-2144,934-2124.1,925-2104.14,916.1c12.2-5.41,24-11.79,36.38-16.71,8.19-3.25,17.24-4.24,25.66-7,20.92-6.86,29.27-33,16.49-51.21a125.14,125.14,0,0,0-10-12.52c-24.5-26.78-24.78-71.35-7.33-99.81,14.08-23,43.81-37.55,70.52-33.66,16.92,2.46,29.06,11.25,36.16,26.33,11.1,23.54,19.45,47.91,18.52,74.54-.22,6.22-.39,12.57.59,18.67.57,3.5,2.81,7.74,5.64,9.46,1.66,1,6.31-1.75,8.94-3.71,3.16-2.37,5.72-5.61,8.34-8.63,12.44-14.39,28.73-22.66,47.12-21.25,30.77,2.36,57.25-7.83,84.22-20.59,32.75-15.5,63.6-34,94-53.39,39.41-25.16,78.17-51.34,117.26-77A146.22,146.22,0,0,0-1511,599.48c9.44-13.81,20.45-24.56,37.07-28.34,12.56-2.85,25.1-6.49,37.84-7.6,17.34-1.52,28.1,12.8,23.1,29.69-3.6,12.18-10,23-20.92,30.18-17.14,11.2-33.68,24-52.16,32.29-25.91,11.69-46.42,29.32-66.13,48.87q-36,35.76-73.16,70.43c-25.46,23.89-54.89,42.51-84.18,61.19-12,7.62-22.47,15.79-25.66,30.81-1.39,6.58-6.81,10-13.57,11.28-7.44,1.4-14.82,3.13-22.17,5-15.44,3.83-24.42,12.64-25.39,28.7-1.51,24.86-2.77,49.88,2.56,74.59,4.23,19.64,7,39.36,6.77,59.61-.47,48.14.22,96.3-.34,144.44-.22,18.2-2.51,36.38-4.06,54.55-.29,3.5-1.72,6.9-2.25,10.4-1.25,8.28-3.15,16.59-3.16,24.89a172.31,172.31,0,0,0,2.77,29.25c3.14,18.21-.82,35.23-6.29,52.42-2.51,7.89-3.06,16.57-3.44,24.94-.56,12,0,24.06-.19,36.1-.14,10.89-2.74,21-8.8,30.34-9.87,15.19-13.68,32.71-18.28,49.87-11.33,42.2-25.06,83.53-45.64,122.22a207.36,207.36,0,0,1-19.1,28.94c-9.48,12.28-22.08,18.54-38.2,18.32-27.53-.37-53.79-7.21-80-14.33-23.21-6.3-46.06-14-69.4-19.7-11.52-2.83-23.75-3.27-35.7-3.78-18.21-.77-33.88,5.82-47.55,17.88-17.7,15.61-35.25,31.47-53.84,46-9.66,7.53-21,13.24-32.33,18.17-13.66,6-23.39,1-27.78-13.4-6.23-20.47-4.91-40.59,5.8-59.4,6.6-11.59,13.17-23.42,21.43-33.82,15.57-19.61,24.59-42.11,32.15-65.49,1.64-5.07,3.8-10.06,4.71-15.27,1.07-6.16,1.45-12.84-4.66-17-5.79-4-12.07-2.75-17.74.37-10.92,6-21.63,12.35-32.4,18.61-10,5.81-19.56,12.51-30,17.25a69.66,69.66,0,0,1-24.35,5.91c-13.66.76-22.89-6.48-24.39-19.7-2.67-23.61-.32-46,17.72-64.55,15.09-15.56,32.53-27.58,50.55-39.18,13.84-8.91,27.13-18.67,40.64-28.08,2.92-2,5.72-4.22,8.66-6.23,20.7-14.13,33.76-4,43.63,8.94,2.43,3.17,4.46,6.66,6.6,10,5.15,8.14,12.68,12.12,22.11,13.17,7.51.84,15,1.73,22.44,3.21,7,1.4,12.37-.65,16.16-6.47,3.39-5.22,7-10.44,9.47-16.1,14.69-33.42,29.51-66.79,43.27-100.6,3.4-8.34,3-18.22,4.38-27.4Zm60.38,263.64v.52c3.56,0,7.12,0,10.68,0,16.79-.31,20.82-3.58,24.15-20.34,1.82-9.16,3.44-18.37,4.69-27.62,2.27-16.74,4.49-33.51,6-50.34.3-3.37-1.81-8.64-4.42-10.06-2.21-1.2-6.78,1.85-10.25,3.18-.76.29-1.25,1.24-1.88,1.86-24.5,24.49-42.17,53.82-58.75,83.82-5.82,10.54-2.23,17,9.8,18.82C-2018.91,1546.09-2012.12,1545.29-2005.45,1545.29Z" transform="translate(3895.72 375.61)"/><path d="M-621.51,689.41c.59-31.23-3.6-60.75-9.54-90-8.31-41-17.28-81.82-25.48-122.81-7.14-35.74-14.83-71.45-20.09-107.48C-683.51,322-689.7,274.7-691.07,227c-1.5-52.07-3.65-104.14-4.14-156.23-.3-31.13.87-62.28,5.45-93.3C-685.11-54-670.18-79-648-101.09c44.83-44.56,99.49-72.84,157.13-96.1a156.85,156.85,0,0,1,41.32-9.93C-423.65-210-410-190.19-419-165.75c-5.77,15.61-16.72,27.26-27.63,38.9-21.62,23.07-44.19,45.26-65.6,68.52-21.16,23-40.34,47.61-54.69,75.56C-576.37,35.6-584.35,55-581.28,76c2.17,14.77,6.88,29.48,12.51,43.39,34,84,75.73,164.1,123.07,241.32,27.91,45.54,56.28,90.79,83.77,136.58A285.74,285.74,0,0,1-326.06,593c2.81,15.27,3.68,31,4.61,46.5,1.12,18.65,2.2,37.38,1.81,56-.59,28-2.46,56-3.82,84C-326,831.87-346.85,877-379.27,917c-18.49,22.82-37.8,45.06-57.88,66.5-35,37.38-70.36,74.5-106.6,110.7-47.27,47.22-94.76,94.36-149.59,133.06-39.3,27.74-79.86,53.49-124.72,71.58a115.53,115.53,0,0,1-20.51,5.74c-13.16,2.65-22.2-4.24-22.31-17.62A350.76,350.76,0,0,1-859,1251c2.49-26.15,5-52.32,8.31-78.37,2.42-19,6-37.78,9.45-56.6,2.86-15.75,5.92-31.48,9.43-47.1,5.62-25,19.83-45.7,35.34-65.19,28-35.18,57.1-69.49,85.71-104.19,30.14-36.55,57.91-74.63,74.15-119.74C-625.95,750.25-620.62,719.7-621.51,689.41Z" transform="translate(3895.72 375.61)"/><path d="M-3553.66,2952.26c1.09-25.54,10.86-46.46,32.27-61.4,29.39-20.51,61.42-36.17,93.88-50.91,33.65-15.29,68.51-27.12,104.23-36.82,36.43-9.9,72.21-22.15,108.56-32.34,33.8-9.49,67.93-17.83,102-26.31,37.1-9.23,74.24-18.31,111.48-26.91,22.09-5.1,44.4-9.22,66.65-13.64,16.14-3.21,32.32-6.25,48.51-9.26,14-2.6,28-5.28,42-7.51,36.49-5.79,73-11.75,109.56-16.89,26.46-3.71,53.05-6.62,79.65-9.14,49.65-4.69,99.28-9.86,149-13,63.53-4,127.16-6.51,190.77-8.88,44.95-1.67,89.94-2.41,134.91-2.89,84.21-.88,168.42-1.93,252.63-1.61,53,.2,105.91,2.77,158.87,4.27,17.37.49,34.74.78,52.1,1.49,37.81,1.54,75.62,3,113.4,5,34.69,1.82,69.38,3.87,104,6.54,33.29,2.56,66.59,5.41,99.76,9.27,53.06,6.18,106.09,12.71,159,20.28,25.47,3.65,50.55,10.07,75.83,15.11,23.53,4.7,47.16,8.92,70.63,13.92,20.86,4.45,41.53,9.73,62.31,14.55s41.63,9.35,62.36,14.38q27.86,6.75,55.51,14.33c24.45,6.66,48.9,13.34,73.17,20.6,34,10.19,68.15,20.32,101.85,31.6,30.35,10.15,60.4,21.26,90.2,32.94,37.36,14.62,74.09,30.75,108.23,52.11,14.8,9.26,28.8,19.52,37.25,35.58,5.12,9.72,7.81,19.89,6.55,30.89-1.63,14.31-8.87,21.08-23.11,19.53a206.31,206.31,0,0,1-35.28-7.1c-32.85-9.6-65.48-20-98.22-29.95-30.59-9.34-61.1-19-91.85-27.76-37.64-10.77-75.3-21.55-113.3-30.94q-79.11-19.56-158.76-36.94c-44.37-9.69-89-18.21-133.66-26.61-28.85-5.43-57.92-9.72-86.89-14.51-14.5-2.4-29-5-43.5-7.14-37.85-5.58-75.73-11-113.6-16.42-20.7-3-41.38-6.15-62.13-8.84-23.4-3-46.85-5.76-70.31-8.36-28.75-3.19-57.5-6.52-86.32-9.05-37.69-3.3-75.44-6.09-113.19-8.69-25.29-1.74-50.63-2.85-76-4.07-16.91-.8-33.82-1.51-50.74-1.87-28.06-.59-56.12-.85-84.19-1.27-48.53-.72-97.07-2.37-145.59-1.95-64.12.54-128.25,1.9-192.31,4.47-40.88,1.63-81.66,5.89-122.45,9.36-31.5,2.68-63,5.51-94.42,9.09-39.78,4.54-79.48,9.92-119.21,14.92-34.87,4.39-69.81,8.33-104.61,13.27-31.72,4.5-63.3,10-94.92,15.2-39.1,6.39-78.23,12.52-117.23,19.45-34.2,6.08-68.31,12.76-102.33,19.81-48,9.95-96,20-143.71,30.95-35.14,8.08-70,17.26-104.79,26.87q-53.34,14.74-106.13,31.44c-24.94,7.93-49.26,17.77-74,26.31-21.77,7.52-43.74,14.46-65.66,21.56a25.06,25.06,0,0,1-6.6,1c-13.89.63-20.95-5.44-22.18-19.11C-3553.86,2957.62-3553.66,2954.93-3553.66,2952.26Z" transform="translate(3895.72 375.61)"/><path d="M-1648.87,3006.1c-.74-11.83,6.33-19,13.71-26.29,44.14-43.42,88.06-87.08,136.21-126.15,17-13.81,34.94-26.5,55.53-34.24,24.66-9.27,49.87-16.61,76.8-10.08,17.78,4.31,27.64,16.79,28.68,35.16.9,16-4.6,29.87-13,42.63-14,21.16-28,42.41-43.29,62.61-45,59.32-92.15,117.06-145,169.47-43,42.59-88.19,83-133.74,122.88-64.07,56.08-131.16,108.46-201.92,155.94-26.58,17.83-53.25,35.7-83.29,47.5-25.55,10-51.45,12-78.41,5.18-34-8.67-64.88-24.42-95.58-40.42s-60.65-33.78-90.86-50.9c-26.12-14.8-49.21-33.82-71.82-53.28-58.43-50.3-114.23-103.37-168.39-158.29q-74.21-75.26-142.81-155.51c-25.14-29.56-48.63-60.48-65.24-95.87a198.54,198.54,0,0,1-12.87-34.92c-4.63-18.09,1.92-33.33,15.62-45.5,13.48-12,28.77-14.8,46-9.12,30.86,10.18,55.69,29.94,79.07,51.18,32,29,62.59,59.54,93.53,89.7,53,51.64,107.13,101.95,163.83,149.54a1110.65,1110.65,0,0,0,178.29,122.06c22.56,12.45,45.9,23.47,68.88,35.16,13.27,6.76,26.23,6,39.76,0,46.46-20.78,89.43-47.64,132.41-74.57,48.19-30.19,91.16-66.88,132.43-105.73,20.44-19.23,41.21-38.12,61.2-57.81C-1666.32,3009.64-1658.31,3007.41-1648.87,3006.1Z" transform="translate(3895.72 375.61)"/><path d="M-849-126c0,51.25-.53,102.51.16,153.75.58,43.15,2.1,86.31,4.13,129.43a153.07,153.07,0,0,0,15,59.07q63.53,133.26,126.11,267c17.7,37.83,35,75.88,51.12,114.4,13,31.1,21.41,63.6,13.31,97.6-4.73,19.85-11,39.38-17.53,58.74a402.86,402.86,0,0,1-57.43,110.9c-9.5,12.9-19.09,25.81-32.54,35.13-10.95,7.58-14.38,7.48-24.63-1.28-12.12-10.37-20-23.94-26.93-37.86-28-56.09-56.29-112.07-83.21-168.69-32.89-69.18-64.46-139-88.89-211.75-12-35.82-21.73-72.47-31.51-109-12.46-46.56-18.6-94.18-23.22-142.12-2.92-30.22-6.33-60.34-3.37-90.62,1.76-18.1,5.25-36.06,8.65-54,3.73-19.65,7.63-39.31,12.52-58.69Q-989.64-44-970.92-113.6c13.29-49.1,23.78-98.71,30.31-149.16,3.49-26.95,7-53.88,10.89-80.78A77.2,77.2,0,0,1-925-360.18c5.35-13.9,16.78-18.12,29.95-10.75A47.58,47.58,0,0,1-881.74-360c9.89,12,19.85,24.08,28.22,37.14,3.52,5.5,4.27,13.51,4.31,20.39.32,58.82.18,117.65.18,176.47Z" transform="translate(3895.72 375.61)"/><path d="M-3185.29-55.33c0-44.14-.12-88.27,0-132.41.14-37,.51-73.92,6.61-110.61,5.21-31.37,21.58-55.22,46.84-73.29,10.85-7.75,22-3.89,24.56,9.16,3.34,17,5,34.34,6,51.62.71,11.93-.86,24-1.42,36-1.94,41.75,8.3,79.76,31.07,115.32,22.52,35.18,34.69,74.77,43.63,115.59,7.55,34.52,10.61,69.53,14.63,104.43,2.28,19.86,2.33,40.05,2.25,60.08-.22,53.93-.22,107.88-2,161.76-.77,23-5.51,45.89-8.95,68.75-8.05,53.45-22.87,105.3-40.65,156.12-13.66,39.05-29.89,77.29-46.64,115.16-28.44,64.32-58.83,127.76-93.21,189.18-6.72,12-14.06,23.72-21.66,35.2a93.13,93.13,0,0,1-13,15.2c-18.51,18-35,20.45-56.3,5.94a236.13,236.13,0,0,1-38.3-33c-21.79-23.13-40-48.86-50.64-79.37a179.29,179.29,0,0,1-9.82-56.26c-.85-49.14,12.53-94.82,31.95-139.4,19.66-45.12,46.52-86.15,70.68-128.73a1176.47,1176.47,0,0,0,75.54-159c8.27-21.55,16.14-43.51,21.17-66a312.24,312.24,0,0,0,7.27-63.57C-3184.73,76.6-3185.29,10.63-3185.29-55.33Z" transform="translate(3895.72 375.61)"/><path d="M-1781.93-290.47c1.86-7.76.1-16.82,7.64-23.15,7.86-6.6,14.62-7.85,23-2,6.09,4.27,12.26,9.31,16.36,15.38,12.21,18,24.11,36.38,34.86,55.32a1015.77,1015.77,0,0,0,81.94,123.48A1039,1039,0,0,0-1455.77,44.3c60.12,49.17,125.87,89.94,191.56,131,49.82,31.13,98.69,63.82,147.41,96.67,20.34,13.71,38.25,30.63,52.27,51.1a151.43,151.43,0,0,1,22.73,53.8c14.51,66.8,36.66,131.11,61.66,194.56C-973.77,587.56-968,604-962,620.26c.61,1.67,1.73,3.38,1.66,5-.21,4.66.6,10.38-1.78,13.68-3.27,4.53-9.28,2.2-13.49-.19-8.49-4.84-17.19-9.61-24.73-15.73-24.52-19.93-48.85-40.12-72.72-60.83q-68.61-59.52-136.58-119.77-50.49-44.73-100.2-90.33c-60.23-55.52-120.68-110.84-179.94-167.39-48.93-46.7-97.78-93.65-140.34-146.5-30.75-38.2-59.56-77.76-83.21-120.88a643.83,643.83,0,0,1-48.21-112.6c-6.66-20.69-11.93-41.88-16.81-63.08C-1780.72-268.65-1780.78-279.52-1781.93-290.47Z" transform="translate(3895.72 375.61)"/><path d="M-1458.25,1310.09l-16.39-4.06c2.29-4.19,4.31-7.91,7-12.79l-15.53-5.61c1.66-2.22,2.41-4.38,3.63-4.69,18.09-4.58,33.45-18,54.24-14.58,11.58,1.88,14.75-2.2,17.69-13.58,3.43-13.27,3.72-26.2-2.71-39-3.75-7.49-5.6-15.92-8.6-23.82-1.44-3.77-3.56-7.28-6.46-13.1-4.27,5.75-7.2,9-9.28,12.65-5.36,9.53-13.74,12.22-23.8,10.93-17.85-2.29-34.39-8.79-50.71-16-4.63-2-9.54-3.5-16-5.83,0,5-.39,8,.06,10.79,4.61,28.85-9.27,57.08-35.51,69.92-41.37,20.22-84.16-7.9-90.49-47.23-1.86-11.53-1.72-23.09,3-34.19,1-2.42,2.58-5.64,1.78-7.63-6.41-15.79,8-25.08,11.33-37.77.2-.81.84-1.94,1.5-2.13,13.08-3.7,21.77-16.86,36.7-16.72,7.09.07,14.24-1.6,21.27-1.12,6.49.43,13.59,1.34,19.15,4.37,19.13,10.43,39,17.15,61,16.82,4.42-.07,8.86.79,13.28,1.34,13.58,1.69,13.72,1.65,19.86-9.91,6.87-12.92,14-25.45,15.73-40.71,1-8.48,6.11-16.62,10-24.59,3.53-7.19,4-13.84,1.92-21.8-6.5-24.49-3.72-48.69,6.09-71.79,7.22-17,20.75-26.21,39.46-27.44s32.22,6.83,38.54,24.36c2.69,7.47,3.73,15.54,5.37,23.37.73,3.46.23,7.42,1.75,10.42,3.66,7.26,4.64,14.06.88,21.65-2.59,5.23-.29,9.62,4.77,12.23,21.14,10.91,36.44,28.47,50.47,46.73,13.79,18,25.93,37.25,37.76,56.6,9.88,16.15,13.29,34.77,17.33,53.1a280.27,280.27,0,0,0,11,38.35c5.23,13.92,9.24,27.6,8.68,42.77-.62,16.4.93,32.87.67,49.29-.32,20.36-8,39.12-13.83,58.29-4,13.15-7.83,26.54-9.8,40.1-4.22,28.93-11.12,56.43-27.93,81.2-8.39,12.36-13.32,27-20.09,40.52-10.41,20.73-13,21.54-33.42,11.17-3.95-2-8.26-5.9-11.8-1.24a16.7,16.7,0,0,0-2.61,12.06c2.83,13.86-1.93,24.83-12.06,33.38-8.65,7.31-12.21,15.75-11.17,26.92,1.54,16.56-6.33,31.13-10.81,46.39-1.74,5.94-4.2,11.68-5.65,17.67-2.9,12.07-11.23,20.82-23.43,22.29a200.07,200.07,0,0,1-26.61.89c-7.36-.1-11.8-4.46-11.82-11.77,0-6.52,1.22-13,1.93-19.55a4.36,4.36,0,0,1,.55-1.21c9.76-20,19.08-40.12,22.06-62.56a30.24,30.24,0,0,1,11.43-20.5c4.61-3.61,6.79-8.59,5.22-14.22-3.57-12.81.61-24.79,3.77-36.71,4.11-15.47,9.14-30.72,14.13-45.94,2.43-7.37,3.32-13.75-4.4-18.71-6.1-3.93-6.07-9.21-2.33-15,2.67-4.11,5.1-8.36,7.58-12.59,4-6.87,3.87-13.4-1.91-20-11.05,7.57-22.1,14.76-32.72,22.54-7.27,5.32-14.17,9.89-23.9,10.35-11.82.57-24.38,15.32-24.32,27.23a39.55,39.55,0,0,1-5.43,20.27c-3.81,6.82-2.72,8.87,4.15,12.51,2,1,4,1.89,6,2.93,19.41,10.3,22.18,28.26,6.1,43.29a97.51,97.51,0,0,1-20.58,14.69c-14.29,7.61-24.91,18.11-31.87,32.83-7.37,15.59-20.3,25.72-35.63,32.85-8.39,3.9-17.37,6.4-24.84-1.29-7.23-7.46-10.56-17.2-6.83-27.08,3.57-9.42,8.31-18.84,14.48-26.75,9.83-12.6,21.12-24.08,32.08-35.77,17-18.11,17-20.33,5.51-43.21a158,158,0,0,1-11.09-29.79c-3.23-12-.5-23.46,4.83-34.89,6.56-14,10.87-29.11,17.09-43.33,12.66-28.95,26-57.62,39-86.43C-1461.42,1318.27-1460.22,1315-1458.25,1310.09Z" transform="translate(3895.72 375.61)"/><path d="M-907.28,999.19c-1,41.84-1.9,83.69-3.14,125.53-1.07,36-2,72.1-4,108.09-2.43,44-5.3,88-9.14,131.85-3.38,38.58-7.78,77.09-12.81,115.49-3.94,30.08-11.12,59.54-22.74,87.7-8.43,20.45-20,38.81-37.66,52.66a55.22,55.22,0,0,1-12.43,7.66c-9.59,4-17.29,2.2-24.13-5.6a51.07,51.07,0,0,1-13-32.91c-.67-25.83-1.25-51.69-.8-77.51.52-29.37,1.88-58.74,3.48-88.07,2.3-42.22,5.4-84.4,7.7-126.62q4.08-74.68,7.32-149.42c1.6-38.24,2.42-76.52,3.54-114.78a97.74,97.74,0,0,0-.18-10.69c-.79-9.93-4.64-18.2-14.11-22.6-21.74-10.09-43.21-20.93-65.47-29.75-71.24-28.26-144.08-51.94-217.57-73.55-35.83-10.53-72.08-19.52-109.08-25.38a96.87,96.87,0,0,1-39.38-15.58c-20.36-13.81-26.22-33.13-21.64-56,6.85-34.17,28.17-52.72,63-57.9,29.14-4.33,57.83-1.28,86.22,4.29,29.22,5.74,58.21,12.81,87,20.38,21.45,5.64,42.58,12.59,63.59,19.72q46.68,15.85,93,32.82c34.62,12.61,69.18,25.41,103.54,38.71,21.53,8.33,42.58,17.92,64,26.6,17.55,7.13,24.91,20.07,24.59,38.7-.43,25.37-.11,50.76-.11,76.15Z" transform="translate(3895.72 375.61)"/><path d="M-2249.86-274.7A279.3,279.3,0,0,1-2264-206.51c-28.06,82.21-73.1,155-124.62,224.23-47.22,63.42-101.07,121-158.05,175.52q-88.82,84.95-180.41,167c-55.39,49.6-112.34,97.48-169,145.7q-46.26,39.39-93.83,77.23c-13.53,10.7-28.83,19.16-43.34,28.62a23.58,23.58,0,0,1-3.46,2c-13.18,5.67-22.71-1.07-20.53-15.23a262.62,262.62,0,0,1,7.85-35.19c9.44-31.58,19.87-62.86,29.21-94.46,7.31-24.73,13.73-49.71,20.25-74.66a200.66,200.66,0,0,1,45.52-85c30.52-33.88,67.6-59.13,106.67-81.76,69.71-40.37,140.37-79.15,207.61-123.65A888.22,888.22,0,0,0-2504.77-6.77c59.27-58.78,107.1-126.17,150.54-197,14-22.79,27.56-45.83,42.13-68.24a186.84,186.84,0,0,1,24-30.19c11.72-11.74,27-8.1,33,7.21C-2252.22-287.64-2251.09-279.62-2249.86-274.7Z" transform="translate(3895.72 375.61)"/><path d="M-2590.06,730.64c34.12.67,65.57,9.09,93,29.51a111.27,111.27,0,0,1,24.18,24.5c12.63,17.92,7.84,36.17-12.11,45.2a349.68,349.68,0,0,1-51.3,18.37c-28.7,7.91-57.81,14.36-86.77,21.28-19,4.55-38.16,8.61-57.14,13.32-26.78,6.63-53.59,13.18-80.14,20.63-49.33,13.83-98.48,28.55-145.61,48.7-33.93,14.51-66.7,31.7-100,47.74-6.39,3.08-8.61,8.6-8.57,15.38.08,13.37-.08,26.74.2,40.11.3,14.23,1.36,28.46,1.47,42.69.46,55.71.61,111.42,1,167.12q.3,40.77,1.08,81.54c1.12,61.43,2.94,122.87,3.27,184.31.12,23.51-2.93,47-4.8,70.55a29.45,29.45,0,0,1-3.2,10.08c-9.51,19.62-20.41,22.66-38.09,10.47-16-11.06-27.54-25.62-30.49-45.27-3.84-25.54-7.39-51.16-9.89-76.85-4.2-43-8.11-86.06-11-129.17-4.82-72-8.86-144-13-216-2.7-47.1-5.28-94.22-7.33-141.36-1.42-32.92-1.6-65.89-2.88-98.82-.38-9.56,3.76-14.54,11.84-18.56,51.36-25.56,103.21-50.09,156.87-70.4,42.36-16,84.94-31.66,128.06-45.48,55.53-17.8,112-32.28,169.72-41.44C-2638,735-2613.94,733.29-2590.06,730.64Z" transform="translate(3895.72 375.61)"/><path d="M-870.1,1490.83c2-32,4.08-63.94,5.84-95.92.83-15,8-26.21,19.62-34.81,15.71-11.66,31.23-23.69,47.74-34.13,51.14-32.33,103.2-63.24,154-96.14,48.85-31.64,90.93-71.36,130.09-114.35,31.47-34.55,63.69-68.44,96-102.18,6.36-6.64,14.4-12,22.4-16.63,8.72-5.07,16-2.06,18.4,7.81a202.19,202.19,0,0,1,5.77,36.76c2.06,42.36-.57,84.66-6.06,126.61a521.09,521.09,0,0,1-24.35,103.7c-27.71,79.73-75.26,145.8-137.54,201.84-34.72,31.25-74.08,55.23-117.36,72.7a590.49,590.49,0,0,1-99.22,30.52c-23.48,4.94-46.85,10.36-70.37,15.08a112,112,0,0,1-22.56,1.91c-12.85-.08-17.77-4.16-19.24-17.2-1.35-11.91-1.4-24-1.57-36-.24-16.49-.06-33-.06-49.46Z" transform="translate(3895.72 375.61)"/><path d="M-3199.93,1594.25c-19.26-3.27-38.65-6-57.75-10-17.36-3.66-34.49-8.48-51.58-13.29-36-10.12-70.54-24-104.37-39.77-29.83-14-58.75-29.46-85.44-48.92a123.18,123.18,0,0,1-32.72-34.8c-3.29-5.29-6.51-10.71-10.5-15.45-16-19-26.84-41.07-36.82-63.34q-23.44-52.28-43.94-105.86c-9.51-24.84-19-50.12-24.23-76.06-5.35-26.44-6.33-53.89-7.72-81-1.49-28.84-2.07-57.8.67-86.63a50.5,50.5,0,0,1,5.15-17.65c4.11-8.1,9.89-10,17.69-5.33,9.1,5.45,18.35,11.36,25.74,18.85,22.82,23.11,45.51,46.42,66.93,70.81,49.06,55.87,96.69,113,146.13,168.51,40,44.88,81.52,88.34,122.79,132,13.13,13.89,27.61,26.51,41.5,39.69,1.94,1.83,3.78,4,6.11,5.16,24.68,12,35.24,35.87,47,58,8.7,16.34,14.5,34.29,20.92,51.76,4.06,11.07,1.17,22.28-3.16,32.58-5.71,13.59-18.64,16.89-31.58,19.27-3.44.63-7.1.09-10.67.09Z" transform="translate(3895.72 375.61)"/><path d="M-3589.92,1790.3c53,0,106.06.23,159.08-.19,10.77-.09,18.23,3.16,25.06,11.67q56.84,70.89,114.57,141a32.62,32.62,0,0,1,7.74,22c-.18,56.16,0,112.33-.1,168.49,0,15.22-1.89,16.94-16.85,16.94h-196.51c-2.23,0-4.46.1-6.69,0-10.31-.53-12.61-2.51-13-12.71-.37-10.68-.09-21.39-.1-32.09,0-15.15.22-30.31-.09-45.46-.38-18.31-17-34.16-35.42-34.18q-37.44,0-74.87,0c-18.87,0-33.83,14.29-34.06,33.13q-.45,36.09,0,72.2c.19,16.15,15.62,30.89,31.75,31,.89,0,1.78,0,2.68,0,65.9.72,131.8,1.62,197.71,2,10.46.06,17.9,3.94,24.16,11.6,12.4,15.18,24.91,30.28,37.28,45.48,25.3,31.1,50.42,62.35,75.9,93.29a34.24,34.24,0,0,1,8.24,23.18q-.3,126.36,0,252.73c0,9.93-3,17.87-9.3,25.55q-58.11,70.71-115.52,142c-5.86,7.3-12.14,10.46-21.51,10.44q-159.09-.35-318.17,0c-9.36,0-15.79-3-21.66-10.27q-59.33-73.22-119.26-145.91a28.88,28.88,0,0,1-6.79-19.57c.16-56.6,0-113.21.11-169.82,0-14.11,1-15.12,15.3-15.12q100.93,0,201.86.23c14.85,0,16,1.26,16.07,16.07.11,23.62.88,47.29-.28,70.85-.75,15.32,9.36,23.43,17.89,32.64,2.38,2.57,8.31,2.49,12.62,2.53q42.78.3,85.56.05c14-.07,29.68-14.26,30.06-28.43q1-36.07,0-72.2c-.4-15.59-18.15-31.52-33.74-31.54-65.06-.1-130.12-.44-195.18,0-12.81.09-21.51-3.82-29.58-13.87-37.12-46.17-74.83-91.86-112.59-137.5a33.64,33.64,0,0,1-8.2-23q.39-128.36,0-256.73c0-9.89,2.53-17.89,8.91-25.62,38-46,75.86-92.19,113.13-138.82,7.19-9,14.68-12.4,26-12.3C-3695.09,1790.57-3642.5,1790.29-3589.92,1790.3Zm1,29.8c-50.35,0-100.7.08-151-.08-7.56,0-13.51,1.5-18.64,7.88q-51,63.55-102.78,126.53c-7.27,8.8-10.36,17.72-10.3,29.12q.57,111.65,0,223.3c0,10,2.58,18,8.86,25.69q51.24,62.52,101.91,125.51c7.41,9.26,15.67,12.73,27.49,12.62,58.81-.51,117.63-.24,176.45-.24,34.93,0,34.8.11,56.84,26.85a32.06,32.06,0,0,1,7.8,22c-.27,24.51.06,49-.14,73.54-.31,37.45,3.17,25.61-19.22,52.25a45.69,45.69,0,0,0-3.48,4c-5.15,7.78-12.18,10.51-21.58,10.39-32.07-.43-64.18-.86-96.23.18-15.16.5-27-2.7-35.25-16-2.08-3.34-5.26-6-8.21-8.75-7.11-6.5-9.5-14.48-9.3-24,.39-19.6.27-39.22.05-58.83-.15-13.41-2.23-15.24-15.81-15.25q-76.86-.06-153.72,0c-14.44,0-16.25,1.63-16.28,16.06-.1,41.89.06,83.79-.14,125.69,0,7.52,1.89,13.83,6.69,19.66,35.4,43,70.83,85.94,105.88,129.21,6.57,8.11,14,11.13,24.22,10.88,22.27-.56,44.56-.19,66.84-.19q112.29,0,224.57.08c8.84,0,16.3-1.07,22.45-8.71q52.79-65.56,106.27-130.56c4.94-6,6.36-12.39,6.35-19.74q-.1-115,.08-230c0-9.11-3.21-16.14-8.85-23-33.52-40.48-67-81-100-121.89-7.34-9.1-15.08-13.12-27.07-13-64.16.57-128.32.27-192.49.27-3.56,0-7.33.69-10.64-.24-4.46-1.26-9.45-2.86-12.65-5.94-6.71-6.46-12.27-14.1-18.57-21-5.46-6-7.29-12.8-7.2-20.8.3-25.85.15-51.7.15-77.55,0-33.37.21-33.2,21.37-58.56,5.73-6.86,12-9.45,20.72-9.34,29,.37,57.93.15,86.89.15,35,0,34.82.13,56.75,26.84a31.85,31.85,0,0,1,7.56,22c-.32,19.61-.19,39.22-.08,58.83.09,14.94,2,16.89,17.09,16.92q75.53.15,151.05,0c14,0,15.76-1.65,15.8-15.18.13-44.12,0-88.25.07-132.37a27.27,27.27,0,0,0-6.44-18.39q-52.24-63.42-104-127.22c-5.94-7.36-12.45-9.91-21.69-9.84C-3490,1820.29-3539.44,1820.1-3588.9,1820.1Z" transform="translate(3895.72 375.61)"/><path d="M-2586.35,1049.48c5.46,4.06,10.18,2,14.64-1.51,10.84-8.56,21.58-17.24,32.44-25.77,7.52-5.91,11.55-13.25,10.84-23.09-.39-5.32,0-10.7-.09-16-.17-8.87,4.54-14.1,12.45-16.94a24,24,0,0,1,25.76,6.12c5.8,6.38,4.82,12.9,1,19.66A80.07,80.07,0,0,1-2494,1000c-10.65,14.45-18.06,30.58-24.86,47-6.53,15.83-15.28,30-28.61,41.26-14.64,12.33-21.34,28.1-19.08,47.41.67,5.75.83,11.55,1.3,17.32,1.41,17.12-2.1,33.53-6,50.1a175.83,175.83,0,0,0-4.16,35.7c-.61,24.06.11,48.14-.27,72.21-.22,13.88,4.05,25.08,15,34,7.24,5.87,13.65,12.77,20.4,19.25,11.65,11.17,21.34,23.37,27.38,38.9,3.59,9.23,11.29,16.9,17.36,25.11,3.43,4.64,7.4,8.88,10.95,13.43a16.82,16.82,0,0,1,2.47,17.63c-10.17,25.34-9.65,52.36-12,78.87a197.8,197.8,0,0,0,0,35.93c1.93,20.43,9.82,30.23,34,37.4,8.51,2.52,17.37,3.86,26,6a58.39,58.39,0,0,1,11.33,3.84c12.2,5.84,13.65,14.83,2.4,21.75-9.69,6-20.66,10.24-31.56,13.65-7.5,2.35-15.88,1.72-23.82,2.8-12.33,1.68-24.71,3.2-36.89,5.69-16.87,3.44-23.55-.75-24.57-18.2-.84-14.22.14-28.54-.52-42.77-.47-10.17-2.26-20.29-3.62-30.4a19.63,19.63,0,0,0-1.91-6.38c-9-17.43-11.05-36.49-12.86-55.55a68.65,68.65,0,0,1,5.32-34c4.49-10.53.75-17.06-10.61-19.18a44.19,44.19,0,0,0-13.29-.35c-11.59,1.4-21-2.55-28.85-10.76q-9.25-9.63-18.46-19.32c-8.91-9.36-17.47-19.08-26.79-28-10.51-10.08-16.77-10.12-28.22-1.81-26.65,19.33-53.38,38.56-79.92,58-6.45,4.73-12.15,10.46-18.47,15.38-5.23,4.08-10.48,8.43-16.39,11.29-13.95,6.74-27.67,6-40.07-4.08-19.26-15.74-42.07-27-58.39-46.47-5-6-11.59-6.68-19.44-5.24a295.23,295.23,0,0,1-41.05,4.84c-16.82.67-23.09-8.36-16.25-23.78,3.66-8.27,8.88-17.16,15.91-22.34,13.89-10.24,29.51-18.13,44.46-26.89a31,31,0,0,1,7.33-3.19c14.62-4,26.85,4.25,28.74,19.28,2.15,17.14,3.77,18.78,20.86,22.25,10,2,19.87,4.37,28.46,10.78,10.4,7.75,12.49,7.29,19.55-4.48,15.8-26.34,31.19-52.91,46.7-79.42,11.23-19.2,23.67-37.83,33.19-57.85,9.44-19.86,19.07-40.2,19.63-63,.12-5.17,1.6-11.57-4.2-14.47-6.05-3-11.44.77-15.55,4.87-10.72,10.69-21,21.77-31.46,32.76-3.67,3.88-6.78,8.34-10.76,11.85-5.65,5-12.24,8.68-7.71,18.44,1.89,4.07-2.41,7.33-6.78,8.09-10.56,1.84-20.7.25-29.08-6.6-12.28-10-8.25-32.54,7.11-37,9.11-2.67,14.16-8.17,18.83-15.51,19.13-30,37.67-60.21,51.62-93.28,11.77-27.89,33.73-46.48,63.14-55.51,4.66-1.43,9.16-3.4,13.71-5.18,7.39-2.9,10.07-6.65,8.43-14.28a68.18,68.18,0,0,0-6.16-16.08c-10.79-21.34-8.18-42.73,1.64-63,8-16.51,28.64-23.31,47.46-18.38,20.68,5.42,31.22,18.6,32.06,38.89.81,19.43-6.53,36.6-13.9,53.78C-2586,1038.42-2588.72,1043.49-2586.35,1049.48Z" transform="translate(3895.72 375.61)"/><path d="M-511.83,2370.81c-.21,2.77-.52,4.93-.51,7.08q.17,64.86.39,129.73c0,2.23.07,4.46,0,6.69-.1,6.68,3.4,9.8,9.86,9.85,7.46.05,14.92,0,23.39,0,.63,5.52,1.43,9.34,1.44,13.16q.11,105,0,210,0,3.34-.17,6.68c-.25,5.24-2.67,8.33-8.25,8.31-3.12,0-6.24.08-9.36.08H-706.24c-1.79,0-3.57.08-5.35,0-10-.45-11.74-1.79-12-11.72-.35-12.92-.14-25.85-.14-38.78q0-83.59,0-167.18c0-3.57.06-7.14.09-10.7.07-6.66,3.63-9.66,10.08-9.67,4.9,0,9.82.12,14.71-.15,8.76-.47,10.13-1.73,10.87-10.07.35-4,.19-8,.19-12V2039.33c-.11-19.47-.61-20-20.41-20.25-14.29-.21-15.49-1.2-15.5-15.07q-.09-101.65,0-203.29c0-15.09,1.05-16.15,15.8-16.17q84.24-.12,168.48,0c13.54,0,14,.4,18.57,12.56q33.12,88.2,66.18,176.44c18.21,48.28,36.73,96.44,55,144.7,6.45,17.05,12.46,34.27,18.75,51.38,2.07,5.64,3.68,11.7,11.39,16.22,1-4.88,2.24-8.06,2.25-11.25q.21-70.21.05-140.43c0-12.53-2.56-14.68-15-15.08-20.25-.64-20.25-.64-20.25-20.95q0-97,0-193.93c0-3.12-.14-6.25,0-9.36.49-8.55,1.55-9.58,10.46-10.24,2.66-.2,5.34-.09,8-.09H-174c3.12,0,6.24.1,9.36.1,6.13,0,8.88,3.19,8.83,9.15,0,2.67,0,5.35,0,8q0,99.64,0,199.28c0,2.68-.11,5.35-.06,8,.12,6.58-2.95,9.94-9.65,9.92-5.35,0-10.69.1-16,.22-6.48.14-9.83,3.47-9.94,10,0,3.12-.09,6.24-.09,9.36V2504c0,20.76-1,20.39,20.7,20.28,2.67,0,5.76-.67,7.9.43,2.72,1.41,5.66,3.93,6.7,6.66,1.19,3.14.47,7,.47,10.59q0,100.31,0,200.62c0,2.67.08,5.35-.08,8-.6,10.25-1.66,11.53-11.87,11.69-15.59.23-31.2.08-46.8.08q-64.84,0-129.7,0c-13.08,0-14.16-.67-18.6-12.55q-32-85.62-63.88-171.26-33.74-90.11-67.71-180.11c-2.66-7.09-5-14.29-7.46-21.46C-503.26,2373-505,2369.51-511.83,2370.81ZM-349,2301.94l-1.85.64c-2.56-4.93-5.61-9.67-7.58-14.82-10.18-26.56-20-53.23-30.09-79.84-25.57-67.78-51.31-135.51-76.74-203.34-22.36-59.64-44.38-119.41-66.59-179.11-3.7-10-4.73-10.85-15.64-10.87q-72.87-.18-145.72,0c-12,0-13.14,1.25-13.17,13.06q-.18,74.88,0,149.75c0,12.55,2.3,15.06,14.92,14.76,20.37-.49,19.63,1.35,19.52,20.32v520.15c0,3.12.13,6.25,0,9.36-.59,10.08-1.66,11.06-12.1,11.47-1.78.08-3.57,0-5.35,0-15.92.24-17,1.15-17,16.48q-.07,72.2,0,144.41c0,16.79,1.15,17.83,18.63,17.84q87.55,0,175.12,0c2.23,0,4.46.11,6.68,0,8.69-.62,10.71-2.56,11.46-11.37.3-3.54.14-7.12.14-10.69q0-67.53,0-135c0-23,1.41-21.56-21.93-21.64-13.87,0-14.67-.74-14.69-14.14q-.12-135,0-270.1c0-4.56.93-9.12,1.43-13.68l3-.27c2.12,4.76,4.5,9.44,6.32,14.32,7.63,20.45,15,41,22.64,61.46q33.07,88.83,66.28,177.63c14,37.45,28.34,74.81,42.46,112.23,12.08,32,24.24,63.95,36.05,96,5.12,13.92,6.27,15.24,20.92,15.26q70.18.06,140.37,0c2.67,0,5.34-.09,8-.15,6.05-.14,8.82-3.49,9-9.29.1-2.67.16-5.35.16-8q0-72.87,0-145.75c0-4.36-.39-8.72-.58-12.64-2.23-1.11-3.36-2.09-4.58-2.22-3.53-.4-7.09-.58-10.64-.64-18.74-.3-18.76-.27-18.76-18.34q0-260.74,0-521.48c0-3.57-.12-7.15.11-10.7.56-8.55,1.89-9.9,10.31-10.63,2.66-.22,5.35-.07,8-.11,15-.26,16.09-1.2,16.11-15.89q.12-74.2,0-148.42c0-3.85-.7-7.7-1.12-12-3.94-.54-6.94-1.31-9.94-1.31q-94.24-.11-188.49,0c-3.77,0-7.55,1.06-12.24,1.77v13.18q0,72.87,0,145.75c0,14.93,1.77,16.6,17,16.94,20,.45,20.15.45,20.16,19.91q.07,133.71,0,267.43Z" transform="translate(3895.72 375.61)"/><path d="M-1263.65,2276.93q0,82.23,0,164.47c0,3.57-.18,7.15.14,10.69.2,2.13.56,4.91,2,6.15,6,5.33,13.43,3.6,20.43,3,5.94-.49,9.36-4,10.88-10,4.89-19.44,10.11-38.8,15.27-58.18q29.61-111.07,59.26-222.14c5.49-20.64,10.85-41.31,16.29-62,2-7.68.55-10.3-7.23-12.62-11.09-3.31-11.19-3.31-11.2-14.05q-.08-72.19,0-144.41c0-10.43,2.07-12.51,12.24-13.11,2.22-.13,4.46,0,6.69,0q133.68,0,267.37,0c19.85,0,19.83.06,19.82,19.93q0,64.85,0,129.7c0,3.12.11,6.25,0,9.36-.45,10.3-1.2,11.07-11.44,12.44-11.53,1.53-13.15,3.22-10.35,14.57,5.86,23.74,12.18,47.38,18.54,71,6.59,24.47,13.48,48.87,20.19,73.3,7.31,26.58,14.7,53.14,21.8,79.77,8.15,30.53,16,61.12,24,91.69,2.14,8.19,4.54,16.31,6.3,24.58,1.58,7.42,6.2,10.42,13.23,10.61,4.46.13,8.92.18,13.37,0,6.64-.27,10,2.88,10.29,9.4.12,2.67.2,5.34.2,8q0,69.52,0,139.06c0,14.41-1,15.53-14.95,15.55q-96.91.12-193.84,0c-14.19,0-15.56-1.38-15.57-15.11-.07-46.8,0-93.6-.07-140.4,0-7.53.64-14.07,8.7-17.8,2.15-1,4.68-5.21,4.11-7-.89-2.89-3.87-5.79-6.7-7.25-2.55-1.3-6.09-.85-9.19-.86q-34.1-.09-68.18,0c-1.78,0-3.57-.08-5.34.08-4.62.41-8.94,1.45-10.32,6.77-1.27,4.91,1.56,7.41,5.58,9.23,5.42,2.44,5.9,7.33,5.91,12.39q0,19.4,0,38.78,0,51.48,0,103c0,18.11-.07,18.28-17.46,18.3q-93.59.08-187.16,0c-15.14,0-16.15-1-16.19-15.73-.09-25.41,0-50.81,0-76.22,0-3.12.38-6.32-.18-9.33-.44-2.38-1.56-5.65-3.32-6.46s-5.08.46-6.94,1.85c-2.8,2.1-5,5-7.33,7.73-20.44,23.55-41,47-61.16,70.8-6.31,7.47-13.4,10.47-23.15,10.45q-153.07-.36-306.14-.16c-14.92,0-16.22-1.25-16.25-15.86q-.1-59.51,0-119a76.44,76.44,0,0,1,.56-9.32c.57-4.63,3.3-7.15,8-7.29,4-.12,8,.1,12-.21,8.47-.66,10.72-2.94,11.53-11.58.28-3.1.1-6.24.1-9.36q0-141.08,0-282.15c0-1.33,0-2.67,0-4-.23-14-1.49-15.31-15.25-15.7-2.23-.06-4.46-.09-6.68,0-6.7.24-9.78-3.33-10.19-9.65-.17-2.67-.17-5.35-.17-8q0-56.16,0-112.32a85.85,85.85,0,0,1,.23-9.36c.9-8.16,2.57-9.67,11-10.22,2.66-.18,5.34,0,8,0,100.71,0,201.42.15,302.12-.24,11.74,0,19.94,3.34,27.54,12.42,22.31,26.61,45.25,52.72,68.44,78.58,7,7.83,10,16,9.91,26.46C-1263.84,2165.49-1263.64,2221.21-1263.65,2276.93Zm150.16-199.43c-2.4,9.3-4.25,16.46-6.1,23.61-8.34,32.29-16.55,64.61-25.07,96.84-10.47,39.57-21.26,79.06-31.8,118.61-13.52,50.78-26.87,101.61-40.42,152.39-3.62,13.61-3.82,13.55-18.28,13.91s-15.37,1.19-15.4,15.13q-.11,48.12,0,96.25c0,15.05,2.15,17.4,16.74,17.43q78.18.15,156.37,0c14.64,0,16.33-1.67,16.38-16,.12-32.53,0-65.06,0-97.59,0-2.23-.12-4.45-.23-6.68-.24-5.26-2.84-8.1-8.26-8.51-3.76-.29-7.48-1.11-13.09-2,5.26-19.47,10.09-37.31,14.91-55.13,3.15-.65,5.28-1.46,7.42-1.47,34.3-.1,68.6-.21,102.91,0,8.78,0,11.58,2.73,14.48,12.66,2.74,9.4,5.09,18.92,7.54,28.41,1.28,4.94,2.41,9.93,3.58,14.74-2.67,1.2-3.88,2.23-5.06,2.2-18-.47-17.08,5.46-17,19.62.07,31.19,0,62.38,0,93.57,0,14.53,1.36,16.13,16,16.16q79.52.18,159,0c14.45,0,15.95-1.66,16-16.34.09-31.2,0-62.39,0-93.58,0-17.19-.13-19.42-18.38-19-10.83.24-10.91-.3-13.61-10.4-11.51-42.95-22.88-85.93-34.5-128.85-10.45-38.63-21.26-77.15-31.71-115.78q-14.45-53.43-28.42-107c-3.58-13.62-6.81-27.33-10.62-42.74,7.14-.55,12.7-1.06,18.27-1.39,10.61-.62,12.29-2.19,12.89-12.58.13-2.22.06-4.45.06-6.68q0-45.45,0-90.91c0-18.25-1-19.29-18.53-19.3q-117.6-.06-235.22,0c-2.67,0-5.34.08-8,.17-5.83.19-9.52,3.28-9.54,9q-.25,55.47,0,110.93c0,6.51,4.22,9.3,10.6,9.33C-1125.23,2076.56-1120.89,2077-1113.49,2077.5Zm-528.81,402.2c-2.78,1.36-3.93,2.34-5.15,2.44-4.87.39-9.76.48-14.65.72-10.74.51-12.48,1.84-12.57,12.64q-.37,44.13,0,88.25c.08,10.81,2.46,12.79,13.9,13,10.69.22,21.39.05,32.08.05q125.65,0,251.31.09c9.33,0,17.18-1.36,23.79-9.1,21.7-25.39,43.83-50.42,66-75.38a30.94,30.94,0,0,0,8.33-21.74q-.17-187.18,0-374.38a29.13,29.13,0,0,0-7.75-20.59c-21.66-24.24-43.32-48.5-64.45-73.2-7-8.19-14.76-11.21-25.46-11.13-61,.41-122.09.2-183.14.2-33,0-66-.07-98.92,0-15,0-15.71.84-15.8,16.1-.12,20.5,0,41,0,61.51,0,8-.29,16.06.13,24.06.45,8.54,3,10.83,11.49,11.49,4,.31,8,.09,12,.17,5.26.09,8.37,2.6,8.67,8,.15,2.66.2,5.34.2,8q0,162.46,0,324.92C-1642.31,2470.74-1642.3,2475.54-1642.3,2479.7Z" transform="translate(3895.72 375.61)"/><path d="M-2076.35,2342.24c-.42,2.94-1.21,5.88-1.22,8.82q-.12,32.08.06,64.18c.09,12.87,1.29,14,13.36,14.54,19.31.84,19.29.84,19.28,20.57,0,32.54,0,65.08,0,97.62,0,15.34-1.41,16.74-16.93,16.75q-97.59.11-195.18,0c-15,0-15.75-.85-15.78-16q-.1-51.48,0-103c0-14.82.82-15.47,16-15.95,14.65-.46,16.9-2.68,16.91-17.41q0-125.7,0-251.4c0-14.73-2-16.56-17.18-16.83-4.37-.08-8.73,0-14,0-.71-4.5-1.69-7.86-1.7-11.23q-.15-54.16,0-108.31c0-12.65,1-13.66,13.89-13.69,52.58-.13,105.17.08,157.75-.2,8.71,0,13.85,3.44,18.23,10.66q50.64,83.33,101.74,166.37c8.61,14.05,17.23,28.1,26,42.07,1.74,2.78,4.11,5.18,7.28,9.1,2-3.84,4.11-5.93,4.13-8,.26-25,.4-49.92.12-74.87-.09-8.47-3-10.86-11.35-11.76-.88-.1-1.78-.07-2.67-.11-18-.85-18.05-.85-18.05-18.35,0-33.43-.06-66.86.05-100.29,0-13.89.71-14.6,14.14-14.61q98.26-.11,196.52,0c1.78,0,3.57,0,5.34.1,9.4.74,10.84,1.8,11,11.25.3,24.51.2,49,.24,73.54,0,12,.21,24.07,0,36.1-.23,10.2-1.76,12.51-11.64,12-23.52-1.2-20.41,4.95-20.42,22.45q-.09,121.7,0,243.37c0,2.68-.09,5.36,0,8,.46,10.51,1.38,11.45,11.51,12,20.65,1.18,20.63,1.18,20.62,22.06,0,31.65,0,63.29,0,94.94,0,16.44-1.42,18-17.21,18-52.58.08-105.17-.06-157.75.17-8,0-13.29-2.51-17.53-9.47q-62.2-102.09-124.81-203.92c-2.22-3.61-4.9-6.93-7.36-10.39Zm147.83-41c-10.3-5.58-12.47-13.77-16.53-20.39q-69.87-113.85-139.5-227.83c-19-31-13.71-25.16-46.26-25.41-36.54-.28-73.09-.18-109.63-.09-13.94,0-15.57,1.69-15.63,15.13q-.15,34.77,0,69.54c.06,14.82.62,15.26,16.1,15.87a68.58,68.58,0,0,1,8,.45c5,.81,8,3.68,8.14,9,.08,2.67.06,5.34.06,8q0,139.76,0,279.5c0,15.34,2.88,21.54-19.52,20.87-11.41-.34-12.6,1.44-12.73,13.51-.19,17.38-.07,34.77-.07,52.16,0,8-.22,16.06.13,24.07.41,9.39,1.95,10.82,11,11.39,3.55.22,7.13.09,10.69.09h140.39c7.13,0,14.27.27,21.39-.09,8.79-.45,11.17-2.52,11.27-11.41q.45-39.45,0-78.9c-.08-8.42-2.08-10.05-10.25-10.88-2.65-.27-5.34-.08-8-.13-13.41-.25-14.69-1.29-14.72-14.44q-.2-72.21,0-144.43c0-2.64,1.23-5.28,2.32-9.68,3.4,3.88,5.76,5.92,7.32,8.45q46.07,75.16,92,150.43,30.27,49.59,60.45,99.24c4.38,7.2,9.38,12.13,19,12,44.56-.41,89.13-.11,133.7-.25,13.09,0,15.08-2.25,15.18-16,.14-20.5,0-41,0-61.52,0-22.57,0-22.57-21.88-23.87-9.74-.59-11.32-2.15-11.9-12.08-.15-2.67,0-5.35,0-8v-275.5c0-20.68,0-20.68,20.51-22.06,10.52-.7,13-2.68,13.15-12.62q.39-38.12,0-76.22c-.1-8.83-2.32-10.84-11.25-11.41-6.66-.43-13.37-.18-20-.18q-74.88,0-149.75,0c-14.08,0-15.47,1.49-15.58,15.23-.11,14.71,0,29.42,0,44.13,0,9.81-.32,19.63.11,29.42.38,8.29,3.38,10.94,11.51,11.62,2.21.19,4.45,0,6.68.09,14.45.34,15.2,1,15.23,15.18q.12,71.53.07,143.09C-1927.45,2290.65-1928,2294.92-1928.52,2301.27Z" transform="translate(3895.72 375.61)"/><path d="M-3066.13,1919c59.26,0,118.53.24,177.8-.21,11.61-.09,20,3,27.85,12,28.31,32.65,57.2,64.8,86.29,96.76,6.18,6.79,8.54,13.72,8.5,22.76q-.43,92.26-.06,184.52c0,7.89-1.22,14.58-6.81,20.75q-45.34,50-90.09,100.52c-6.08,6.88-12.46,9.68-21.93,9.56-46.78-.58-93.57-.35-140.36-.28-14.95,0-16.28,1.47-16.31,15.8,0,20.06-.09,40.12,0,60.17.07,12.2,1.84,14,13.7,14.55,3.55.17,7.12,0,10.69,0,10.65.16,12.49,1.52,12.54,12.43q.32,72.87.08,145.75c0,11.91-2.22,13.91-14.29,14-31.2.15-62.39.05-93.58.05h-128.34c-3.12,0-6.24.08-9.35-.05-12.16-.51-13.87-2.07-13.92-14.26-.13-30.75,0-61.51,0-92.26,0-17.83-.15-35.66.07-53.49.14-11.24,1.46-12.29,12.32-12.24,26.41.12,26.41.12,26.41-25.79q0-159.79,0-319.58c0-2.23.1-4.47,0-6.69-.45-10-3.64-13.14-14-13.6-4.89-.22-9.8,0-14.7-.24-6.38-.3-9.73-3.82-9.95-10.2-.12-3.57-.15-7.13-.15-10.7q0-65.52,0-131c0-18.43.47-19,18.45-19Q-3155.69,1919-3066.13,1919Zm9.59,556.91c-1-2.59-1.87-3.82-1.88-5.06q-.45-59.49-.75-119c0-5,2.69-7.33,7.37-7.6,4-.23,8-.24,12-.25,47.68,0,95.37-.25,143.06.2,10.66.1,18.53-2.79,25.67-10.94,26.42-30.16,53.3-59.92,80.2-89.66,5.39-6,8-12.2,7.93-20.4q-.4-81.57,0-163.16a25.1,25.1,0,0,0-6.81-18.07q-41.25-45.59-82.26-91.43c-5.79-6.51-12.23-9.27-21-9.25q-167.13.3-334.27.16c-16,0-17.22,1.36-17.24,17.84,0,29,.29,58-.09,86.93-.39,28.63,3.47,24.31,24.19,24.42,13,.07,13.58.65,13.59,13.66q.08,189.9,0,379.82c0,3.8-.8,7.61-1.4,12.95-7.67,0-14.26-.09-20.84,0-14,.22-15.29,1.27-15.36,15.32q-.24,48.14-.06,96.29c0,14.63,2.3,16.9,17.33,16.92q94.26.15,188.53,0c14.3,0,15.48-1.16,15.53-15.07q.18-49.49,0-99c0-4.3-.85-8.59-1.37-13.46Z" transform="translate(3895.72 375.61)"/><path d="M-2569.88,1998.52h125.65c3.56,0,7.15-.2,10.68.14,7.92.75,9.74,2.7,10.47,10.93.27,3.1.14,6.24.15,9.36q.07,56.15.14,112.3c0,14.68,0,14.68-13.94,17.11-7.81,1.37-9.87,4.57-7.49,13.43,3.68,13.75,7.79,27.39,11.8,41.06q34.26,116.68,68.53,233.37c2.39,8.12,4.77,16.24,7,24.41,1.87,7,6,10,13.42,10.37,22.18,1,22.1,1.25,22.11,24.09q0,54.82.17,109.63c0,1.79.12,3.58,0,5.35-.62,9.39-2.91,11.74-12.06,12.3-2.22.14-4.45,0-6.68,0h-176.44c-2.23,0-4.46.05-6.68,0-12.29-.43-13.61-1.61-13.64-14.21-.08-41.45,0-82.9,0-124.34,0-5.95.18-10.88,7.54-13.67,6-2.27,5.24-10.83-.75-13.55-3.08-1.4-6.9-1.63-10.39-1.65-21.83-.14-43.66-.09-65.49,0-2.66,0-5.79-.4-7.84.83-2.8,1.66-5.82,4.39-6.71,7.29-.56,1.85,2,6.15,4.13,7.06,6.22,2.63,7.05,7.34,7.05,13,0,42.34.11,84.68,0,127,0,10.37-2,12.24-12.88,12.26q-93.55.18-187.13,0c-11.28,0-13.06-2.09-13.09-13.54q-.13-62.16,0-124.34c0-12.13,1.16-13.09,12.79-13.55,2.67-.1,5.35-.12,8,0,7.27.37,11.3-2.62,13.36-10q17-61,34.8-121.87c12-41,24.38-81.8,36.45-122.74q8.1-27.51,15.58-55.21c2.32-8.56,1.63-10.58-6.82-12.39-8.13-1.73-9.59-6.41-9.57-13.38.12-41,0-82,.15-123,0-12.5,1.27-13.71,14-13.75C-2659,1998.45-2614.43,1998.52-2569.88,1998.52ZM-2645.49,2487c4.5-15.49,8.35-29.54,12.72-43.43,1.65-5.24,6.16-7.17,11.63-7.16q48.81.12,97.6.07c4.95,0,8.5,1.43,10.12,6.67,3.41,11,7.33,21.93,10.64,33,1,3.2.55,6.82.75,10-2.07,1-3.2,1.85-4.45,2.06-14.17,2.4-14.21,2.38-14.22,16.38q0,32.78,0,65.53c0,7.13-.32,14.28.07,21.39.45,8.17,2.49,10.09,10.4,11.08a57,57,0,0,0,6.67.25q75.54,0,151.07,0c13.9,0,15.85-2.17,15.91-16.65.1-25.41.05-50.82,0-76.22,0-20.06-.06-20.26-20.57-21.22-6.25-.29-10.19-2.22-11.41-8.65-.49-2.61-1.49-5.13-2.23-7.7q-26.72-91.72-53.44-183.43c-14.11-48.24-28.46-96.4-42.51-144.65-1.15-3.93-.75-8.31-1.13-13.3,5.64-.27,9.56-.48,13.48-.65,12.25-.52,14.13-2.11,14.2-14q.21-42.12,0-84.24c-.07-13.55-1-14.6-14.44-14.62q-116.33-.13-232.63,0c-14.26,0-14.73.62-14.78,15.48q-.15,40.78,0,81.57c0,13.65.94,14.46,15.28,15.91,10.25,1,11.24,2.49,8.34,12.68q-9.66,34-19.43,68-12.33,43-24.75,85.9c-8.69,29.87-17.53,59.69-26.29,89.54-9.26,31.58-18.61,63.13-27.62,94.77-1.51,5.29-4.29,7.41-9.44,7.28-2.67-.07-5.35,0-8,.07-12.76.36-14,1.24-14.1,13.72q-.37,42.8-.11,85.59c.08,11.93,3,14.43,15.39,14.92,1.78.07,3.56,0,5.34,0q72.19,0,144.39,0c3.12,0,6.25,0,9.36-.19,6.43-.39,9.83-4,9.84-10.33.06-31.2,0-62.39-.06-93.59a9.84,9.84,0,0,0-.15-1.33c-.66-5-3.16-8.13-8.49-8.66C-2636.39,2488.41-2640.15,2487.73-2645.49,2487Z" transform="translate(3895.72 375.61)"/><path d="M-1262.86,2837.3c35.6.87,70.21,6,101.44,24.6,31.61,18.8,36.12,39.92,23.74,67.12a271.92,271.92,0,0,1-62.85,87.17,56.75,56.75,0,0,1-10.78,7.83c-12.38,6.88-22.07,6.4-31.16-4.45-8.44-10.07-16.1-21.47-21.26-33.5-12.92-30.11-18.93-62.06-20.76-94.75-.74-13.33-1.49-26.68-1.69-40-.19-12,1.6-13.52,14-14C-1269.1,2837.19-1266,2837.29-1262.86,2837.3Z" transform="translate(3895.72 375.61)"/><path d="M-679.76,3031.85c0-4.27-.06-5.6,0-6.94.81-17.88,5.8-21.82,23.42-19.43,38.55,5.21,75.49,16.18,111.2,31.35,6.83,2.91,13.17,7.39,19.07,12,11.19,8.72,13.63,20.51,9.35,33.58a65.5,65.5,0,0,1-7.93,16.85c-23.08,33.17-51,61.72-84.19,84.78a55,55,0,0,1-21.88,8.69c-11.75,1.9-20.51-2.9-24.32-14.22a310.28,310.28,0,0,1-11.59-46.36c-4-23.66-6.73-47.55-9.85-71.36C-677.86,3050.19-678.9,3039.56-679.76,3031.85Z" transform="translate(3895.72 375.61)"/><path d="M-2823.87,2852.48c14.87,2.47,27.33,3.66,39.29,6.75,14.35,3.7,23.62,14.29,28.89,27.62,7,17.74,8.12,36.16,4.23,55-5.63,27.27-16.8,51.57-37.54,70.5a52.78,52.78,0,0,1-20.44,11.69c-10.65,3-21.72.83-29.77-7.42-9.88-10.13-19.75-20.55-27.85-32.08-15.11-21.52-28.1-44.27-33.53-70.6-5.26-25.49,4.55-44.6,29.42-51.91C-2855.1,2857.34-2838.25,2855.3-2823.87,2852.48Z" transform="translate(3895.72 375.61)"/><path d="M-3369,3083.88c1,30.67-4.17,60.26-16.48,88.45a59.25,59.25,0,0,1-6.56,11.58c-7.93,10.67-16.63,12.26-27.49,4.53-8.69-6.17-17.51-12.45-25-20-17.89-17.95-35.25-36.45-52.35-55.16-5.36-5.86-9.55-12.89-13.72-19.72-11.91-19.48-10.42-32.44,8.21-46.2a164.62,164.62,0,0,1,39.76-21.2c17-6.36,34.88-10.44,52.61-14.51,16-3.66,24.74.31,31.49,15.12,4.53,9.94,7.33,20.92,9.24,31.73C-3367.87,3066.74-3369,3075.41-3369,3083.88Z" transform="translate(3895.72 375.61)"/><path d="M-867.11,3002c1.71-8,3-17.84,6-27.08,4.34-13.31,13.09-18.9,26.88-16,29.66,6.34,58.32,16,84.11,32.4,14.38,9.14,16.11,18.34,6.62,32.54-19.58,29.29-45.27,52.44-74.65,71.6a31.92,31.92,0,0,1-9.81,4.06c-11.06,2.7-18.62-.51-22.6-11.08-4.2-11.18-8-22.73-10.06-34.45C-863.62,3037.39-864.9,3020.47-867.11,3002Z" transform="translate(3895.72 375.61)"/><path d="M-3166.33,2998.12c-.39,26-4.25,48.68-13.18,70.26a59.46,59.46,0,0,1-8.3,13.58c-8.43,10.76-18,13.83-30.68,8.33a92,92,0,0,1-23.61-14.66,220.94,220.94,0,0,1-47.33-57.32c-7.26-12.78-6.33-19.59,6.71-26.26,18.88-9.65,38.61-17.7,58.24-25.83,7.73-3.2,16.07-5,24.25-7,18.18-4.39,27.7,5.82,32,21.8C-3166.56,2987.37-3166.73,2994.23-3166.33,2998.12Z" transform="translate(3895.72 375.61)"/><path d="M-2651.41,1563.51a49.31,49.31,0,0,1,27.61,7.26c20,12.13,29.16,35.68,22.05,57.56-5.45,16.79-27.28,29.84-47.1,28-20-1.87-35.71-11.5-45.16-29-12-22.21-.72-64.87,34.29-63.81C-2657.51,1563.57-2655.28,1563.51-2651.41,1563.51Z" transform="translate(3895.72 375.61)"/><path d="M-3840.91,2472.52c4.57-.48,8.87-1.31,13.17-1.32q48.78-.18,97.58,0c14.35,0,15.15.9,15.3,15.15q.2,18,0,36.1a26.59,26.59,0,0,0,6.44,18.42c12.15,14.23,24.26,28.5,35.95,43.1,5.55,6.94,12.1,9.42,20.85,9.36q62.15-.42,124.31,0c8.73.06,15.34-2.37,20.9-9.29,11.15-13.9,22.66-27.5,34.32-41a27.6,27.6,0,0,0,7.23-19.34c-.26-39.22-.16-78.44-.08-117.67,0-6.42-1-12.16-5.33-17.38-11.67-14-23.2-28.21-34.38-42.64-6.55-8.45-14.3-11.88-25.22-11.8-65.06.44-130.12,0-195.17.47-11.23.08-19.19-2.88-26.39-11.84-27.06-33.67-54.71-66.88-82.36-100.08a35.63,35.63,0,0,1-8.82-24.32q.42-104.3.07-208.58c0-7.92,1.68-14.64,6.84-20.94,27.92-34.13,55.81-68.29,83.15-102.88,7.33-9.28,15.44-13.19,27.31-13.14q136.35.54,272.7,0c11.29,0,19,3.65,26.09,12.6,26.93,33.78,54.47,67.08,82.23,100.19,7.3,8.7,10.74,17.62,10.46,29.1-.65,26.28-.11,52.59-.21,78.88,0,13.33-1.29,14.68-14.49,14.74q-50.79.21-101.59,0c-13.78-.06-14.8-1.26-14.9-15.65-.11-13.37-.18-26.74,0-40.11a25,25,0,0,0-5.9-17.2c-11.36-13.72-22.7-27.47-33.59-41.56-6.53-8.44-14.2-12.06-25.14-11.91q-60.15.83-120.31,0c-10.91-.13-18.41,3.35-24.84,12.15-10.23,14-21.24,27.5-32.38,40.81a32,32,0,0,0-7.91,21.93q.36,58.15,0,116.33a30.17,30.17,0,0,0,7.58,20.71c11.51,13.59,23,27.26,33.81,41.38,6,7.82,12.93,10.85,22.79,10.8,65.95-.33,131.9.08,197.84-.4,11.36-.08,19,3.33,26.16,12.19,27.65,34.33,55.85,68.23,84.17,102a35.46,35.46,0,0,1,8.8,24.31q-.36,100.29,0,200.56c0,8.48-2.17,15.36-7.65,22q-43.92,53-87.12,106.54c-6.23,7.76-13,10.58-22.8,10.55q-137.68-.45-275.37,0c-10.25,0-17.42-2.81-23.95-11.06-27.34-34.59-55.25-68.74-83.13-102.91-4.94-6-8.73-12.08-8.67-20.3.19-29,0-57.94.14-86.91C-3842.35,2479.72-3841.53,2476.7-3840.91,2472.52Z" transform="translate(3895.72 375.61)"/><path d="M-333.3,2417c6.9-2.88,5.16-7.4,5.16-11.09q0-214.62-.12-429.24v-1.34c-.21-17.14-1.42-18.39-18.09-18.58-17.88-.21-17.92-.21-17.95-17.8,0-25.85-.11-51.71,0-77.56.07-12.95.86-13.76,13.69-13.78q70.18-.15,140.37,0c12.71,0,13.82,1.1,13.89,13.73q.23,40.79-.05,81.57c0,4.25-1.17,8.5-2,13.94-7.79,0-14.42-.33-21,.09-8.95.56-10.75,2.55-11.36,11.41-.25,3.55-.09,7.13-.09,10.7v585.7c0,21.53,0,21.53,22.16,22.71,10.59.56,12.22,1.93,12.29,12.88q.27,42.78,0,85.58c-.06,10.93-1.14,12-12.59,12q-58.15.2-116.31,0c-10.26,0-12-1.72-15.61-11.18-22.4-59.45-45-118.85-67.22-178.36q-61.8-165.06-123.33-330.22c-3.59-9.59-7-19.24-10.6-28.83-1.5-4-1.59-4-9.59-6.49-.45,3.52-1.24,6.83-1.24,10.13q0,206.61.12,413.2c0,2.68-.12,5.36.08,8,.71,9.51,3.8,12.58,13.1,13.24.45,0,.9,0,1.34,0,22.56,1,22.55,1,22.54,22.93,0,24.52.07,49,0,73.55-.05,12.88-1,14-13.52,14q-71.52.18-143,0c-3.47,0-6.94-.72-11.25-1.19-.44-3.94-1.14-7.36-1.15-10.79q-.15-42.12-.05-84.24c0-12.63,1.22-14.45,13.49-14.1,24.57.72,21.05-4.54,21.05-21.86q.07-293.52,0-587c0-.45,0-.89,0-1.34-.06-19.8-.33-20.08-20.08-20.58-13.25-.33-14.42-1.35-14.47-14.69q-.18-40.79,0-81.57c0-10.74,1.75-12.79,12.33-12.85q57.48-.33,115,0c9.75.05,11.73,2.22,15.26,11.72q40,107.73,80.13,215.45c19.79,53.36,39.26,106.83,59.16,160.16,16,42.86,32.46,85.54,48.58,128.35,4.85,12.89,9.08,26,13.9,38.91C-338.42,2407.31-335.65,2412.11-333.3,2417Z" transform="translate(3895.72 375.61)"/><path d="M-784.23,2509.06c.34,3.78,1,7.67,1,11.57q.16,26.07,0,52.15c-.09,13.33-1.58,15-14.31,15.09q-61.49.2-123,0c-11.54,0-13.38-1.93-13.48-13.08-.16-18.27-.18-36.55.05-54.82.14-11.72,1.3-12.58,13.22-13.19,4.32-.23,8.63-.7,14.42-1.19-.64-6.38-.52-11.68-1.79-16.62q-9.86-38.14-20.38-76.12c-3.49-12.51-4.38-13-17.85-13q-60.84-.14-121.66,0c-12.59,0-15.06,2.6-18.16,14.79-6.45,25.42-13.3,50.74-19.88,76.13-1.08,4.15-1.63,8.44-2.73,14.33l27.06,2.85c.52,3.86,1.43,7.64,1.46,11.42q.26,27.4.06,54.82c-.1,12.08-1.33,13.57-12.65,13.62q-62.16.26-124.33,0c-11.05,0-13.06-1.83-13.17-12-.23-20.5,0-41,.15-61.51,0-1.72.71-3.43,1.24-5.85a79.54,79.54,0,0,1,8.82-1.66c13.13-1,13.32-.92,16.92-14.24,6.74-25,13.21-50,19.84-75q25-94.24,50-188.49c10.54-40,20.68-80.09,31.13-120.11,4.59-17.57,9.49-35.06,14.11-52-4.74-6.61-10.93-5.07-16.52-5.24-15-.45-15.43-.78-15.52-16.23q-.15-24.73,0-49.47c.1-14.16,1-15.06,15.33-15.08q95.58-.09,191.16,0c4.46,0,8.92-.16,13.37,0,9.25.4,11,1.8,11.28,11,.38,14.7.12,29.41.13,44.12,0,4.46.14,8.92-.07,13.37-.52,10.93-1.84,12.16-12.57,12.26-4.91,0-9.84-.27-14.7.16-8.45.76-10.11,3-8,11.38,4.18,16.38,8.77,32.66,13.12,49,8.69,32.66,17.27,65.35,26,98,6.69,24.91,13.7,49.73,20.39,74.64,6.46,24,12.61,48.17,19,72.22,8.71,32.65,17.61,65.25,26.31,97.91,3,11.17,5.55,22.45,8.39,33.66,4.06,16,4.35,16.23,20.7,18.41C-788.46,2507.33-786.84,2508.18-784.23,2509.06Zm-222.72-165.4v.06c15.59,0,31.19.28,46.77-.11,9.31-.22,11.93-3.9,9.77-12.86s-5-18-7.41-27.06Q-979.48,2221-1001,2138.17c-1-3.68-2.05-7.69-6.46-6.63-2.07.5-4.09,4.22-4.8,6.85-4.53,16.74-8.48,33.63-13,50.37-10.48,38.6-21.21,77.13-31.76,115.71-2.35,8.58-4.94,17.14-6.4,25.88-1.72,10.26.8,13.06,11.08,13.24C-1037.25,2343.86-1022.1,2343.66-1006.95,2343.66Z" transform="translate(3895.72 375.61)"/><path d="M-1298.34,2304.71c0,57-.36,114.07.26,171.1.14,13.36-3.15,23.73-12.35,33.6-16.68,17.89-32.45,36.67-48.1,55.5-6.78,8.16-14.17,11.79-25.14,11.73-84.64-.43-169.28-.23-253.92-.24-3.11,0-6.23,0-9.35-.17-5.34-.24-8.41-3.31-8.46-8.44-.2-18.26-.14-36.52,0-54.79,0-4.68,2.75-7.34,7.49-7.74.89-.08,1.78-.09,2.67-.16,21.15-1.73,21.17-1.73,21.17-22.51q0-180.45,0-360.91c0-1.34,0-2.68,0-4-.24-14.69-1-15.39-16.18-15.71-14.38-.29-15.24-1-15.39-15.09-.14-12.92-.11-25.84,0-38.76.12-14.26,1.13-15.36,15.11-15.4,31.18-.09,62.37,0,93.55,0,54.79,0,109.59.22,164.37-.19,10.76-.09,18.42,3.07,25.32,11.47,16.09,19.61,32.74,38.79,49.73,57.64,7.09,7.87,9.47,16.25,9.41,26.65C-1298.52,2187.08-1298.33,2245.89-1298.34,2304.71Zm-235.92-1.35q0,92.86,0,185.73c0,13.85,1.85,15.78,15.2,15.86,28.94.17,57.88-.08,86.82.16a22.48,22.48,0,0,0,18.62-8.51c6.6-7.81,13.31-15.57,20.41-22.94,6-6.24,8-13.33,7.88-21.83-.35-20-.12-40.08-.12-60.13q0-116.91.05-233.82c0-8.18-.38-16-6.25-22.53-7.75-8.6-14.83-17.87-23.14-25.86-3.84-3.69-9.89-7-15-7.13-31.16-.64-62.33-.44-93.5-.21-8.52.06-10.08,1.91-10.84,10.15-.33,3.53-.15,7.12-.15,10.68Z" transform="translate(3895.72 375.61)"/><path d="M-1908.59,2366.79c.31-4,.86-7.8.86-11.58q.07-114.35,0-228.68c0-1.79.08-3.57,0-5.35-.58-9.89-3.07-13.22-13-12.74-24,1.16-20.25-5.2-20.41-22.42q-.12-12.69,0-25.4c.14-13.11.71-13.78,13.4-13.9,15.15-.14,30.31,0,45.46,0q40.11,0,80.22,0c4.81,0,9.62.4,14,.59,1.14,2.23,2.25,3.39,2.27,4.57.26,15.58.37,31.17.54,46.76.06,6.57-2.9,10-9.73,9.61-.89-.05-1.78,0-2.67,0-21.51.69-21.49.69-21.48,22.76v311.6c0,1.79,0,3.57,0,5.35.11,15.83.86,16.62,16.53,16.86,4.82.07,9.65,0,15.58,0,.73,5.16,1.69,9,1.74,12.79.17,13.38.3,26.76-.08,40.12-.24,8.75-1.7,10.07-10.31,10.1-36.54.15-73.09,0-109.63.23-8.41.06-13-4.46-16.89-10.89q-28.55-46.78-57.24-93.46-60.63-99.1-121.27-198.19c-2.19-3.56-5.29-6.57-8.06-10-6.55,4.16-5.06,9.45-5.08,14-.12,21.84,0,43.69,0,65.53q0,75.55,0,151.12c0,3.12,0,6.24.18,9.35.31,5.83,3.35,9,9.3,9.11.89,0,1.78.15,2.67.09,21.22-1.46,19.57,2.24,19.59,21.48,0,8.92.21,17.84-.1,26.75-.17,4.71-1.25,9.38-1.86,13.7-2.64.63-3.91,1.2-5.19,1.2-44.57,0-89.13,0-133.7-.14-11.31,0-13.28-2.09-13.52-13.24q-.4-19.38-.06-38.78c.17-9.27,1.51-11.07,11.2-10.75,24.44.82,20.94-4,21-23.2q.12-157.14,0-314.28c0-2.23.1-4.46,0-6.68-.49-10.23-2.31-12-12.93-12.6-19.35-1.12-19.34-1.12-19.3-21,0-9.8-.13-19.61,0-29.42.14-9.47,1.18-10.83,10.77-11,16.93-.34,33.87-.14,50.81-.15,17.38,0,34.78.51,52.13-.21,10.26-.43,16.27,3.48,21.45,12.13,30.21,50.42,60.87,100.56,91.4,150.78q45.45,74.73,91,149.43C-1916.89,2362.41-1915.68,2367.23-1908.59,2366.79Z" transform="translate(3895.72 375.61)"/><path d="M-3047,2501.47c.59,4.55,1.39,8,1.41,11.4.14,18.27.21,36.55,0,54.82-.12,13.48-1.4,14.84-14.35,14.87q-72.84.14-145.69,0c-13.83,0-15.54-1.77-15.65-15.35-.14-18.72-.05-37.44,0-56.16,0-2.6.61-5.19,1.15-9.54,7.55-.31,14.93-.63,22.32-.92,11.75-.46,12.59-1.29,12.94-13.33.1-3.56,0-7.13,0-10.69v-411.8c0-1.78,0-3.57,0-5.35-.22-12.65-1.1-13.49-13.89-13.38-22.6.2-22.59.2-22.6-22.69,0-14.7-.11-29.41,0-44.12.08-13.18,1.16-14.37,14.69-14.39q84.21-.15,168.42,0c45.45,0,90.9.29,136.34-.22,10.41-.11,17.46,3.38,24.11,11.08,19.52,22.58,39.48,44.78,59.62,66.8,7.31,8,10.73,16.47,10.62,27.59q-.77,71.52,0,143c.13,12.06-3.48,21.26-11.51,30q-31.25,33.9-61.46,68.74c-5.81,6.66-12.28,9.15-21,9.1-52.13-.26-104.26-.12-156.39-.12-3.56,0-7.13-.06-10.69,0-12.73.34-13.47,1-13.49,14q-.11,74.86,0,149.74c0,14.71,1.31,15.76,16.1,16.1C-3059.77,2500.75-3053.68,2501.16-3047,2501.47Zm-35.13-359c0,27.6-.11,55.21,0,82.81.07,12.14,1.26,13.31,12.83,13.34,37.39.11,74.77,0,112.16.17,6.84,0,11.85-2.42,16.24-7.44q12.3-14.07,25.1-27.7c4.9-5.2,6.71-11.06,6.65-18.17q-.34-42.74,0-85.47c0-7.07-1.56-13-6.42-18.28-8.75-9.48-17.42-19-25.76-28.88-4.41-5.2-9.53-7.37-16.27-7.34-36.94.14-73.88,0-110.83.12-12.2,0-13.68,1.62-13.73,14C-3082.23,2087.27-3082.15,2114.87-3082.14,2142.47Z" transform="translate(3895.72 375.61)"/><path d="M-2570.06,2038.71h92.22c3.12,0,6.25-.14,9.35.1,8.54.66,10.56,2.17,10.74,10.31.36,16,.38,32.09,0,48.12-.21,8.18-2.13,9.55-10.88,10.09-5.33.32-10.72-.14-16,.31-8.44.72-10.17,3-7.95,11.24,4.74,17.6,9.75,35.13,14.86,52.63,8.61,29.44,17.45,58.82,26.09,88.25q16.18,55.06,32.2,110.19,17.31,59.67,34.41,119.41c1,3.42,2,6.83,3.1,10.23,2.19,7.1,6.36,11.69,14.41,11.31,7.62-.36,10.11,3.79,10.05,10.79-.15,16,.18,32.09-.11,48.12-.19,10.14-2,12.16-11.6,12.2q-60.81.27-121.62-.05c-9.54-.05-11.05-1.61-11.21-10.9q-.45-24.72,0-49.45c.18-9,1.39-9.87,10.07-10.64,2.66-.24,5.37,0,8-.32,8-1.05,10.18-4,8-11.63q-10.35-36.57-21.07-73c-2.4-8.2-5.67-11-14.44-11-41-.17-82-.06-122.95-.1-7.27,0-11.33,3.33-13.36,10.43-6.85,24-14.29,47.76-21.09,71.74-2.79,9.83-.13,13,10,13.83,14.66,1.26,14.72,1.26,14.8,15.69.08,13.81.22,27.63-.06,41.44-.24,11.6-2.6,14-14.46,14q-58.14.24-116.27,0c-11.59-.05-13.41-1.9-13.57-13.07q-.35-23.38,0-46.78c.14-9.08,1.25-11.23,9.58-10.92,12,.45,15.26-7.11,17.9-16,4.19-14.06,8.12-28.2,12.19-42.3q16.46-57,32.92-114c10.18-35.46,20.13-71,30.38-106.42,10.38-35.89,21-71.71,31.5-107.56a48.42,48.42,0,0,0,2-7.74c.6-5.2-1.71-8.65-7.07-9.43a30.64,30.64,0,0,0-8-.33c-12.65,1.57-14.91-2.15-14.78-14,.15-14.26-.17-28.52.08-42.77.19-10.68,1.9-12.06,12.76-12.07h98.89Zm-2.71,138.46c-7.72,10.06-8.25,20.11-11,29.22q-21.54,72.39-42.57,144.92c-3.36,11.48-1.23,14.34,11.1,14.53,15.15.23,30.3,0,45.45,0,13.81,0,27.63.22,41.44-.11,8.15-.19,10.25-2.89,9.4-10.84a51.37,51.37,0,0,0-2.17-9.07c-6.72-22.54-13.69-45-20.2-67.62-8.49-29.47-16.54-59.07-25-88.54C-2567.44,2185.8-2570,2182.36-2572.77,2177.17Z" transform="translate(3895.72 375.61)"/><path d="M-1007.19,2202c2.72,4,4.44,5.47,4.93,7.31q12.81,47.58,25.32,95.23a42.23,42.23,0,0,1,1.51,6.48c.53,5.27-1.64,8.83-7.25,8.93-16,.27-32,.61-47.94.27-6.85-.15-8.79-3.61-6.91-11.1,5.21-20.65,10.7-41.22,16.12-61.81,2.94-11.15,5.86-22.31,9-33.39C-1011.37,2210.44-1009.52,2207.24-1007.19,2202Zm7.68,86.11c-2.11-4,1-11.7-7.17-13.15-4.51-.81-7.45,4.86-7.5,13.31,0,5.05,1.39,8.81,7.21,9S-999.07,2294.24-999.51,2288.07Z" transform="translate(3895.72 375.61)"/><path d="M-1515.31,2480.4c-.17-3.92-.52-8.26-.53-12.6q0-163.14-.05-326.27c0-1.34-.06-2.68,0-4,.51-10.68,2.12-12.4,12.61-12.66,7.58-.18,15.15,0,22.73,0,14.26,0,28.53.29,42.77-.17,7.77-.25,13.31,2.4,18.83,7.86,9.47,9.37,13.23,19.68,13.15,33.28-.55,92.71-.76,185.42.15,278.13.17,16.75-8.27,26.36-18.64,36.17-1.72,1.63-4.84,2.5-7.32,2.51-26.28.06-52.57-.1-78.85-.3C-1511.67,2482.33-1512.88,2481.4-1515.31,2480.4Zm15.24-175.73v72.19c0,24.95-.1,49.91.08,74.86.08,12.37.89,13.08,12.82,13.23,13.36.16,26.75-.4,40.09.22,8.55.39,14.15-3.48,19.64-9.19,5.71-5.93,5-13.06,5-20.09q.09-131.68,0-263.36a63.12,63.12,0,0,0-.37-9.34c-1.55-10.14-10.64-20-20.14-20.28-16-.56-32.06-.17-48.1-.11-5.32,0-8.28,3-8.71,8.14-.34,4-.3,8-.3,12Q-1500.09,2233.82-1500.07,2304.67Z" transform="translate(3895.72 375.61)"/><path d="M-3057.74,2213.8V2071.88c4.38-.42,8.64-1.16,12.9-1.18,25.82-.11,51.64.19,77.45-.19,8.7-.13,14.73,2.85,21,9,11.2,11.08,16.41,23.05,15.27,39.15-1.35,19-.59,38.27-.15,57.41.19,8.13-2.07,14.56-7.66,20.44-20.9,22-12.47,18.1-40.71,18.41-20.92.22-41.84.11-62.76,0C-3047.2,2214.91-3052,2214.25-3057.74,2213.8Zm16.47-72.44h0c0,12.92-.18,25.83.06,38.74.19,9.93,1.77,11.69,11.85,11.86,19.14.31,38.29.38,57.43-.06,11.21-.25,21.82-11.16,22.07-22.55q.6-26.71,0-53.44c-.29-12-13.1-25.23-24.83-25.54-18.25-.49-36.51-.4-54.76-.06-9.39.18-11.54,2.68-11.72,12.31C-3041.46,2115.53-3041.27,2128.45-3041.27,2141.36Z" transform="translate(3895.72 375.61)"/><path d="M-2571.57,2240.93c1.81,4.8,3.89,9.52,5.37,14.42q11.58,38.3,22.9,76.67c2.56,8.62.56,11.9-8.2,12.11-13.81.34-27.63.36-41.44,0-8.94-.24-11.46-3.64-9.14-11.78q11.53-40.45,23.52-80.78c1.06-3.61,2.87-7,4.33-10.5Zm.34,64.3-4.3-.08c-1.17,4.78-3,9.54-3.17,14.35-.06,1.89,3.72,3.89,5.76,5.85,2.1-2.35,6.05-4.79,5.93-7C-2567.23,2313.9-2569.69,2309.59-2571.23,2305.23Z" transform="translate(3895.72 375.61)"/></svg>